<svg width="40pt" height="40pt" version="1.1" viewBox="0 0 40 40" xmlns="http://www.w3.org/2000/svg">
 <g transform="translate(-331.95 -259.68)">
  <g transform="matrix(.094422 0 0 .083892 318.9 256.19)" fill="#7b2cbf" stroke-width=".85142">
   <path d="m553.38 311.41c-1.7062-1.1308-3.8082-1.5266-5.797-1.0742l-72.005 16.353-28.718-16.583v-60.212l28.718-16.583 72.005 16.353c1.9956 0.45565 4.0975 0.0665 5.797-1.0742 1.7062-1.1407 2.8603-2.9367 3.2028-4.9555l5.1251-30.358c0.65519-3.8979-1.8392-7.6295-5.7005-8.5076l-22.254-5.0586 14.521-8.3812c1.7062-0.99114 2.9567-2.6141 3.4722-4.5232l5.4544-20.354c0.50553-1.9057 0.24612-3.9411-0.74499-5.654-0.99114-1.7062-2.6208-2.9567-4.5232-3.4722l-20.354-5.4544c-1.9057-0.51551-3.9411-0.24611-5.654 0.74499l-14.521 8.3812 6.7416-21.798c1.1707-3.7782-0.81151-7.8092-4.5132-9.186l-28.856-10.736c-1.9057-0.70841-4.0442-0.60198-5.8868 0.29932-1.8392 0.90796-3.2261 2.5243-3.8281 4.4832l-21.844 70.535-28.167 16.257-52.708-30.744v-32.208l50.161-54.185c1.4002-1.5033 2.102-3.5088 1.9756-5.5575-0.14301-2.042-1.1042-3.9411-2.6806-5.2449l-23.727-19.623c-3.0531-2.5177-7.5331-2.2217-10.214 0.67848l-15.512 16.749v-16.765c0-1.9756-0.78158-3.8746-2.1818-5.2682l-14.9-14.9c-2.9135-2.9135-7.6229-2.9135-10.533 0l-14.9 14.9c-1.4002 1.4002-2.1818 3.2926-2.1818 5.2682v16.769l-15.512-16.749c-2.6806-2.8968-7.1673-3.1962-10.214-0.67848l-23.727 19.623c-1.5798 1.3037-2.5476 3.2028-2.6806 5.2449-0.13304 2.042 0.57205 4.0542 1.9756 5.5575l50.161 54.185v32.208l-52.708 30.744-28.167-16.257-21.844-70.535c-0.60198-1.959-1.9888-3.5753-3.8281-4.4832-1.8392-0.90132-3.9778-1.0044-5.8868-0.29933l-28.856 10.736c-3.7017 1.3769-5.6906 5.4079-4.5132 9.186l6.7416 21.798-14.521-8.3812c-1.7128-0.98441-3.7549-1.2605-5.654-0.74499l-20.354 5.4544c-1.9057 0.50553-3.5387 1.7594-4.5232 3.4722-0.99114 1.7128-1.2506 3.7482-0.745 5.654l5.4544 20.354c0.50553 1.9057 1.7594 3.5387 3.4722 4.5232l14.521 8.3812-22.254 5.0586c-3.858 0.87799-6.3557 4.613-5.7005 8.5076l5.1251 30.358c0.34256 2.0188 1.4966 3.8082 3.2028 4.9555 1.7062 1.1407 3.8214 1.5266 5.797 1.0742l72.005-16.353 28.718 16.583v60.212l-28.718 16.583-72.005-16.353c-1.9822-0.45565-4.0975-0.0599-5.797 1.0742-1.7062 1.1407-2.8603 2.9367-3.2028 4.9555l-5.1251 30.358c-0.65519 3.8979 1.8392 7.6295 5.7005 8.5076l22.254 5.0586-14.521 8.3812c-1.7062 0.99114-2.9567 2.6141-3.4722 4.5232l-5.4544 20.354c-0.50553 1.9057-0.24611 3.9411 0.745 5.654 0.99113 1.7062 2.6208 2.9567 4.5232 3.4722l20.354 5.4544c1.8991 0.51551 3.9345 0.24611 5.654-0.74499l14.521-8.3812-6.7416 21.798c-1.1707 3.7782 0.8115 7.8092 4.5132 9.186l28.856 10.736c0.83479 0.31263 1.7128 0.46894 2.6008 0.46894 1.1241 0 2.2582-0.25942 3.286-0.76827 1.8392-0.90796 3.2261-2.5243 3.8281-4.4832l21.844-70.535 28.167-16.257 52.708 30.744v32.208l-50.161 54.185c-1.4002 1.5033-2.102 3.5088-1.9756 5.5575 0.14301 2.042 1.1042 3.9411 2.6806 5.2449l23.727 19.623c3.0465 2.511 7.5331 2.2283 10.214-0.67848l15.512-16.749v16.769c0 1.9756 0.78158 3.8746 2.1818 5.2682l14.9 14.9c1.4534 1.4534 3.3591 2.1818 5.2682 2.1818 1.9057 0 3.8148-0.73168 5.2682-2.1818l14.9-14.9c1.4002-1.4002 2.1818-3.2926 2.1818-5.2682v-16.769l15.512 16.749c2.6806 2.9068 7.1606 3.1895 10.214 0.67848l23.727-19.623c1.5798-1.3037 2.5476-3.2028 2.6806-5.2449 0.13304-2.042-0.57204-4.0542-1.9756-5.5575l-50.161-54.185v-32.208l52.708-30.744 28.167 16.257 21.844 70.535c0.60198 1.959 1.9888 3.5753 3.8281 4.4832 1.0343 0.50553 2.1618 0.76827 3.286 0.76827 0.87799 0 1.7594-0.15631 2.6008-0.46894l28.856-10.736c3.7017-1.3769 5.6906-5.4079 4.5132-9.186l-6.7416-21.798 14.521 8.3812c1.7062 0.98441 3.7482 1.2506 5.654 0.74499l20.354-5.4544c1.9057-0.50553 3.5387-1.7594 4.5232-3.4722 0.99114-1.7128 1.2506-3.7482 0.74499-5.654l-5.4544-20.354c-0.50553-1.9057-1.7594-3.5387-3.4722-4.5232l-14.521-8.3812 22.254-5.0586c3.858-0.87799 6.3557-4.613 5.7005-8.5076l-5.1251-30.358c-0.34256-2.0188-1.4966-3.8082-3.2028-4.9555zm-285.33 16.456v-95.742l81.949-47.806 81.949 47.806v95.742l-81.949 47.806zm195.15-121.83c1.623-0.93793 2.8369-2.4578 3.3891-4.2472l20.368-65.799 14.87 5.5342-10.287 33.225c-0.90796 2.9268 0.0732 6.1163 2.4644 8.032 2.3979 1.9057 5.7305 2.1518 8.3745 0.62527l28.317-16.346 10.177 2.7272-2.7272 10.177-28.317 16.346c-2.6507 1.5332-4.1041 4.5364-3.6351 7.5696 0.46229 3.0332 2.7205 5.4677 5.7138 6.1529l33.927 7.7027-2.6374 15.645-67.169-15.259c-1.8259-0.41574-3.7482-0.13304-5.3779 0.8115l-23.803 13.746v-4.8358c0-2.6441-1.4002-5.1019-3.695-6.4356l-3.2693-1.9057 23.325-13.463zm-122.64-66.109-46.792-50.54 12.232-10.111 23.641 25.529c2.072 2.2416 5.328 2.9932 8.1883 1.8691 2.8536-1.1175 4.7294-3.8746 4.7294-6.9344l-3e-3 -32.706 7.4499-7.4499 7.4499 7.4499v32.7c0 3.0698 1.8758 5.8169 4.7294 6.9344 2.8603 1.1175 6.1096 0.3725 8.1883-1.8691l23.641-25.529 12.232 10.111-46.792 50.54c-1.2804 1.3769-1.9888 3.1795-1.9888 5.0586v26.441l-3.695-2.1518c-2.3182-1.357-5.1917-1.357-7.5098 0l-3.695 2.1518v-26.441c0-1.8758-0.70841-3.6884-1.9888-5.0586zm-111.22 79.013c-1.633-0.93792-3.562-1.2306-5.3779-0.8115l-67.169 15.259-2.6374-15.645 33.927-7.7027c2.9866-0.67848 5.2516-3.113 5.7138-6.1529 0.4623-3.0332-0.98441-6.0331-3.6351-7.5696l-28.317-16.346-2.7272-10.177 10.177-2.7272 28.317 16.346c2.6374 1.52 5.9666 1.2804 8.3745-0.62526 2.3913-1.9157 3.3757-5.1019 2.4644-8.032l-10.287-33.225 14.87-5.5342 20.368 65.799c0.55209 1.796 1.766 3.3092 3.3891 4.2472l23.325 13.463-3.2693 1.9057c-2.2948 1.3337-3.695 3.7848-3.695 6.4356v4.8358l-23.803-13.746zm7.4499 135.02c-1.623 0.93793-2.8369 2.4578-3.3891 4.2472l-20.368 65.799-14.87-5.5342 10.287-33.225c0.90795-2.9268-0.0732-6.1163-2.4644-8.032-2.4079-1.9157-5.7371-2.1618-8.3745-0.62526l-28.317 16.346-10.177-2.7272 2.7272-10.177 28.317-16.346c2.6507-1.5332 4.1041-4.5364 3.6352-7.5696-0.4623-3.0332-2.7206-5.4677-5.7138-6.1529l-33.927-7.7027 2.6374-15.645 67.169 15.259c1.8192 0.40908 3.7482 0.12639 5.3779-0.81151l23.803-13.746v4.8358c0 2.6441 1.4002 5.1019 3.695 6.4356l3.2693 1.9057-23.325 13.463zm122.64 66.118 46.792 50.54-12.232 10.111-23.641-25.529c-2.072-2.2483-5.328-2.9866-8.1883-1.8691-2.8536 1.1175-4.7294 3.8746-4.7294 6.9344v32.696l-7.4499 7.4499-7.4499-7.4499v-32.696c0-3.0698-1.8758-5.8169-4.7294-6.9344-2.8603-1.1175-6.1096-0.37249-8.1883 1.8691l-23.641 25.529-12.232-10.111 46.792-50.54c1.2805-1.3769 1.9888-3.1795 1.9888-5.0586v-26.441l3.695 2.1518c1.1541 0.67848 2.4578 1.0144 3.7549 1.0144s2.6008-0.33592 3.7549-1.0144l3.695-2.1518v26.441c0 1.8758 0.70841 3.6884 1.9888 5.0586zm152.48-70.113c-2.9866 0.67848-5.2516 3.113-5.7138 6.1529-0.46229 3.0332 0.98442 6.0331 3.6351 7.5696l28.317 16.346 2.7272 10.177-10.177 2.7272-28.317-16.346c-2.6441-1.5266-5.9732-1.2804-8.3745 0.62527-2.3913 1.9157-3.3757 5.1019-2.4644 8.032l10.287 33.225-14.87 5.5342-20.368-65.799c-0.5521-1.796-1.766-3.3092-3.3891-4.2471l-23.325-13.463 3.2693-1.9057c2.2948-1.3337 3.695-3.7848 3.695-6.4356v-4.8358l23.803 13.746c1.633 0.93128 3.552 1.2206 5.3779 0.8115l67.169-15.259 2.6374 15.645-33.927 7.7027z"/>
   <path d="m353.95 353.37 59.599-37.25c2.1751-1.3636 3.5022-3.7482 3.5022-6.3192v-59.599c0-2.5709-1.327-4.9555-3.5022-6.3192l-59.599-37.25c-2.4146-1.5033-5.4844-1.5033-7.9056 0l-59.599 37.25c-2.1751 1.3636-3.5022 3.7482-3.5022 6.3192v59.599c0 2.5709 1.327 4.9555 3.5022 6.3192l59.599 37.25c1.2073 0.75164 2.5842 1.1308 3.9478 1.1308 1.3636 0 2.7406-0.37915 3.9478-1.1308zm-56.098-47.693v-51.345l52.15-32.593 52.15 32.593v51.345l-52.15 32.593z"/>
  </g>
 </g>
</svg>
