<svg width="37" height="36" viewBox="0 0 37 36" fill="none" xmlns="http://www.w3.org/2000/svg">
<path d="M34.0548 9.20642L32.572 7.75774C32.5716 7.75731 32.5715 7.75677 32.571 7.75635L27.2415 2.54993C26.8916 2.20813 26.3247 2.20813 25.9748 2.54993C25.6248 2.89172 25.6248 3.44543 25.9748 3.78723L29.1052 6.84535L27.4305 11.2068C26.8146 12.8081 27.217 14.6256 28.4558 15.8373L34.6252 21.8623V30.25C34.6252 32.1794 33.0172 33.75 31.0418 33.75C29.0664 33.75 27.4585 32.1794 27.4585 30.25V25.875C27.4585 23.4619 25.4499 21.5 22.9793 21.5H22.0835V4.875C22.0835 2.46277 20.0749 0.5 17.6043 0.5H5.06266C2.593 0.5 0.583496 2.46277 0.583496 4.875V31.125C0.583496 33.5381 2.593 35.5 5.06266 35.5H17.6043C20.0749 35.5 22.0835 33.5381 22.0835 31.125V23.25H22.9793C24.4613 23.25 25.6668 24.4275 25.6668 25.875V30.25C25.6668 33.145 28.0779 35.5 31.0418 35.5C34.0058 35.5 36.4168 33.145 36.4168 30.25V14.7743C36.4168 12.7021 35.556 10.6727 34.0548 9.20642ZM20.2918 31.125C20.2918 32.5725 19.0863 33.75 17.6043 33.75H5.06266C3.58069 33.75 2.37516 32.5725 2.37516 31.125V16.25H20.2918V31.125ZM20.2918 14.5H2.37516V4.875C2.37516 3.42749 3.58069 2.25 5.06266 2.25H17.6043C19.0863 2.25 20.2918 3.42749 20.2918 4.875V14.5ZM34.6252 19.3877L29.7226 14.6008C28.9807 13.8737 28.7393 12.7825 29.1067 11.822L30.4959 8.20496L32.788 10.4437C33.955 11.5845 34.6252 13.1627 34.6252 14.7743V19.3877Z" fill="#7B2CBF"/>
</svg>
