<?xml version="1.0" standalone="no"?>
<!DOCTYPE svg PUBLIC "-//W3C//DTD SVG 20010904//EN"
 "http://www.w3.org/TR/2001/REC-SVG-20010904/DTD/svg10.dtd">
<svg version="1.0" xmlns="http://www.w3.org/2000/svg"
 width="313.000000pt" height="313.000000pt" viewBox="0 0 313.000000 313.000000"
 preserveAspectRatio="xMidYMid meet">
<metadata>
Created by potrace 1.14, written by Peter Selinger 2001-2017
</metadata>
<g transform="translate(0.000000,313.000000) scale(0.100000,-0.100000)"
fill="#000000" stroke="none">
<path d="M1030 2818 c-518 -106 -892 -477 -1006 -998 -25 -114 -27 -351 -3
-470 40 -206 85 -317 196 -490 58 -89 262 -302 302 -315 12 -3 21 -10 21 -15
0 -4 15 -15 33 -24 17 -9 46 -26 62 -36 131 -85 348 -150 553 -166 l72 -5 0
298 0 298 -60 3 c-139 6 -298 81 -411 194 -78 78 -129 159 -167 267 -24 68
-27 90 -27 211 0 122 3 143 28 215 97 276 331 451 620 464 13 1 44 54 116 204
170 354 169 352 157 358 -23 14 -96 21 -241 24 -118 2 -170 -1 -245 -17z"/>
<path d="M1670 2647 c-31 -67 -89 -189 -129 -270 -39 -82 -71 -150 -71 -153 0
-2 13 -4 28 -4 56 0 191 -56 262 -109 184 -137 283 -333 281 -556 -2 -261
-155 -497 -396 -606 -59 -27 -82 -34 -147 -46 -24 -5 -28 -10 -29 -42 0 -49 0
-488 0 -528 l1 -33 250 1 250 0 0 142 0 142 82 -142 81 -143 250 0 c195 0 248
3 245 13 -3 6 -47 137 -97 290 l-93 278 56 112 c94 191 134 357 134 563 0 67
-7 160 -14 207 -14 88 -59 243 -76 265 -6 6 -8 12 -4 12 18 0 -115 229 -181
311 -34 43 -158 165 -203 200 -119 92 -271 173 -393 210 -29 8 -29 8 -87 -114z"/>
<path d="M2240 2705 c0 -2 30 -27 66 -55 427 -335 612 -877 484 -1416 -22 -95
-57 -189 -105 -287 l-35 -72 94 -285 94 -285 142 -3 c133 -2 142 -1 135 15 -8
19 -60 163 -132 363 -25 69 -49 137 -55 152 -8 23 -4 42 25 110 66 154 121
324 132 410 3 24 9 70 14 103 12 85 5 266 -14 359 -44 211 -141 385 -309 551
-137 136 -287 237 -458 310 -43 18 -78 32 -78 30z"/>
</g>
</svg>
