<?xml version="1.0" encoding="UTF-8" standalone="no"?>
<svg
   width="23.25"
   height="25.833286"
   viewBox="0 0 23.25 25.833286"
   fill="none"
   version="1.1"
   id="svg4"
   sodipodi:docname="calendar.svg"
   inkscape:version="1.2 (1:1.2.1+202207142221+cd75a1ee6d)"
   xmlns:inkscape="http://www.inkscape.org/namespaces/inkscape"
   xmlns:sodipodi="http://sodipodi.sourceforge.net/DTD/sodipodi-0.dtd"
   xmlns="http://www.w3.org/2000/svg"
   xmlns:svg="http://www.w3.org/2000/svg">
  <defs
     id="defs8" />
  <sodipodi:namedview
     id="namedview6"
     pagecolor="#ffffff"
     bordercolor="#666666"
     borderopacity="1.0"
     inkscape:showpageshadow="2"
     inkscape:pageopacity="0.0"
     inkscape:pagecheckerboard="0"
     inkscape:deskcolor="#d1d1d1"
     showgrid="false"
     inkscape:zoom="8.7407407"
     inkscape:cx="-1.2012712"
     inkscape:cy="12.927966"
     inkscape:window-width="1920"
     inkscape:window-height="1009"
     inkscape:window-x="0"
     inkscape:window-y="34"
     inkscape:window-maximized="1"
     inkscape:current-layer="svg4" />
  <path
     d="m 19.375,2.583337 h -1.2917 v -1.29167 c 0,-0.34257 -0.1361,-0.67111 -0.3783,-0.913347 C 17.4628,0.136086 17.1342,0 16.7917,0 16.4491,0 16.1206,0.136086 15.8783,0.37832 15.6361,0.620557 15.5,0.949097 15.5,1.291667 v 1.29167 H 7.75 V 1.291667 C 7.75,0.949097 7.61391,0.620557 7.37168,0.37832 7.12944,0.136086 6.8009,0 6.45833,0 6.11576,0 5.78722,0.136086 5.54499,0.37832 5.30275,0.620557 5.16667,0.949097 5.16667,1.291667 v 1.29167 H 3.875 c -1.02771,0 -2.01334,0.40825 -2.74004,1.13496 C 0.40826,4.444997 0,5.430617 0,6.458337 v 15.49995 c 0,1.0278 0.40826,2.0134 1.13496,2.7401 0.7267,0.7267 1.71233,1.1349 2.74004,1.1349 h 15.5 c 1.0277,0 2.0133,-0.4082 2.74,-1.1349 0.7267,-0.7267 1.135,-1.7123 1.135,-2.7401 V 6.458337 c 0,-1.02772 -0.4083,-2.01334 -1.135,-2.74004 -0.7267,-0.72671 -1.7123,-1.13496 -2.74,-1.13496 z M 6.45833,19.374987 c -0.25546,0 -0.50519,-0.0757 -0.71761,-0.2177 -0.21241,-0.1419 -0.37797,-0.3436 -0.47573,-0.5797 -0.09776,-0.236 -0.12334,-0.4957 -0.0735,-0.7462 0.04983,-0.2506 0.17285,-0.4808 0.3535,-0.6614 0.18064,-0.1806 0.41079,-0.3037 0.66135,-0.3535 0.25056,-0.0498 0.51027,-0.0243 0.74629,0.0735 0.23602,0.0978 0.43775,0.2633 0.57968,0.4757 0.14193,0.2124 0.21769,0.4622 0.21769,0.7176 0,0.3426 -0.13609,0.6712 -0.37832,0.9134 -0.24224,0.2422 -0.57078,0.3783 -0.91335,0.3783 z m 10.33337,0 H 11.625 c -0.3426,0 -0.6711,-0.1361 -0.9133,-0.3783 -0.2423,-0.2422 -0.3784,-0.5708 -0.3784,-0.9134 0,-0.3425 0.1361,-0.6711 0.3784,-0.9133 0.2422,-0.2422 0.5707,-0.3783 0.9133,-0.3783 h 5.1667 c 0.3425,0 0.6711,0.1361 0.9133,0.3783 0.2422,0.2422 0.3783,0.5708 0.3783,0.9133 0,0.3426 -0.1361,0.6712 -0.3783,0.9134 -0.2422,0.2422 -0.5708,0.3783 -0.9133,0.3783 z m 3.875,-7.75 H 2.58333 v -5.16665 c 0,-0.34258 0.13609,-0.67112 0.37832,-0.91335 0.24224,-0.24223 0.57078,-0.37832 0.91335,-0.37832 h 1.29167 v 1.29167 c 0,0.34257 0.13608,0.67111 0.37832,0.91334 0.24223,0.24224 0.57077,0.37832 0.91334,0.37832 0.34257,0 0.67111,-0.13608 0.91335,-0.37832 C 7.61391,7.129447 7.75,6.800907 7.75,6.458337 v -1.29167 h 7.75 v 1.29167 c 0,0.34257 0.1361,0.67111 0.3783,0.91334 0.2423,0.24224 0.5708,0.37832 0.9134,0.37832 0.3425,0 0.6711,-0.13608 0.9133,-0.37832 0.2422,-0.24223 0.3783,-0.57077 0.3783,-0.91334 v -1.29167 h 1.2917 c 0.3426,0 0.6711,0.13609 0.9133,0.37832 0.2423,0.24223 0.3784,0.57077 0.3784,0.91335 z"
     fill="#7B2CBF"
     id="path2"
     style="fill:#7b2cbf;fill-opacity:0.3" />
</svg>
