<svg width="24" height="24" fill="none" version="1.1" viewBox="0 0 24 24" xmlns="http://www.w3.org/2000/svg">
 <path d="m0.54354 20.689c-0.71982 0.7198-0.73451 1.9979 0.01469 2.7471 0.76388 0.7491 2.0419 0.7345 2.7471 0.0293l8.6965-8.6965 8.6819 8.6818c0.7345 0.7345 1.9979 0.7345 2.7471-0.0146 0.7492-0.7639 0.7492-2.0126 0.0146-2.7471l-8.6818-8.6819 8.6818-8.6965c0.7346-0.73451 0.7492-1.9979-0.0146-2.7471-0.7492-0.7492-2.0126-0.7492-2.7471-0.01469l-8.6819 8.6819-8.6965-8.6819c-0.70513-0.71982-1.9979-0.7492-2.7471 0.01469-0.7492 0.74919-0.73451 2.0419-0.01469 2.7471l8.6819 8.6965z" fill="#fff"/>
</svg>
