<?xml version="1.0" encoding="UTF-8" standalone="no"?>
<svg
   width="560.03998pt"
   height="402.55621pt"
   version="1.1"
   viewBox="0 0 560.03998 402.55621"
   id="svg4"
   sodipodi:docname="credit_card.svg"
   inkscape:version="1.2.2 (1:1.2.2+202212051550+b0a8486541)"
   xmlns:inkscape="http://www.inkscape.org/namespaces/inkscape"
   xmlns:sodipodi="http://sodipodi.sourceforge.net/DTD/sodipodi-0.dtd"
   xmlns="http://www.w3.org/2000/svg"
   xmlns:svg="http://www.w3.org/2000/svg">
  <defs
     id="defs8" />
  <sodipodi:namedview
     id="namedview6"
     pagecolor="#ffffff"
     bordercolor="#666666"
     borderopacity="1.0"
     inkscape:showpageshadow="2"
     inkscape:pageopacity="0.0"
     inkscape:pagecheckerboard="0"
     inkscape:deskcolor="#d1d1d1"
     inkscape:document-units="pt"
     showgrid="false"
     inkscape:zoom="0.25285714"
     inkscape:cx="340.11299"
     inkscape:cy="359.88701"
     inkscape:window-width="1920"
     inkscape:window-height="1009"
     inkscape:window-x="0"
     inkscape:window-y="34"
     inkscape:window-maximized="1"
     inkscape:current-layer="svg4" />
  <path
     d="m 15.758,0.020114 c -4.3203,0.43359 -8.3242,2.457 -11.238,5.6797 -2.9102,3.2227 -4.5195,7.4102 -4.5156,11.754 v 62.414 l 560.03,-0.004 V 17.453908 c -0.0156,-4.6484 -1.8828,-9.0977 -5.1836,-12.367 -3.3047,-3.2695 -7.7695,-5.0938 -12.418,-5.0664 h -525 c -0.55859,-0.02734 -1.1172,-0.02734 -1.6758,0 z M 0,114.86011 v 30.625 h 560.04 v -30.625 z m 0,65.625 v 204.5 h 0.0039 c -0.01953,4.6445 1.8086,9.1016 5.0781,12.395 3.2656,3.2969 7.7109,5.1562 12.352,5.1758 h 525.00001 c 4.6719,0.0273 9.1602,-1.8164 12.465,-5.1133 3.3047,-3.3008 5.1562,-7.7852 5.1367,-12.457 v -204.5 z m 111.12,46.484 h 0.004 c 0.60156,-0.0312 1.207,-0.0312 1.8125,0 h 75.676 -0.004 c 6.2539,0.008 12.027,3.3477 15.152,8.7656 3.125,5.418 3.125,12.086 0,17.504 -3.125,5.418 -8.8984,8.7578 -15.152,8.7656 h -75.672 c -6.2539,0.31641 -12.203,-2.7266 -15.605,-7.9805 -3.4062,-5.2578 -3.75,-11.926 -0.90625,-17.508 2.8438,-5.5781 8.4453,-9.2148 14.699,-9.5469 z m 248.66,6.8711 c 13.051,0 24.914,5.125 34.043,13.262 9.1289,-8.1367 20.988,-13.262 34.043,-13.262 28.25,0 51.543,23.293 51.543,51.543 0,28.25 -23.293,51.543 -51.543,51.543 -13.055,0 -24.914,-5.125 -34.043,-13.262 -9.1289,8.1367 -20.992,13.262 -34.043,13.262 -28.25,0 -51.543,-23.293 -51.543,-51.543 0,-28.25 23.293,-51.543 51.543,-51.543 z m 0,35 c -9.3359,0 -16.543,7.207 -16.543,16.543 0,9.336 7.207,16.543 16.543,16.543 9.3359,0 16.543,-7.207 16.543,-16.543 0,-9.336 -7.207,-16.543 -16.543,-16.543 z m 68.086,0 c -9.3359,0 -16.543,7.207 -16.543,16.543 0,9.336 7.207,16.543 16.543,16.543 9.3359,0 16.543,-7.207 16.543,-16.543 0,-9.336 -7.207,-16.543 -16.543,-16.543 z m -316.74,20.031 0.004,-0.004 c 0.60156,-0.0312 1.207,-0.0312 1.8125,0 h 75.676 -0.004 c 4.7109,-0.10156 9.2617,1.6953 12.629,4.9883 3.3672,3.293 5.2656,7.8047 5.2656,12.512 0,4.7109 -1.8984,9.2227 -5.2656,12.516 -3.3672,3.293 -7.918,5.0898 -12.629,4.9844 h -75.672 c -6.168,0.18359 -11.977,-2.8867 -15.297,-8.0898 -3.3203,-5.2031 -3.6602,-11.766 -0.89453,-17.281 2.7617,-5.5156 8.2266,-9.1719 14.379,-9.6289 z"
     id="path2"
     style="fill:#000000;fill-opacity:0.69999999" />
</svg>
