<svg width="36" height="32" viewBox="0 0 36 32" fill="none" xmlns="http://www.w3.org/2000/svg">
<path d="M7.0559 16.684C7.0939 16.684 7.0939 16.684 7.1319 16.722C7.1699 16.722 7.1699 16.722 7.2079 16.76H30.5399C30.9579 16.76 31.2999 16.418 31.2999 16V5.36001C31.2999 4.94201 30.9579 4.60001 30.5399 4.60001H18.1519C18.1139 4.60001 18.1139 4.60001 18.0759 4.63801C18.0379 4.63801 18.0379 4.67601 17.9999 4.67601C17.9619 4.67601 17.9619 4.71401 17.9239 4.71401C17.8859 4.71401 17.8859 4.75201 17.8479 4.75201L17.8099 4.79001L6.7899 15.43L6.7139 15.506L6.6759 15.544C6.6759 15.582 6.6379 15.582 6.6379 15.62C6.6379 15.62 6.6379 15.658 6.5999 15.658C6.5999 15.696 6.5999 15.696 6.5619 15.734C6.5619 15.772 6.5239 15.772 6.5239 15.81V16.152C6.5239 16.19 6.5239 16.19 6.5619 16.228C6.5619 16.266 6.5999 16.266 6.5999 16.304C6.5999 16.342 6.6379 16.342 6.6379 16.38C6.6379 16.418 6.6759 16.418 6.6759 16.456L6.7139 16.494L6.7899 16.57L6.8279 16.608C6.9799 16.646 7.0179 16.684 7.0559 16.684ZM18.6839 6.12001H29.7799V15.24H16.4799V8.24801L18.6839 6.12001ZM14.9599 15.24H9.2599L14.9599 9.73001V15.24ZM29.7799 19.8C29.7799 20.218 29.4379 20.56 29.0199 20.56H25.2199C24.8019 20.56 24.4599 20.218 24.4599 19.8C24.4599 19.382 24.8019 19.04 25.2199 19.04H29.0199C29.4379 19.04 29.7799 19.382 29.7799 19.8ZM34.3399 0.420013H16.8599C16.6699 0.420013 16.4799 0.496014 16.3279 0.648014L1.1279 15.468C0.975902 15.582 0.899902 15.81 0.899902 16V20.18C0.899902 20.598 1.2419 20.94 1.6599 20.94C7.7779 20.94 13.0979 25.082 14.5799 31.01C14.6559 31.352 14.9599 31.58 15.3019 31.58H34.3399C34.7579 31.58 35.0999 31.238 35.0999 30.82V1.18001C35.0999 0.762013 34.7579 0.420013 34.3399 0.420013ZM2.4199 19.458V16.342L17.1639 1.94001H33.5799V26.26H14.1619C11.6159 22.308 7.2839 19.686 2.4199 19.458ZM15.8719 30.06C15.6439 29.262 15.3399 28.502 14.9979 27.78H33.5799V30.06H15.8719Z" fill="#7B2CBF"/>
</svg>
