<svg width="25pt" height="25pt" version="1.1" viewBox="0 0 25 25" xmlns="http://www.w3.org/2000/svg">
 <path d="m25 18.75v3.5715c0 1.4768-1.2018 2.6786-2.6786 2.6786h-19.643c-1.4768 0-2.6786-1.2018-2.6786-2.6786v-3.5715c0-0.49287 0.39999-0.89286 0.89286-0.89286 0.49286 0 0.89285 0.39999 0.89285 0.89286v3.5715c0 0.49187 0.40099 0.89286 0.89286 0.89286h19.643c0.49187 0 0.89286-0.40099 0.89286-0.89286v-3.5715c0-0.49287 0.39999-0.89286 0.89285-0.89286 0.49287 0 0.89286 0.39999 0.89286 0.89286zm-13.131-0.26168c0.17418 0.17419 0.40258 0.26168 0.63117 0.26168s0.45719-0.08749 0.63118-0.26168l4.4643-4.4643c0.34918-0.34918 0.34918-0.91338 0-1.2626-0.34917-0.34919-0.91337-0.34918-1.2626 0l-2.9403 2.9403 2e-4 -14.809c0-0.49287-0.39999-0.89286-0.89285-0.89286-0.49287 0-0.89286 0.39999-0.89286 0.89286v14.809l-2.9402-2.9403c-0.34918-0.34918-0.91338-0.34918-1.2626 0-0.34919 0.34918-0.34918 0.91338 0 1.2626l4.4643 4.4643z" stroke-width=".051021"/>
</svg>
