<svg width="45.7" height="45.753" fill="#000000" version="1.1" viewBox="0 0 45.7 45.753" xmlns="http://www.w3.org/2000/svg">
 <path d="m22.85 0.85c-12.138 0-22 9.8616-22 22 0 11.019 8.1275 20.138 18.713 21.729l1.1484 0.17383v-17.336h-5.1973v-3.5195h5.1973v-4.6738c0-2.8781 0.69064-4.7736 1.834-5.9629 1.1433-1.1893 2.8327-1.7891 5.1836-1.7891 1.8798 0 2.6111 0.1139 3.3066 0.19922v2.8809h-2.4473c-1.3886 0-2.5278 0.77473-3.1191 1.8066-0.59131 1.0319-0.77539 2.264-0.77539 3.5195v4.0176h6.123l-0.54492 3.5195h-5.5781v17.365l1.1348-0.1543c10.736-1.456 19.021-10.649 19.021-21.775 0-12.138-9.8616-22-22-22zm0 2c11.058 0 20 8.9424 20 20 0 9.7298-6.9642 17.732-16.156 19.533v-12.969h5.293l1.1621-7.5195h-6.4551v-2.0176c0-1.0375 0.18982-1.9671 0.50977-2.5254 0.31994-0.55834 0.62835-0.80078 1.3848-0.80078h4.4473v-6.6914l-0.86719-0.11719c-0.59979-0.08116-1.9692-0.27148-4.4395-0.27148-2.7031 0-5.0233 0.73635-6.625 2.4023-1.6017 1.666-2.3926 4.1467-2.3926 7.3496v2.6738h-5.1973v7.5195h5.1973v12.904c-9.0443-1.9159-15.861-9.8463-15.861-19.471 0-11.058 8.9424-20 20-20z" fill="#7b2cbf" stroke="#7b2cbf" stroke-width="1.7"/>
</svg>
