<svg width="33" height="33" viewBox="0 0 33 33" fill="none" xmlns="http://www.w3.org/2000/svg">
<path d="M25.1775 5.8725C24.7918 5.8725 24.4148 5.98687 24.0941 6.20113C23.7735 6.4154 23.5235 6.71995 23.3759 7.07627C23.2283 7.43258 23.1897 7.82466 23.265 8.20293C23.3402 8.58119 23.5259 8.92865 23.7986 9.20136C24.0714 9.47407 24.4188 9.65979 24.7971 9.73503C25.1753 9.81027 25.5674 9.77166 25.9237 9.62406C26.2801 9.47647 26.5846 9.22654 26.7989 8.90586C27.0131 8.58519 27.1275 8.20817 27.1275 7.8225C27.1275 7.30533 26.9221 6.80934 26.5564 6.44364C26.1907 6.07795 25.6947 5.8725 25.1775 5.8725ZM32.6525 9.805C32.6209 8.45673 32.3684 7.12278 31.905 5.85625C31.4918 4.77259 30.8487 3.79133 30.02 2.98C29.2153 2.14707 28.2318 1.50804 27.1437 1.11125C25.8806 0.633761 24.5451 0.375466 23.195 0.3475C21.4725 0.25 20.92 0.25 16.5 0.25C12.08 0.25 11.5275 0.25 9.805 0.3475C8.45487 0.375466 7.11943 0.633761 5.85625 1.11125C4.77022 1.51205 3.78752 2.15054 2.98 2.98C2.14707 3.78466 1.50804 4.76821 1.11125 5.85625C0.633761 7.11943 0.375466 8.45487 0.3475 9.805C0.25 11.5275 0.25 12.08 0.25 16.5C0.25 20.92 0.25 21.4725 0.3475 23.195C0.375466 24.5451 0.633761 25.8806 1.11125 27.1437C1.50804 28.2318 2.14707 29.2153 2.98 30.02C3.78752 30.8495 4.77022 31.4879 5.85625 31.8887C7.11943 32.3662 8.45487 32.6245 9.805 32.6525C11.5275 32.75 12.08 32.75 16.5 32.75C20.92 32.75 21.4725 32.75 23.195 32.6525C24.5451 32.6245 25.8806 32.3662 27.1437 31.8887C28.2318 31.492 29.2153 30.8529 30.02 30.02C30.8524 29.2117 31.496 28.2296 31.905 27.1437C32.3684 25.8772 32.6209 24.5433 32.6525 23.195C32.6525 21.4725 32.75 20.92 32.75 16.5C32.75 12.08 32.75 11.5275 32.6525 9.805ZM29.7275 23C29.7157 24.0315 29.5288 25.0535 29.175 26.0225C28.9155 26.7297 28.4988 27.3687 27.9562 27.8913C27.4292 28.4283 26.7915 28.8442 26.0875 29.11C25.1185 29.4639 24.0965 29.6507 23.065 29.6625C21.44 29.7438 20.8388 29.76 16.565 29.76C12.2913 29.76 11.69 29.76 10.065 29.6625C8.99395 29.6826 7.92747 29.5176 6.9125 29.175C6.2394 28.8956 5.63095 28.4808 5.125 27.9562C4.58564 27.4342 4.17412 26.7947 3.9225 26.0875C3.52577 25.1046 3.30572 24.0594 3.2725 23C3.2725 21.375 3.175 20.7738 3.175 16.5C3.175 12.2262 3.175 11.625 3.2725 10C3.27978 8.94547 3.47229 7.90041 3.84125 6.9125C4.12733 6.22661 4.56643 5.61519 5.125 5.125C5.6187 4.56627 6.22884 4.12253 6.9125 3.825C7.90302 3.46757 8.947 3.28075 10 3.2725C11.625 3.2725 12.2262 3.175 16.5 3.175C20.7738 3.175 21.375 3.175 23 3.2725C24.0315 3.28433 25.0535 3.47115 26.0225 3.825C26.761 4.09906 27.4237 4.54463 27.9562 5.125C28.4888 5.62417 28.9049 6.23444 29.175 6.9125C29.5362 7.90202 29.7231 8.94664 29.7275 10C29.8087 11.625 29.825 12.2262 29.825 16.5C29.825 20.7738 29.8087 21.375 29.7275 23ZM16.5 8.16375C14.8519 8.16696 13.2418 8.6586 11.8731 9.57655C10.5043 10.4945 9.43836 11.7976 8.80991 13.3211C8.18145 14.8446 8.01868 16.5203 8.34216 18.1363C8.66565 19.7523 9.46088 21.2361 10.6274 22.4003C11.7939 23.5646 13.2793 24.3569 14.8959 24.6772C16.5125 24.9976 18.1878 24.8315 19.7101 24.2001C21.2324 23.5687 22.5334 22.5002 23.4487 21.1297C24.364 19.7591 24.8525 18.1481 24.8525 16.5C24.8546 15.4033 24.64 14.317 24.2208 13.3036C23.8016 12.2901 23.1862 11.3696 22.4099 10.5948C21.6337 9.8201 20.7119 9.20648 19.6977 8.78926C18.6834 8.37204 17.5967 8.15946 16.5 8.16375ZM16.5 21.9112C15.4298 21.9112 14.3835 21.5939 13.4937 20.9993C12.6038 20.4047 11.9102 19.5596 11.5007 18.5708C11.0911 17.582 10.9839 16.494 11.1927 15.4443C11.4015 14.3946 11.9169 13.4304 12.6737 12.6737C13.4304 11.9169 14.3946 11.4015 15.4443 11.1927C16.494 10.9839 17.582 11.0911 18.5708 11.5007C19.5596 11.9102 20.4047 12.6038 20.9993 13.4937C21.5939 14.3835 21.9112 15.4298 21.9112 16.5C21.9112 17.2106 21.7713 17.9143 21.4993 18.5708C21.2274 19.2273 20.8288 19.8239 20.3263 20.3263C19.8239 20.8288 19.2273 21.2274 18.5708 21.4993C17.9143 21.7713 17.2106 21.9112 16.5 21.9112Z" fill="#7B2CBF"/>
</svg>
