<svg width="34" height="28" viewBox="0 0 34 28" fill="none" xmlns="http://www.w3.org/2000/svg">
<path d="M28.6666 0.666687H5.33325C4.00717 0.666687 2.7354 1.19347 1.79772 2.13115C0.860036 3.06884 0.333252 4.3406 0.333252 5.66669V22.3334C0.333252 23.6594 0.860036 24.9312 1.79772 25.8689C2.7354 26.8066 4.00717 27.3334 5.33325 27.3334H28.6666C29.9927 27.3334 31.2644 26.8066 32.2021 25.8689C33.1398 24.9312 33.6666 23.6594 33.6666 22.3334V5.66669C33.6666 4.3406 33.1398 3.06884 32.2021 2.13115C31.2644 1.19347 29.9927 0.666687 28.6666 0.666687ZM27.9833 4.00002L18.1833 13.8C18.0283 13.9562 17.844 14.0802 17.6409 14.1648C17.4378 14.2495 17.2199 14.293 16.9999 14.293C16.7799 14.293 16.5621 14.2495 16.359 14.1648C16.1559 14.0802 15.9715 13.9562 15.8166 13.8L6.01658 4.00002H27.9833ZM30.3333 22.3334C30.3333 22.7754 30.1577 23.1993 29.8451 23.5119C29.5325 23.8244 29.1086 24 28.6666 24H5.33325C4.89122 24 4.4673 23.8244 4.15474 23.5119C3.84218 23.1993 3.66659 22.7754 3.66659 22.3334V6.35002L13.4666 16.15C14.4041 17.0864 15.6749 17.6123 16.9999 17.6123C18.3249 17.6123 19.5957 17.0864 20.5333 16.15L30.3333 6.35002V22.3334Z" fill="#7B2CBF"/>
</svg>
