<svg width="38.5" height="35.5" fill="none" version="1.1" viewBox="0 0 38.5 35.5" xmlns="http://www.w3.org/2000/svg">
 <path d="m7.5 6.5h27.75c1.8 0 3.25-1.45 3.25-3.25s-1.45-3.25-3.25-3.25h-27.75c-1.8 0-3.25 1.45-3.25 3.25s1.45 3.25 3.25 3.25zm2.75 11.25c0-1.8 1.45-3.25 3.25-3.25h21.75c1.8 0 3.25 1.45 3.25 3.25s-1.45 3.25-3.25 3.25h-21.75c-1.8 0-3.25-1.45-3.25-3.25zm-10.25 14.5c0-1.8 1.45-3.25 3.25-3.25h32c1.8 0 3.25 1.45 3.25 3.25s-1.45 3.25-3.25 3.25h-32c-1.8 0-3.25-1.45-3.25-3.25z" fill="#7b2cbf"/>
</svg>
