<?xml version="1.0" encoding="UTF-8" standalone="no"?>
<svg
   width="490pt"
   height="432.0766pt"
   version="1.1"
   viewBox="0 0 490 432.0766"
   id="svg16"
   sodipodi:docname="noun-money-3912045.svg"
   inkscape:version="1.2.2 (1:1.2.2+202212051550+b0a8486541)"
   xmlns:inkscape="http://www.inkscape.org/namespaces/inkscape"
   xmlns:sodipodi="http://sodipodi.sourceforge.net/DTD/sodipodi-0.dtd"
   xmlns="http://www.w3.org/2000/svg"
   xmlns:svg="http://www.w3.org/2000/svg">
  <defs
     id="defs20" />
  <sodipodi:namedview
     id="namedview18"
     pagecolor="#ffffff"
     bordercolor="#666666"
     borderopacity="1.0"
     inkscape:showpageshadow="2"
     inkscape:pageopacity="0.0"
     inkscape:pagecheckerboard="0"
     inkscape:deskcolor="#d1d1d1"
     inkscape:document-units="pt"
     showgrid="false"
     inkscape:zoom="0.25285714"
     inkscape:cx="296.61017"
     inkscape:cy="383.61582"
     inkscape:window-width="1920"
     inkscape:window-height="1009"
     inkscape:window-x="0"
     inkscape:window-y="34"
     inkscape:window-maximized="1"
     inkscape:current-layer="svg16" />
  <g
     id="g14"
     transform="translate(-104.48,-63.35)"
     style="fill:#000000;fill-opacity:0.69999999">
    <path
       d="m 178.5,442.4 0.875,-2.2734 -67.199,-242.73 -2.4492,29.75 62.824,231.7 z"
       id="path2"
       style="fill:#000000;fill-opacity:0.69999999" />
    <path
       d="m 104.48,285.77 57.75,201.95 5.25,-14.527 -60.027,-220.85 z"
       id="path4"
       style="fill:#000000;fill-opacity:0.69999999" />
    <path
       d="m 170.45,490.7 -1.75,4.7266 406.18,-114.28 7.3516,-20.297 -406.88,116.02 z"
       id="path6"
       style="fill:#000000;fill-opacity:0.69999999" />
    <path
       d="m 179.02,466.73 407.05,-116.03 6.8242,-18.723 -405.65,112 z"
       id="path8"
       style="fill:#000000;fill-opacity:0.69999999" />
    <path
       d="m 594.48,322.35 -71.398,-259 -407.75,112.52 71.574,259.18 z M 355.08,142.1 c 46.898,0 88.023,30.102 102.02,75.074 17.676,56.352 -13.824,116.55 -70.176,134.23 -10.324,3.3242 -21.176,4.8984 -32.023,4.8984 -23.449,0 -45.5,-7.5234 -63.352,-20.648 -18.023,-13.301 -31.852,-32.023 -38.852,-54.426 -17.5,-56.352 14,-116.55 70.352,-134.23 10.328,-3.3242 21.18,-4.8984 32.027,-4.8984 z m 59.152,-25.727 59.5,-16.449 c 1.0508,-0.35156 2.2734,-0.17578 3.3242,0.35156 l 37.801,21.523 c 1.0508,0.52344 1.75,1.5742 2.1016,2.625 l 41.125,148.57 c 0.17578,1.2266 0.17578,2.4492 -0.52344,3.3242 l -21.523,37.977 c -0.52344,1.0508 -1.3984,1.75 -2.625,2.1016 l -59.324,16.449 h -1.2266 c -1.9258,0 -3.6758,-1.2266 -4.1992,-3.1484 -0.69922,-2.2734 0.69922,-4.7266 2.9766,-5.4258 l 57.75,-15.926 19.773,-34.648 -40.074,-145.07 -34.832,-19.777 -57.75,15.926 c -2.2734,0.52344 -4.7266,-0.69922 -5.25,-3.1484 -0.69922,-2.2773 0.69922,-4.7305 2.9766,-5.2539 z m -261.8,105.52 21.352,-37.801 c 0.69922,-1.0508 1.5742,-1.75 2.8008,-2.1016 l 59.324,-16.449 c 2.2734,-0.52344 4.7227,0.70312 5.4219,3.1523 0.69922,2.2734 -0.69922,4.7266 -3.1484,5.25 l -57.574,15.926 -19.773,34.824 40.074,145.07 34.824,19.773 57.75,-15.926 c 2.2734,-0.69922 4.7266,0.69922 5.25,2.9766 0.69922,2.4492 -0.69922,4.7266 -2.9766,5.4258 l -59.5,16.449 c -0.35156,0 -0.69922,0.17578 -1.0508,0.17578 -0.875,0 -1.5742,-0.17578 -2.2734,-0.69922 l -37.977,-21.352 c -0.875,-0.69922 -1.75,-1.5742 -1.9258,-2.8008 l -41.125,-148.57 c -0.34766,-1.0469 -0.17188,-2.2734 0.52734,-3.3242 z"
       id="path10"
       style="fill:#000000;fill-opacity:0.69999999" />
    <path
       d="m 284.9,264.5 c 1.8711,0.875 3.8516,0.99609 5.9141,0.35156 l 8.9062,-2.7305 c 0.35156,1.2969 0.45312,2.5547 0.85938,3.8672 0.875,2.7656 2.0664,5.1445 3.1328,7.6992 l -9.2578,2.8359 c -2.0664,0.64844 -3.6211,1.8711 -4.6562,3.6758 -1.0508,1.7852 -1.2422,3.7266 -0.59375,5.793 0.61328,1.9414 1.8555,3.3594 3.7266,4.2344 1.8906,0.89062 3.8516,0.99609 5.9141,0.35156 l 11.934,-3.6562 c 1.0664,1.5938 1.9609,3.3789 3.1484,4.8281 5.7578,7.0703 12.32,12.602 19.703,16.555 7.3867,3.9727 15.227,6.3164 23.52,7.0508 8.3125,0.73438 16.59,-0.19141 24.867,-2.7656 3.8867,-1.2266 7.5938,-2.8516 11.094,-4.8828 3.5002,-2.0312 6.7539,-4.3398 9.7305,-6.9648 2.9922,-2.5898 5.5312,-5.2344 7.6484,-7.8906 1.6445,-1.5742 2.3438,-3.5 2.1016,-5.7578 -0.24609,-2.2578 -1.4531,-4.1133 -3.6406,-5.5664 -1.5586,-1.1211 -3.2539,-1.5234 -5.0938,-1.207 -1.8359,0.31641 -3.4844,1.1562 -4.918,2.5391 -2.6094,3.6211 -5.7031,6.7383 -9.293,9.3281 -3.6055,2.5898 -7.6484,4.5859 -12.145,6.0039 -8.5039,2.6602 -16.922,3.0625 -25.254,1.1914 -8.3281,-1.8711 -15.766,-6.0039 -22.312,-12.441 -1.3984,-1.3633 -2.4141,-3.2031 -3.6758,-4.7617 l 31.027,-9.5039 c 2.0664,-0.64844 3.6211,-1.8711 4.6562,-3.6758 1.0312,-1.7852 1.2617,-3.6562 0.64844,-5.6016 -0.64844,-2.0664 -1.9062,-3.5352 -3.7812,-4.4258 -1.8711,-0.875 -3.8516,-0.99609 -5.9141,-0.35156 l -34.422,10.535 c -1.1367,-2.5547 -2.4492,-4.8633 -3.3438,-7.7344 -0.40234,-1.3125 -0.4375,-2.5195 -0.76953,-3.7969 l 34.879,-10.676 c 2.0664,-0.64844 3.6211,-1.8555 4.6562,-3.6562 1.0312,-1.7852 1.2617,-3.6562 0.64844,-5.6016 -0.64844,-2.0664 -1.9062,-3.5352 -3.7969,-4.4258 -1.8711,-0.875 -3.8516,-0.99609 -5.9141,-0.35156 l -32.461,9.9414 c -0.0352,-3.3242 -0.12109,-6.668 0.47266,-9.8359 1.6445,-8.8555 5.3008,-16.539 10.988,-23.066 5.7031,-6.5117 12.934,-11.148 21.684,-13.895 4.4961,-1.3984 9.0117,-2.0469 13.512,-1.9258 4.5156,0.12109 8.8359,0.875 13.004,2.2383 1.9766,0.31641 3.7812,0.15625 5.4414,-0.50781 1.6641,-0.64844 2.8008,-1.9414 3.3945,-3.8672 0.875,-2.2734 0.80469,-4.4609 -0.24609,-6.5273 -1.0508,-2.082 -2.7812,-3.3438 -5.1992,-3.7812 -5.3555,-1.7852 -11.023,-2.6953 -16.957,-2.6953 -5.9492,0 -11.777,0.875 -17.484,2.6758 -8.6289,2.6953 -16.152,6.8594 -22.523,12.461 -6.3867,5.6016 -11.445,12.199 -15.137,19.758 -3.7109,7.5586 -5.8438,15.785 -6.4062,24.641 -0.19141,2.9414 0.12109,5.9688 0.31641,8.9766 l -10.867,3.3242 c -2.0664,0.64844 -3.6211,1.8711 -4.6719,3.6562 -1.0508,1.8008 -1.2422,3.7266 -0.59375,5.793 0.6875,1.9297 1.9297,3.3477 3.8008,4.2227 z"
       id="path12"
       style="fill:#000000;fill-opacity:0.69999999" />
  </g>
</svg>
