<svg width="30mm" height="30mm" version="1.1" viewBox="0 0 30 30" xml:space="preserve" xmlns="http://www.w3.org/2000/svg"><g transform="translate(196.81 -168.72)"><g transform="matrix(.35278 0 0 .35278 -286.2 104.02)"><path d="m337.81 247.85c-0.16657-0.56305-0.55879-1.0329-1.0841-1.2962l-18.199-9.0994c-0.81719-0.4036-1.8009-0.24131-2.4452 0.4036l-6.8885 6.8884h8.8e-4c-7.6429-2.1838-14.604-6.279-20.224-11.9-5.6198-5.6206-9.7158-12.582-11.9-20.224l6.8885-6.8884v8.8e-4c0.64493-0.64421 0.80722-1.6279 0.4036-2.4451l-9.0995-18.199c-0.26837-0.52959-0.74602-0.92253-1.3176-1.0841-1.423-0.41286-2.8978-0.62071-4.3799-0.61644-4.291 0-8.4061 1.7041-11.44 4.7386-3.0345 3.0337-4.7387 7.1488-4.7387 11.44-0.0292 9.0438 1.739 18.003 5.2029 26.357 3.4638 8.354 8.5535 15.936 14.973 22.306 6.371 6.4264 13.956 11.521 22.314 14.988 8.3576 3.4672 17.323 5.2383 26.371 5.2084 4.291 0 8.4061-1.7041 11.44-4.7386 3.0345-3.0337 4.7387-7.1488 4.7387-11.44 3e-3 -1.4884-0.20501-2.9705-0.61645-4.4012z" fill="#7b2cbf" style="strokeWidth:0.182229"/></g></g></svg>
