<svg width="23pt" height="25pt" version="1.1" viewBox="0 0 23 25" xmlns="http://www.w3.org/2000/svg">
 <g transform="translate(-338.82 -266.03)">
  <path d="m356.42 281.47 0.68243-0.62362c3.7195-3.3848 3.7195-8.8776 0-12.262-1.8084-1.6328-4.2313-2.5534-6.7908-2.5534s-4.9823 0.92037-6.8249 2.5534c-3.7195 3.3848-3.7195 8.8776 0 12.262l0.68243 0.62362c-3.3442 0.92037-5.3577 2.5534-5.3577 4.3942 0 2.88 5.0504 5.1663 11.5 5.1663 6.4496 0 11.5-2.2565 11.5-5.1663 2.5e-4 -1.8408-2.0471-3.4739-5.3915-4.3942zm-6.1083-10.986c2.1499 0 3.9242 1.5142 3.9242 3.4144 0 1.9004-1.7743 3.385-3.9242 3.385s-3.9242-1.5142-3.9242-3.4144c0-1.9004 1.7743-3.385 3.9242-3.385zm0 19.062c-5.7671 0-9.7938-1.9298-9.7938-3.6818 0-1.247 1.9792-2.5238 4.9823-3.1771l4.1632 3.7708c0.17067 0.14849 0.37538 0.23756 0.61412 0.23756 0.239 0 0.4437-0.089 0.61413-0.23756l4.1973-3.7708c3.003 0.65321 4.9823 1.9298 4.9823 3.1771 0.034 2.1674-5.1187 3.6818-9.7596 3.6818z" fill="#7b2cbf" stroke-width=".056841"/>
 </g>
</svg>
