<svg width="39" height="38" viewBox="0 0 39 38" fill="none" xmlns="http://www.w3.org/2000/svg">
<path d="M35.8399 30.424V7.57601C37.5599 7.19801 38.8499 5.68601 38.8499 3.88001C38.8499 1.78001 37.1299 0.100006 34.9799 0.100006C32.8299 0.100006 31.1099 1.78001 31.1099 3.88001C31.1099 5.68601 32.3999 7.19801 34.1199 7.57601V18.16H25.5199V7.57601C27.2399 7.19801 28.5299 5.68601 28.5299 3.88001C28.5299 1.78001 26.8099 0.100006 24.6599 0.100006C22.5099 0.100006 20.7899 1.78001 20.7899 3.88001C20.7899 5.68601 22.0799 7.19801 23.7999 7.57601V18.16H15.1999V7.57601C16.9199 7.19801 18.2099 5.68601 18.2099 3.88001C18.2099 1.78001 16.4899 0.100006 14.3399 0.100006C12.1899 0.100006 10.4699 1.78001 10.4699 3.88001C10.4699 5.68601 11.7599 7.19801 13.4799 7.57601V18.16H4.8799V7.57601C6.5999 7.19801 7.8899 5.68601 7.8899 3.88001C7.8899 1.78001 6.1699 0.100006 4.0199 0.100006C1.8699 0.100006 0.149902 1.78001 0.149902 3.88001C0.149902 5.68601 1.4399 7.19801 3.1599 7.57601V19C3.1599 19.462 3.5469 19.84 4.0199 19.84H13.4799V30.424C11.7599 30.802 10.4699 32.314 10.4699 34.12C10.4699 36.22 12.1899 37.9 14.3399 37.9C16.4899 37.9 18.2099 36.22 18.2099 34.12C18.2099 32.314 16.9199 30.802 15.1999 30.424V19.84H23.7999V30.424C22.0799 30.802 20.7899 32.314 20.7899 34.12C20.7899 36.22 22.5099 37.9 24.6599 37.9C26.8099 37.9 28.5299 36.22 28.5299 34.12C28.5299 32.314 27.2399 30.802 25.5199 30.424V19.84H34.1199V30.424C32.3999 30.802 31.1099 32.314 31.1099 34.12C31.1099 36.22 32.8299 37.9 34.9799 37.9C37.1299 37.9 38.8499 36.22 38.8499 34.12C38.8499 32.314 37.5599 30.802 35.8399 30.424ZM1.8699 3.88001C1.8699 2.70401 2.8159 1.78001 4.0199 1.78001C5.2239 1.78001 6.1699 2.70401 6.1699 3.88001C6.1699 5.05601 5.2239 5.98001 4.0199 5.98001C2.8159 5.98001 1.8699 5.05601 1.8699 3.88001ZM16.4899 34.12C16.4899 35.296 15.5439 36.22 14.3399 36.22C13.1359 36.22 12.1899 35.296 12.1899 34.12C12.1899 32.944 13.1359 32.02 14.3399 32.02C15.5439 32.02 16.4899 32.944 16.4899 34.12ZM14.3399 5.98001C13.1359 5.98001 12.1899 5.05601 12.1899 3.88001C12.1899 2.70401 13.1359 1.78001 14.3399 1.78001C15.5439 1.78001 16.4899 2.70401 16.4899 3.88001C16.4899 5.05601 15.5439 5.98001 14.3399 5.98001ZM26.8099 34.12C26.8099 35.296 25.8639 36.22 24.6599 36.22C23.4559 36.22 22.5099 35.296 22.5099 34.12C22.5099 32.944 23.4559 32.02 24.6599 32.02C25.8639 32.02 26.8099 32.944 26.8099 34.12ZM24.6599 5.98001C23.4559 5.98001 22.5099 5.05601 22.5099 3.88001C22.5099 2.70401 23.4559 1.78001 24.6599 1.78001C25.8639 1.78001 26.8099 2.70401 26.8099 3.88001C26.8099 5.05601 25.8639 5.98001 24.6599 5.98001ZM32.8299 3.88001C32.8299 2.70401 33.7759 1.78001 34.9799 1.78001C36.1839 1.78001 37.1299 2.70401 37.1299 3.88001C37.1299 5.05601 36.1839 5.98001 34.9799 5.98001C33.7759 5.98001 32.8299 5.05601 32.8299 3.88001ZM34.9799 36.22C33.7759 36.22 32.8299 35.296 32.8299 34.12C32.8299 32.944 33.7759 32.02 34.9799 32.02C36.1839 32.02 37.1299 32.944 37.1299 34.12C37.1299 35.296 36.1839 36.22 34.9799 36.22Z" fill="#7B2CBF"/>
</svg>
