<svg width="33" height="33" viewBox="0 0 33 33" fill="none" xmlns="http://www.w3.org/2000/svg">
<path d="M23.975 19.75C23.65 19.5875 21.5375 18.6125 21.2125 18.45C20.8875 18.2875 20.5625 18.2875 20.2375 18.6125C19.9125 18.9375 19.2625 19.9125 18.9375 20.2375C18.775 20.5625 18.45 20.5625 18.125 20.4C16.9875 19.9125 15.85 19.2625 14.875 18.45C14.0625 17.6375 13.25 16.6625 12.6 15.6875C12.4375 15.3625 12.6 15.0375 12.7625 14.875C12.925 14.7125 13.0875 14.3875 13.4125 14.225C13.575 14.0625 13.7375 13.7375 13.7375 13.575C13.9 13.4125 13.9 13.0875 13.7375 12.925C13.575 12.7625 12.7625 10.8125 12.4375 9.99998C12.275 8.86248 11.95 8.86248 11.625 8.86248H10.8125C10.4875 8.86248 10 9.18748 9.8375 9.34997C8.8625 10.325 8.375 11.4625 8.375 12.7625C8.5375 14.225 9.025 15.6875 10 16.9875C11.7875 19.5875 14.0625 21.7 16.825 23C17.6375 23.325 18.2875 23.65 19.1 23.8125C19.9125 24.1375 20.725 24.1375 21.7 23.975C22.8375 23.8125 23.8125 23 24.4625 22.025C24.7875 21.375 24.7875 20.725 24.625 20.075L23.975 19.75ZM28.0375 4.96248C21.7 -1.37502 11.4625 -1.37502 5.125 4.96248C-0.075 10.1625 -1.05 18.125 2.525 24.4625L0.25 32.75L8.8625 30.475C11.3 31.775 13.9 32.425 16.5 32.425C25.4375 32.425 32.5875 25.275 32.5875 16.3375C32.75 12.1125 30.9625 8.04998 28.0375 4.96248ZM23.65 27.7125C21.5375 29.0125 19.1 29.825 16.5 29.825C14.0625 29.825 11.7875 29.175 9.675 28.0375L9.1875 27.7125L4.15 29.0125L5.45 24.1375L5.125 23.65C1.225 17.15 3.175 9.02497 9.5125 4.96248C15.85 0.899976 23.975 3.01248 27.875 9.18748C31.775 15.525 29.9875 23.8125 23.65 27.7125Z" fill="#7B2CBF"/>
</svg>
