<?xml version="1.0" encoding="UTF-8" standalone="no"?>
<svg
   width="69.5662pt"
   height="69.565338pt"
   version="1.1"
   viewBox="0 0 69.5662 69.565338"
   id="svg176"
   sodipodi:docname="agency.svg"
   inkscape:version="1.2.2 (1:1.2.2+202212051550+b0a8486541)"
   xmlns:inkscape="http://www.inkscape.org/namespaces/inkscape"
   xmlns:sodipodi="http://sodipodi.sourceforge.net/DTD/sodipodi-0.dtd"
   xmlns="http://www.w3.org/2000/svg"
   xmlns:svg="http://www.w3.org/2000/svg">
  <sodipodi:namedview
     id="namedview178"
     pagecolor="#ffffff"
     bordercolor="#666666"
     borderopacity="1.0"
     inkscape:showpageshadow="2"
     inkscape:pageopacity="0.0"
     inkscape:pagecheckerboard="0"
     inkscape:deskcolor="#d1d1d1"
     inkscape:document-units="pt"
     showgrid="false"
     inkscape:zoom="2.0228571"
     inkscape:cx="-3.7076271"
     inkscape:cy="119.13842"
     inkscape:window-width="1920"
     inkscape:window-height="1009"
     inkscape:window-x="0"
     inkscape:window-y="34"
     inkscape:window-maximized="1"
     inkscape:current-layer="g174" />
  <defs
     id="defs62">
    <symbol
       id="t"
       overflow="visible">
      <path
         d="M 3.6562,-0.21875 C 3.4687,-0.125 3.26948,-0.05078 3.06245,0 2.86323,0.050781 2.6562,0.078125 2.43745,0.078125 c -0.66797,0 -1.1992,-0.17969 -1.5938,-0.54688 -0.38672,-0.375 -0.57812,-0.87891 -0.57812,-1.5156 0,-0.64453 0.19141,-1.1484 0.57812,-1.5156 0.39453,-0.375 0.92578,-0.5625 1.5938,-0.5625 0.21875,0 0.42578,0.027344 0.625,0.078125 0.20703,0.054687 0.40625,0.125 0.59375,0.21875 v 0.82812 c -0.1875,-0.125 -0.375,-0.21875 -0.5625,-0.28125 -0.17969,-0.0625 -0.37109,-0.09375 -0.57812,-0.09375 -0.36719,0 -0.65625,0.12109 -0.875,0.35938 -0.21094,0.23047 -0.3125,0.55469 -0.3125,0.96875 0,0.40625 0.10156,0.73047 0.3125,0.96875 0.21875,0.23047 0.50781,0.34375 0.875,0.34375 0.20703,0 0.39844,-0.023437 0.57812,-0.078125 0.1875,-0.0625 0.375,-0.16016 0.5625,-0.29688 z"
         id="path2" />
    </symbol>
    <symbol
       id="d"
       overflow="visible">
      <path
         d="M 2.6875,-2.1719 C 2.601562,-2.210963 2.51953,-2.242213 2.4375,-2.26565 2.351562,-2.285181 2.26953,-2.2969 2.1875,-2.2969 c -0.25,0 -0.44531,0.085937 -0.57812,0.25 -0.125,0.15625 -0.1875,0.38281 -0.1875,0.67188 V -2e-5 H 0.45313 v -2.9844 h 0.96875 v 0.48438 c 0.11328,-0.19531 0.25,-0.33594 0.40625,-0.42188 0.16406,-0.09375 0.35938,-0.14062 0.57812,-0.14062 h 0.10938 c 0.039063,0 0.09375,0.00781 0.15625,0.015625 z"
         id="path5" />
    </symbol>
    <symbol
       id="a"
       overflow="visible">
      <path
         d="m 3.4375,-1.5 v 0.26562 H 1.2031 c 0.03125,0.23047 0.11328,0.40234 0.25,0.51562 0.13281,0.10547 0.32812,0.15625 0.57812,0.15625 0.20703,0 0.41406,-0.023438 0.625,-0.078125 0.20703,-0.0625 0.42188,-0.15625 0.64062,-0.28125 v 0.73438 c -0.21875,0.09375 -0.44531,0.16406 -0.67188,0.20312 -0.23047,0.039062 -0.45312,0.0625 -0.67188,0.0625 -0.54297,0 -0.96484,-0.13281 -1.2656,-0.40625 -0.30469,-0.28125 -0.45312,-0.67188 -0.45312,-1.1719 0,-0.47656 0.14453,-0.85938 0.4375,-1.1406 0.30078,-0.28125 0.70703,-0.42188 1.2188,-0.42188 0.46875,0 0.84375,0.14062 1.125,0.42188 0.28125,0.28126 0.42188,0.66406 0.42188,1.1406 z M 2.46875,-1.82812 C 2.46875,-2.0039 2.410156,-2.14453 2.29687,-2.25 2.1914,-2.36328 2.05468,-2.42188 1.89062,-2.42188 c -0.1875,0 -0.33984,0.054687 -0.45312,0.15625 -0.11719,0.10547 -0.1875,0.25 -0.21875,0.4375 z"
         id="path8" />
    </symbol>
    <symbol
       id="l"
       overflow="visible">
      <path
         d="m 1.7969,-1.3438 c -0.19922,0 -0.35156,0.039062 -0.45312,0.10938 -0.09375,0.0625 -0.14062,0.16406 -0.14062,0.29688 0,0.11719 0.035156,0.21094 0.10938,0.28125 0.082031,0.0625 0.19531,0.09375 0.34375,0.09375 0.17578,0 0.32812,-0.0625 0.45312,-0.1875 0.125,-0.125 0.1875,-0.28516 0.1875,-0.48438 V -1.3438 Z M 3.2657,-1.70318 V -8e-5 H 2.29695 v -0.4375 c -0.125,0.17969 -0.27344,0.30859 -0.4375,0.39062 -0.15625,0.082031 -0.35156,0.125 -0.57812,0.125 -0.3125,0 -0.57031,-0.085938 -0.76562,-0.26562 -0.1875,-0.1875 -0.28125,-0.42188 -0.28125,-0.70312 0,-0.35156 0.11719,-0.61328 0.35938,-0.78125 0.23828,-0.16406 0.61719,-0.25 1.1406,-0.25 h 0.5625 v -0.0625 c 0,-0.15625 -0.0625,-0.26562 -0.1875,-0.32812 -0.11719,-0.070312 -0.29688,-0.10938 -0.54688,-0.10938 -0.21094,0 -0.40234,0.023437 -0.57812,0.0625 -0.17969,0.042969 -0.33984,0.10156 -0.48438,0.17188 v -0.71875 c 0.19531,-0.050781 0.39844,-0.085938 0.60938,-0.10938 0.20703,-0.03125 0.41406,-0.046875 0.625,-0.046875 0.53906,0 0.92969,0.10938 1.1719,0.32812 0.23828,0.21094 0.35938,0.55469 0.35938,1.0312 z"
         id="path11" />
    </symbol>
    <symbol
       id="c"
       overflow="visible">
      <path
         d="m 1.5,-3.8438 v 0.85938 h 0.98438 v 0.67188 H 1.5 v 1.2812 c 0,0.13672 0.023438,0.23047 0.078125,0.28125 0.0625,0.042969 0.17578,0.0625 0.34375,0.0625 h 0.48438 V -9e-5 h -0.8125 c -0.38672,0 -0.65625,-0.078125 -0.8125,-0.23438 -0.15625,-0.156255 -0.23438,-0.42188 -0.23438,-0.79688 v -1.2812 h -0.46875 v -0.67188 h 0.46875 v -0.85938 z"
         id="path14" />
    </symbol>
    <symbol
       id="f"
       overflow="visible">
      <path
         d="M 2.5,-2.5469 V -4.1563 H 3.45312 V -10e-5 H 2.5 v -0.4375 c -0.13672,0.17969 -0.28125,0.30859 -0.4375,0.39062 -0.15625,0.082031 -0.33984,0.125 -0.54688,0.125 -0.375,0 -0.68359,-0.14453 -0.92188,-0.4375 -0.23047,-0.28906 -0.34375,-0.67188 -0.34375,-1.1406 0,-0.45703 0.11328,-0.83203 0.34375,-1.125 0.23828,-0.28906 0.54688,-0.4375 0.92188,-0.4375 0.19531,0 0.375,0.042969 0.53125,0.125 0.16406,0.085938 0.31641,0.21484 0.45312,0.39062 z m -0.64062,1.9375 c 0.20703,0 0.36328,-0.070313 0.46875,-0.21875 0.11328,-0.15625 0.17188,-0.37891 0.17188,-0.67188 0,-0.28125 -0.058594,-0.49219 -0.17188,-0.64062 -0.10547,-0.15625 -0.26172,-0.23438 -0.46875,-0.23438 -0.19922,0 -0.35547,0.078125 -0.46875,0.23438 -0.10547,0.14844 -0.15625,0.35938 -0.15625,0.64062 0,0.29297 0.050781,0.51562 0.15625,0.67188 0.11328,0.14844 0.26953,0.21875 0.46875,0.21875 z"
         id="path17" />
    </symbol>
    <symbol
       id="k"
       overflow="visible">
      <path
         d="m 2.0469,-0.60938 c 0.20703,0 0.36328,-0.070313 0.46875,-0.21875 0.11328,-0.15625 0.17188,-0.37891 0.17188,-0.67188 0,-0.28125 -0.058594,-0.49219 -0.17188,-0.64062 -0.10547,-0.15625 -0.26172,-0.23438 -0.46875,-0.23438 -0.19922,0 -0.35547,0.078125 -0.46875,0.23438 -0.10547,0.14844 -0.15625,0.35938 -0.15625,0.64062 0,0.29297 0.050781,0.51562 0.15625,0.67188 0.11328,0.14844 0.26953,0.21875 0.46875,0.21875 z m -0.625,-1.9375 c 0.125,-0.17578 0.26562,-0.30469 0.42188,-0.39062 0.16406,-0.082031 0.35156,-0.125 0.5625,-0.125 0.36328,0 0.66406,0.14844 0.90625,0.4375 0.23828,0.29297 0.35938,0.66797 0.35938,1.125 0,0.46875 -0.12109,0.85156 -0.35938,1.1406 -0.24219,0.29297 -0.54297,0.4375 -0.90625,0.4375 -0.21094,0 -0.39844,-0.042969 -0.5625,-0.125 C 1.68753,-0.128931 1.5469,-0.25784 1.4219,-0.43752 V -2e-5 H 0.45315 v -4.1562 H 1.4219 Z"
         id="path20" />
    </symbol>
    <symbol
       id="j"
       overflow="visible">
      <path
         d="m 0.0625,-2.9844 h 0.95312 l 0.8125,2.0156 0.6875,-2.0156 H 3.46874 L 2.20314,0.2812 C 2.07814,0.61323 1.9297,0.84761 1.76564,0.98432 1.59767,1.11713 1.37502,1.18744 1.09376,1.18744 H 0.54688 V 0.54682 h 0.29688 c 0.16406,0 0.28516,-0.027344 0.35938,-0.078125 0.070313,-0.054688 0.12891,-0.14062 0.17188,-0.26562 l 0.03125,-0.09375 z"
         id="path23" />
    </symbol>
    <symbol
       id="e"
       overflow="visible">
      <path
         d="M 0.45312,-2.9844 H 1.42187 V 0 H 0.45312 Z m 0,-1.1719 h 0.96875 v 0.78125 H 0.45312 Z"
         id="path26" />
    </symbol>
    <symbol
       id="i"
       overflow="visible">
      <path
         d="m 2.875,-2.8906 v 0.76562 C 2.75,-2.207011 2.61719,-2.26951 2.48438,-2.31248 2.34766,-2.351542 2.21094,-2.37498 2.07813,-2.37498 c -0.27344,0 -0.48047,0.078125 -0.625,0.23438 -0.14844,0.15625 -0.21875,0.37109 -0.21875,0.64062 0,0.28125 0.070313,0.5 0.21875,0.65625 0.14453,0.15625 0.35156,0.23438 0.625,0.23438 0.14453,0 0.28516,-0.019531 0.42188,-0.0625 0.13281,-0.039063 0.25781,-0.10938 0.375,-0.20312 v 0.78125 c -0.14844,0.0625 -0.29688,0.10156 -0.45312,0.125 -0.15625,0.03125 -0.3125,0.046875 -0.46875,0.046875 -0.54297,0 -0.96484,-0.13281 -1.2656,-0.40625 -0.30469,-0.28125 -0.45312,-0.67188 -0.45312,-1.1719 0,-0.48828 0.14844,-0.86719 0.45312,-1.1406 0.30078,-0.28125 0.72266,-0.42188 1.2656,-0.42188 0.15625,0 0.3125,0.015625 0.46875,0.046875 0.15625,0.023437 0.30469,0.0625 0.45312,0.125 z"
         id="path29" />
    </symbol>
    <symbol
       id="b"
       overflow="visible">
      <path
         d="m 1.875,-2.375 c -0.21094,0 -0.37109,0.078125 -0.48438,0.23438 -0.10547,0.14844 -0.15625,0.35938 -0.15625,0.64062 0,0.29297 0.050781,0.51562 0.15625,0.67188 0.11328,0.14844 0.27344,0.21875 0.48438,0.21875 0.20703,0 0.36719,-0.070313 0.48438,-0.21875 C 2.47266,-0.98437 2.53126,-1.20703 2.53126,-1.5 2.53126,-1.78125 2.472666,-1.99219 2.35938,-2.14062 2.24219,-2.29687 2.08204,-2.375 1.875,-2.375 Z m 0,-0.6875 c 0.51953,0 0.92188,0.14062 1.2031,0.42188 0.28906,0.27344 0.4375,0.65234 0.4375,1.1406 0,0.5 -0.14844,0.89062 -0.4375,1.1719 C 2.79685,-0.05468 2.39451,0.07813 1.875,0.07813 1.36328,0.07813 0.96094,-0.05468 0.6719,-0.32812 0.37893,-0.60937 0.2344,-1 0.2344,-1.50002 c 0,-0.48828 0.14453,-0.86719 0.4375,-1.1406 C 0.96096,-2.92187 1.36331,-3.0625 1.875,-3.0625 Z"
         id="path32" />
    </symbol>
    <symbol
       id="h"
       overflow="visible">
      <path
         d="M 3.4688,-1.8281 V 0 H 2.50005 v -1.3906 c 0,-0.25781 -0.00781,-0.4375 -0.015625,-0.53125 -0.011719,-0.10156 -0.03125,-0.17578 -0.0625,-0.21875 -0.03125,-0.0625 -0.085937,-0.10938 -0.15625,-0.14062 -0.0625,-0.039062 -0.13281,-0.0625 -0.20312,-0.0625 -0.21094,0 -0.37109,0.078125 -0.48438,0.23438 -0.10547,0.15625 -0.15625,0.37109 -0.15625,0.64062 V 8e-5 h -0.96875 v -2.9844 h 0.96875 v 0.4375 c 0.13281,-0.17578 0.28516,-0.30469 0.45312,-0.39062 0.16406,-0.082031 0.34375,-0.125 0.53125,-0.125 0.34375,0 0.60156,0.10938 0.78125,0.32812 0.1875,0.21094 0.28125,0.51172 0.28125,0.90625 z"
         id="path35" />
    </symbol>
    <symbol
       id="g"
       overflow="visible">
      <path
         d="m 2.4219,-4.1562 v 0.625 H 1.90628 c -0.13672,0 -0.23438,0.027344 -0.29688,0.078125 -0.054687,0.054687 -0.078125,0.13672 -0.078125,0.25 v 0.21875 h 0.82812 v 0.67188 h -0.82812 v 2.3125 h -0.95312 v -2.3125 h -0.46875 v -0.67188 h 0.46875 v -0.21875 c 0,-0.32031 0.085937,-0.5625 0.26562,-0.71875 0.1875,-0.15625 0.47266,-0.23438 0.85938,-0.23438 z"
         id="path38" />
    </symbol>
    <symbol
       id="s"
       overflow="visible">
      <path
         d="M 0.45312,-4.1562 H 1.42187 V 0 H 0.45312 Z"
         id="path41" />
    </symbol>
    <symbol
       id="r"
       overflow="visible">
      <path
         d="m 3.2344,-2.5 c 0.11328,-0.17578 0.25391,-0.3125 0.42188,-0.40625 0.16406,-0.10156 0.35156,-0.15625 0.5625,-0.15625 0.33203,0 0.58594,0.10938 0.76562,0.32812 0.1875,0.21094 0.28125,0.51172 0.28125,0.90625 V -3e-5 H 4.2969 v -1.5625 c 0.00781,-0.019531 0.015625,-0.039062 0.015625,-0.0625 v -0.10938 c 0,-0.21875 -0.03125,-0.375 -0.09375,-0.46875 -0.0625,-0.09375 -0.16406,-0.14062 -0.29688,-0.14062 -0.1875,0 -0.33594,0.078125 -0.4375,0.23438 -0.09375,0.14844 -0.14062,0.35938 -0.14062,0.64062 V 2e-5 h -0.96875 v -1.5625 c 0,-0.33203 -0.03125,-0.54688 -0.09375,-0.64062 -0.054688,-0.09375 -0.15234,-0.14062 -0.29688,-0.14062 -0.17969,0 -0.32031,0.078125 -0.42188,0.23438 -0.09375,0.14844 -0.14062,0.35938 -0.14062,0.64062 V 8e-5 h -0.96875 v -2.9844 h 0.96875 v 0.4375 c 0.11328,-0.17578 0.24219,-0.30469 0.39062,-0.39062 0.15625,-0.082031 0.32812,-0.125 0.51562,-0.125 0.20703,0 0.39062,0.054688 0.54688,0.15625 0.15625,0.09375 0.27344,0.23047 0.35938,0.40625 z"
         id="path44" />
    </symbol>
    <symbol
       id="q"
       overflow="visible">
      <path
         d="M 3.4688,-1.8281 V 0 H 2.50005 v -1.3906 c 0,-0.25781 -0.00781,-0.4375 -0.015625,-0.53125 -0.011719,-0.10156 -0.03125,-0.17578 -0.0625,-0.21875 -0.03125,-0.0625 -0.085937,-0.10938 -0.15625,-0.14062 -0.0625,-0.039062 -0.13281,-0.0625 -0.20312,-0.0625 -0.21094,0 -0.37109,0.078125 -0.48438,0.23438 -0.10547,0.15625 -0.15625,0.37109 -0.15625,0.64062 V 8e-5 h -0.96875 v -4.1562 h 0.96875 v 1.6094 c 0.13281,-0.17578 0.28516,-0.30469 0.45312,-0.39062 0.16406,-0.082031 0.34375,-0.125 0.53125,-0.125 0.34375,0 0.60156,0.10938 0.78125,0.32812 0.1875,0.21094 0.28125,0.51172 0.28125,0.90625 z"
         id="path47" />
    </symbol>
    <symbol
       id="p"
       overflow="visible">
      <path
         d="M 0.5,-3.9844 H 1.6562 L 3.0937,-1.25 V -3.9844 H 4.07808 V 0 H 2.92188 L 1.48438,-2.7344 V 0 H 0.5 Z"
         id="path50" />
    </symbol>
    <symbol
       id="o"
       overflow="visible">
      <path
         d="m 0.42188,-1.1719 v -1.8125 h 0.96875 v 0.29688 0.60938 0.48438 c 0,0.24219 0.00391,0.41797 0.015625,0.53125 0.00781,0.10547 0.03125,0.17969 0.0625,0.21875 0.039062,0.0625 0.09375,0.11719 0.15625,0.15625 0.0625,0.03125 0.13281,0.046875 0.21875,0.046875 0.19531,0 0.35156,-0.078125 0.46875,-0.23438 0.11328,-0.15625 0.17188,-0.36719 0.17188,-0.64062 v -1.4688 h 0.95312 v 2.9844 h -0.95312 v -0.4375 c -0.14844,0.17969 -0.30469,0.30859 -0.46875,0.39062 -0.15625,0.082031 -0.33594,0.125 -0.53125,0.125 -0.34375,0 -0.60938,-0.10156 -0.79688,-0.3125 -0.17969,-0.21875 -0.26562,-0.53125 -0.26562,-0.9375 z"
         id="path53" />
    </symbol>
    <symbol
       id="n"
       overflow="visible">
      <path
         d="m 0.5,-3.9844 h 1.7031 c 0.50781,0 0.89844,0.11719 1.1719,0.34375 0.26953,0.21875 0.40625,0.53906 0.40625,0.95312 0,0.41797 -0.13672,0.74219 -0.40625,0.96875 -0.27344,0.21875 -0.66406,0.32812 -1.1719,0.32812 H 1.53122 V -6e-5 h -1.0312 z m 1.0312,0.75 v 1.1094 h 0.5625 c 0.19531,0 0.34766,-0.046875 0.45312,-0.14062 C 2.6601,-2.36718 2.7187,-2.50781 2.7187,-2.6875 2.7187,-2.86328 2.660106,-3 2.54682,-3.09375 2.44135,-3.1875 2.28901,-3.23437 2.0937,-3.23437 Z"
         id="path56" />
    </symbol>
    <symbol
       id="m"
       overflow="visible">
      <path
         d="m 0.45312,-2.9844 h 0.96875 v 2.9375 c 0,0.39453 -0.10156,0.69531 -0.29688,0.90625 C 0.93749,1.0781 0.66015,1.18747 0.29687,1.18747 H -0.18751 V 0.54685 h 0.17188 c 0.17578,0 0.29688,-0.042969 0.35938,-0.125 C 0.414062,0.347631 0.45313,0.19138 0.45313,-0.0469 Z m 0,-1.1719 h 0.96875 v 0.78125 H 0.45312 Z"
         id="path59" />
    </symbol>
  </defs>
  <g
     id="g174"
     transform="translate(-315.22391,-245.21703)">
    <path
       d="m 375.91239,308.27648 c 0.276,0 0.49996,-0.22396 0.49996,-0.49996 v -61.29173 c 0,-0.69893 -0.56884,-1.26776 -1.26776,-1.26776 h -24.37041 c -0.69894,0 -1.26776,0.56884 -1.26776,1.26776 v 2.06822 c 0,0.276 0.22396,0.49996 0.49996,0.49996 0.276,0 0.49996,-0.22396 0.49996,-0.49996 v -2.06822 c 0,-0.14795 0.1204,-0.26784 0.26784,-0.26784 h 24.37041 c 0.14795,0 0.26784,0.1204 0.26784,0.26784 v 61.29173 c 0,0.276 0.22396,0.49996 0.49996,0.49996 z"
       id="path64"
       style="fill:#ffffff;stroke-width:0.130602" />
    <path
       d="m 384.28923,313.78268 h -3.13341 v -2.33047 c 0,-0.70403 -0.57292,-1.27643 -1.27694,-1.27643 h -11.51235 v -7.86528 h 1.61921 c 0.55099,0 0.99941,-0.44843 0.99941,-0.9994 v -2.42895 c 0,-0.55098 -0.44843,-0.99941 -0.99941,-0.99941 H 350.50639 V 255.5127 h 1.14839 c 0.65657,0 1.19123,-0.53414 1.19123,-1.19124 v -2.53199 c 0,-0.65658 -0.53413,-1.19124 -1.19123,-1.19124 H 322.7616 c -0.65658,0 -1.19124,0.53414 -1.19124,1.19124 v 2.53199 c 0,0.65658 0.53414,1.19124 1.19124,1.19124 h 0.57853 l 5.1e-4,54.66234 h -3.20694 c -0.70403,0 -1.27694,0.57292 -1.27694,1.27643 v 2.33047 l -3.1329,5.1e-4 c -0.276,0 -0.49995,0.22396 -0.49995,0.49996 0,0.27601 0.22395,0.49996 0.49995,0.49996 h 68.56629 c 0.276,0 0.49996,-0.22395 0.49996,-0.49996 0,-0.276 -0.22396,-0.49996 -0.49996,-0.49996 z m -63.25076,0 h -1.18257 v -2.33047 c 0,-0.15255 0.12397,-0.27652 0.27702,-0.27652 h 2.64575 c -0.92595,0.54741 -1.58617,1.49632 -1.74015,2.60748 z m 1.72238,-59.27 c -0.1056,0 -0.1913,-0.0857 -0.1913,-0.19131 v -2.53199 c 0,-0.1056 0.0857,-0.19131 0.1913,-0.19131 h 28.89318 c 0.10561,0 0.19131,0.0857 0.19131,0.19131 v 2.53199 c 0,0.1056 -0.0857,0.19131 -0.19131,0.19131 z m 11.57465,59.27 h -1.69013 v -9.66863 c 0,-0.27601 -0.22396,-0.49996 -0.49996,-0.49996 -0.276,0 -0.49996,0.22395 -0.49996,0.49996 v 6.06126 h -7.30564 v -54.66235 h 25.16709 v 42.36874 h -19.47935 c -0.55099,0 -0.99941,0.44843 -0.99941,0.99941 v 2.42894 c 0,0.55099 0.44844,0.99941 0.99941,0.99941 h 4.30936 v 11.47264 z m 16.17119,-1.96675 c 0,0.27601 -0.22396,0.49996 -0.49996,0.49996 -0.276,0 -0.49996,-0.22395 -0.49996,-0.49996 v -4.03953 c 0,-0.276 0.22396,-0.49996 0.49996,-0.49996 0.276,0 0.49996,0.22396 0.49996,0.49996 z m 14.17037,1.96675 h -7.88918 v -7.05815 c 0,-0.57393 -0.4673,-1.04126 -1.04125,-1.04126 h -11.48074 c -0.57393,0 -1.04125,0.46731 -1.04125,1.04126 v 7.05815 h -7.88917 v -11.47265 h 29.34114 v 11.47265 z m 2.69014,0 h -1.69012 v -11.47265 h 1.69012 z m 0.49996,-12.47254 h -2.68962 -5.1e-4 -5.1e-4 l -35.14904,5.1e-4 -5.1e-4,-2.42842 h 19.97695 0.002 0.002 19.97695 l 10e-4,2.42842 h -2.11928 z m 12.28891,12.47254 h -1.09329 c -0.15407,-1.11114 -0.81422,-2.06 -1.74014,-2.60748 h 2.55641 c 0.15254,0 0.27702,0.12397 0.27702,0.27651 z"
       id="path66"
       style="fill:#ffffff;stroke-width:0.130602" />
    <path
       d="m 364.78115,251.09886 h 7.00094 c 0.24743,0 0.44742,0.24742 0.44742,0.44742 v 4.63534 c 0,0.24742 -0.2005,0.44742 -0.44742,0.44742 h -7.00094 c -0.24743,0 -0.44742,-0.24743 -0.44742,-0.44742 v -4.63534 c 0,-0.24743 0.2005,-0.44742 0.44742,-0.44742 z"
       id="path68"
       style="fill:#ffffff;stroke-width:0.130602" />
    <path
       d="m 364.78115,260.23437 h 7.00094 c 0.24743,0 0.44742,0.24742 0.44742,0.44742 v 4.63534 c 0,0.24742 -0.2005,0.44742 -0.44742,0.44742 h -7.00094 c -0.24743,0 -0.44742,-0.24743 -0.44742,-0.44742 v -4.63534 c 0,-0.24743 0.2005,-0.44742 0.44742,-0.44742 z"
       id="path70"
       style="fill:#ffffff;stroke-width:0.130602" />
    <path
       d="m 364.78115,269.37001 h 7.00094 c 0.24743,0 0.44742,0.24743 0.44742,0.44742 v 4.63534 c 0,0.24743 -0.2005,0.44742 -0.44742,0.44742 h -7.00094 c -0.24743,0 -0.44742,-0.24743 -0.44742,-0.44742 v -4.63534 c 0,-0.24743 0.2005,-0.44742 0.44742,-0.44742 z"
       id="path72"
       style="fill:#ffffff;stroke-width:0.130602" />
    <path
       d="m 364.78115,278.50434 h 7.00094 c 0.24743,0 0.44742,0.24743 0.44742,0.44742 v 4.63534 c 0,0.24743 -0.2005,0.44742 -0.44742,0.44742 h -7.00094 c -0.24743,0 -0.44742,-0.24742 -0.44742,-0.44742 v -4.63534 c 0,-0.24742 0.2005,-0.44742 0.44742,-0.44742 z"
       id="path74"
       style="fill:#ffffff;stroke-width:0.130602" />
    <path
       d="m 364.78115,287.63998 h 7.00094 c 0.24743,0 0.44742,0.24743 0.44742,0.44742 v 4.63534 c 0,0.24743 -0.2005,0.44742 -0.44742,0.44742 h -7.00094 c -0.24743,0 -0.44742,-0.24742 -0.44742,-0.44742 v -4.63534 c 0,-0.24742 0.2005,-0.44742 0.44742,-0.44742 z"
       id="path76"
       style="fill:#ffffff;stroke-width:0.130602" />
    <path
       d="m 354.13574,260.23437 h 7.00094 c 0.24743,0 0.44742,0.24742 0.44742,0.44742 v 4.63534 c 0,0.24742 -0.2005,0.44742 -0.44742,0.44742 h -7.00094 c -0.24743,0 -0.44742,-0.24743 -0.44742,-0.44742 v -4.63534 c 0,-0.24743 0.2005,-0.44742 0.44742,-0.44742 z"
       id="path78"
       style="fill:#ffffff;stroke-width:0.130602" />
    <path
       d="m 354.13574,269.37001 h 7.00094 c 0.24743,0 0.44742,0.24743 0.44742,0.44742 v 4.63534 c 0,0.24743 -0.2005,0.44742 -0.44742,0.44742 h -7.00094 c -0.24743,0 -0.44742,-0.24743 -0.44742,-0.44742 v -4.63534 c 0,-0.24743 0.2005,-0.44742 0.44742,-0.44742 z"
       id="path80"
       style="fill:#ffffff;stroke-width:0.130602" />
    <path
       d="m 354.13574,278.50434 h 7.00094 c 0.24743,0 0.44742,0.24743 0.44742,0.44742 v 4.63534 c 0,0.24743 -0.2005,0.44742 -0.44742,0.44742 h -7.00094 c -0.24743,0 -0.44742,-0.24742 -0.44742,-0.44742 v -4.63534 c 0,-0.24742 0.2005,-0.44742 0.44742,-0.44742 z"
       id="path82"
       style="fill:#ffffff;stroke-width:0.130602" />
    <path
       d="m 354.13574,287.63998 h 7.00094 c 0.24743,0 0.44742,0.24743 0.44742,0.44742 v 4.63534 c 0,0.24743 -0.2005,0.44742 -0.44742,0.44742 h -7.00094 c -0.24743,0 -0.44742,-0.24742 -0.44742,-0.44742 v -4.63534 c 0,-0.24742 0.2005,-0.44742 0.44742,-0.44742 z"
       id="path84"
       style="fill:#ffffff;stroke-width:0.130602" />
    <path
       d="m 338.74424,260.23437 h 7.00095 c 0.24742,0 0.44741,0.24742 0.44741,0.44742 v 4.63534 c 0,0.24742 -0.2005,0.44742 -0.44741,0.44742 h -7.00095 c -0.24742,0 -0.44742,-0.24743 -0.44742,-0.44742 v -4.63534 c 0,-0.24743 0.20051,-0.44742 0.44742,-0.44742 z"
       id="path86"
       style="fill:#ffffff;stroke-width:0.130602" />
    <path
       d="m 338.74424,269.37001 h 7.00095 c 0.24742,0 0.44741,0.24743 0.44741,0.44742 v 4.63534 c 0,0.24743 -0.2005,0.44742 -0.44741,0.44742 h -7.00095 c -0.24742,0 -0.44742,-0.24743 -0.44742,-0.44742 v -4.63534 c 0,-0.24743 0.20051,-0.44742 0.44742,-0.44742 z"
       id="path88"
       style="fill:#ffffff;stroke-width:0.130602" />
    <path
       d="m 338.74424,278.50434 h 7.00095 c 0.24742,0 0.44741,0.24743 0.44741,0.44742 v 4.63534 c 0,0.24743 -0.2005,0.44742 -0.44741,0.44742 h -7.00095 c -0.24742,0 -0.44742,-0.24742 -0.44742,-0.44742 v -4.63534 c 0,-0.24742 0.20051,-0.44742 0.44742,-0.44742 z"
       id="path90"
       style="fill:#ffffff;stroke-width:0.130602" />
    <path
       d="m 338.74424,287.63998 h 7.00095 c 0.24742,0 0.44741,0.24743 0.44741,0.44742 v 4.63534 c 0,0.24743 -0.2005,0.44742 -0.44741,0.44742 h -7.00095 c -0.24742,0 -0.44742,-0.24742 -0.44742,-0.44742 v -4.63534 c 0,-0.24742 0.20051,-0.44742 0.44742,-0.44742 z"
       id="path92"
       style="fill:#ffffff;stroke-width:0.130602" />
    <path
       d="m 328.10014,260.23437 h 7.00095 c 0.24742,0 0.44742,0.24742 0.44742,0.44742 v 4.63534 c 0,0.24742 -0.20051,0.44742 -0.44742,0.44742 h -7.00095 c -0.24742,0 -0.44741,-0.24743 -0.44741,-0.44742 v -4.63534 c 0,-0.24743 0.2005,-0.44742 0.44741,-0.44742 z"
       id="path94"
       style="fill:#ffffff;stroke-width:0.130602" />
    <path
       d="m 328.10014,269.37001 h 7.00095 c 0.24742,0 0.44742,0.24743 0.44742,0.44742 v 4.63534 c 0,0.24743 -0.20051,0.44742 -0.44742,0.44742 h -7.00095 c -0.24742,0 -0.44741,-0.24743 -0.44741,-0.44742 v -4.63534 c 0,-0.24743 0.2005,-0.44742 0.44741,-0.44742 z"
       id="path96"
       style="fill:#ffffff;stroke-width:0.130602" />
    <path
       d="m 328.10014,278.50434 h 7.00095 c 0.24742,0 0.44742,0.24743 0.44742,0.44742 v 4.63534 c 0,0.24743 -0.20051,0.44742 -0.44742,0.44742 h -7.00095 c -0.24742,0 -0.44741,-0.24742 -0.44741,-0.44742 v -4.63534 c 0,-0.24742 0.2005,-0.44742 0.44741,-0.44742 z"
       id="path98"
       style="fill:#ffffff;stroke-width:0.130602" />
    <path
       d="m 328.10014,287.63998 h 7.00095 c 0.24742,0 0.44742,0.24743 0.44742,0.44742 v 4.63534 c 0,0.24743 -0.20051,0.44742 -0.44742,0.44742 h -7.00095 c -0.24742,0 -0.44741,-0.24742 -0.44741,-0.44742 v -4.63534 c 0,-0.24742 0.2005,-0.44742 0.44741,-0.44742 z"
       id="path100"
       style="fill:#ffffff;stroke-width:0.130602" />
  </g>
</svg>
