<?xml version="1.0" encoding="UTF-8" standalone="no"?>
<svg
   data-name="Layer 1"
   width="800"
   height="600"
   viewBox="0 0 800.00004 600"
   version="1.1"
   id="svg22"
   sodipodi:docname="blocked.svg"
   inkscape:version="1.2.1 (1:1.2.1+202210291244+9c6d41e410)"
   xmlns:inkscape="http://www.inkscape.org/namespaces/inkscape"
   xmlns:sodipodi="http://sodipodi.sourceforge.net/DTD/sodipodi-0.dtd"
   xmlns="http://www.w3.org/2000/svg"
   xmlns:svg="http://www.w3.org/2000/svg">
  <defs
     id="defs26" />
  <sodipodi:namedview
     id="namedview24"
     pagecolor="#ffffff"
     bordercolor="#666666"
     borderopacity="1.0"
     inkscape:showpageshadow="2"
     inkscape:pageopacity="0.0"
     inkscape:pagecheckerboard="0"
     inkscape:deskcolor="#d1d1d1"
     showgrid="false"
     inkscape:zoom="0.37331504"
     inkscape:cx="-17.411567"
     inkscape:cy="155.36475"
     inkscape:window-width="1920"
     inkscape:window-height="1009"
     inkscape:window-x="0"
     inkscape:window-y="34"
     inkscape:window-maximized="1"
     inkscape:current-layer="svg22" />
  <path
     d="M 481.77727,167.69713 H 353.84693 a 11.009663,11.009663 0 0 0 -10.99626,10.99626 v 284.32668 l -1.46617,0.44722 -31.38338,9.61073 a 5.8696287,5.8696287 0 0 1 -7.32332,-3.89267 L 209.32663,164.25897 a 5.8669676,5.8669676 0 0 1 3.89272,-7.32352 l 48.36172,-14.80829 140.20234,-42.914745 48.36136,-14.8083 a 5.8568071,5.8568071 0 0 1 7.32368,3.88535 l 23.86174,77.941495 z"
     fill="#f2f2f2"
     id="path2"
     style="stroke-width:0.733084" />
  <path
     d="M 509.69319,166.23096 480.9343,72.293566 a 12.457797,12.457797 0 0 0 -15.56338,-8.269189 l -67.99355,20.812258 -140.19481,42.922085 -67.99355,20.81959 a 12.473573,12.473573 0 0 0 -8.2694,15.56338 l 98.29198,321.03953 a 12.481938,12.481938 0 0 0 11.92014,8.819 12.30794,12.30794 0 0 0 3.64322,-0.54981 l 46.60955,-14.26582 1.46617,-0.45451 v -1.53215 l -1.46617,0.44719 -47.04195,14.4051 a 11.007178,11.007178 0 0 1 -13.73067,-7.29419 L 182.32742,163.70917 a 10.981124,10.981124 0 0 1 7.29397,-13.73067 l 67.99356,-20.81959 140.19518,-42.914735 67.99356,-20.819593 a 11.110264,11.110264 0 0 1 3.23265,-0.483835 11.006972,11.006972 0 0 1 10.498,7.778022 l 28.62679,93.512211 0.4546,1.46616 h 1.52487 z"
     fill="#3f3d56"
     id="path4"
     style="stroke-width:0.733084" />
  <path
     d="m 270.30808,157.17516 a 6.6092666,6.6092666 0 0 1 -6.31283,-4.66733 l -9.4424,-30.84215 a 6.5969068,6.5969068 0 0 1 4.3774,-8.24004 L 387.90834,73.938973 a 6.604113,6.604113 0 0 1 8.24039,4.377026 l 9.44239,30.842511 a 6.6053006,6.6053006 0 0 1 -4.37702,8.24039 l -128.97845,39.48668 a 6.5801632,6.5801632 0 0 1 -1.92757,0.28958 z"
     fill="#7b2cbf"
     id="path6"
     style="stroke-width:0.733084" />
  <circle
     cx="319.77115"
     cy="81.765625"
     r="14.661683"
     fill="#7b2cbf"
     id="circle8"
     style="stroke-width:0.733084" />
  <circle
     cx="319.77115"
     cy="81.765625"
     r="9.2842321"
     fill="#ffffff"
     id="circle10"
     style="stroke-width:0.733084" />
  <path
     d="M 622.15589,490.25415 H 374.37345 a 6.2384067,6.2384067 0 0 1 -6.23121,-6.23122 V 187.12386 a 6.2381867,6.2381867 0 0 1 6.23121,-6.23122 h 247.78244 a 6.238414,6.238414 0 0 1 6.23122,6.23122 v 296.89907 a 6.2386413,6.2386413 0 0 1 -6.23122,6.23122 z"
     fill="#e6e6e6"
     id="path12"
     style="stroke-width:0.733084" />
  <path
     d="M 508.16114,166.23096 H 353.84693 A 12.480105,12.480105 0 0 0 341.3845,178.69339 V 477.6451 l 1.46617,-0.44718 V 178.69339 a 11.009663,11.009663 0 0 1 10.99626,-10.99626 h 154.76881 z m 134.52094,0 H 353.84693 a 12.480105,12.480105 0 0 0 -12.46243,12.46243 v 335.75253 a 12.480098,12.480098 0 0 0 12.46243,12.46243 h 288.83515 a 12.480098,12.480098 0 0 0 12.46243,-12.46243 V 178.69339 a 12.480105,12.480105 0 0 0 -12.46243,-12.46243 z m 10.99626,348.21496 a 11.009663,11.009663 0 0 1 -10.99626,10.99627 H 353.84693 A 11.009663,11.009663 0 0 1 342.85067,514.44592 V 178.69339 a 11.009663,11.009663 0 0 1 10.99626,-10.99626 h 288.83515 a 11.009663,11.009663 0 0 1 10.99626,10.99626 z"
     fill="#3f3d56"
     id="path14"
     style="stroke-width:0.733084" />
  <path
     d="M 565.70841,198.48666 H 430.82093 a 6.605198,6.605198 0 0 1 -6.59775,-6.59775 V 159.6332 a 6.6052053,6.6052053 0 0 1 6.59775,-6.59775 h 134.88748 a 6.6052053,6.6052053 0 0 1 6.59776,6.59775 v 32.25571 a 6.605198,6.605198 0 0 1 -6.59776,6.59775 z"
     fill="#7b2cbf"
     id="path16"
     style="stroke-width:0.733084" />
  <circle
     cx="498.2645"
     cy="140.57303"
     r="14.661683"
     fill="#7b2cbf"
     id="circle18"
     style="stroke-width:0.733084" />
  <circle
     cx="498.2645"
     cy="140.57303"
     r="8.930336"
     fill="#ffffff"
     id="circle20"
     style="stroke-width:0.733084" />
</svg>
