<?xml version="1.0" encoding="UTF-8"?>
<svg width="700pt" height="700pt" version="1.1" viewBox="0 0 700 700" xmlns="http://www.w3.org/2000/svg" xmlns:xlink="http://www.w3.org/1999/xlink">
 <defs>
  <symbol id="l" overflow="visible">
   <path d="m36.078-2.1562c-1.8672 0.96875-3.8086 1.6992-5.8281 2.1875-2.0117 0.48828-4.1094 0.73438-6.2969 0.73438-6.543 0-11.727-1.8281-15.547-5.4844-3.8125-3.6562-5.7188-8.6133-5.7188-14.875 0-6.2695 1.9062-11.234 5.7188-14.891 3.8203-3.6562 9.0039-5.4844 15.547-5.4844 2.1875 0 4.2852 0.25 6.2969 0.75 2.0195 0.49219 3.9609 1.2148 5.8281 2.1719v8.125c-1.875-1.2812-3.7266-2.2188-5.5469-2.8125-1.8242-0.59375-3.7461-0.89062-5.7656-0.89062-3.6172 0-6.4609 1.1562-8.5312 3.4688-2.0625 2.3125-3.0938 5.5-3.0938 9.5625 0 4.0547 1.0312 7.2344 3.0938 9.5469 2.0703 2.3125 4.9141 3.4688 8.5312 3.4688 2.0195 0 3.9414-0.29688 5.7656-0.89062 1.8203-0.59375 3.6719-1.5312 5.5469-2.8125z"/>
  </symbol>
  <symbol id="h" overflow="visible">
   <path d="m26.391-21.422c-0.82422-0.38281-1.6406-0.67188-2.4531-0.85938s-1.6328-0.28125-2.4531-0.28125c-2.4297 0-4.293 0.77734-5.5938 2.3281-1.3047 1.5547-1.9531 3.7773-1.9531 6.6719v13.562h-9.4219v-29.453h9.4219v4.8438c1.207-1.9258 2.5938-3.332 4.1562-4.2188 1.5703-0.88281 3.4531-1.3281 5.6406-1.3281 0.32031 0 0.66406 0.015625 1.0312 0.046875 0.36328 0.023437 0.89844 0.074219 1.6094 0.15625z"/>
  </symbol>
  <symbol id="b" overflow="visible">
   <path d="m33.922-14.797v2.6719h-22.016c0.22656 2.2109 1.0234 3.8672 2.3906 4.9688 1.375 1.1055 3.2852 1.6562 5.7344 1.6562 1.9766 0 4.0039-0.28906 6.0781-0.875 2.082-0.58203 4.2188-1.4727 6.4062-2.6719v7.2656c-2.2188 0.83594-4.4453 1.4648-6.6719 1.8906-2.2305 0.4375-4.4531 0.65625-6.6719 0.65625-5.3359 0-9.4805-1.3516-12.438-4.0625-2.9492-2.707-4.4219-6.5078-4.4219-11.406 0-4.8008 1.4453-8.5781 4.3438-11.328 2.9062-2.75 6.8984-4.125 11.984-4.125 4.625 0 8.3281 1.3984 11.109 4.1875 2.7812 2.7812 4.1719 6.5078 4.1719 11.172zm-9.6875-3.1406c0-1.7812-0.52344-3.2188-1.5625-4.3125-1.043-1.0938-2.4023-1.6406-4.0781-1.6406-1.8242 0-3.3086 0.51172-4.4531 1.5312-1.1367 1.0234-1.8438 2.4961-2.125 4.4219z"/>
  </symbol>
  <symbol id="a" overflow="visible">
   <path d="m17.719-13.25c-1.9609 0-3.4375 0.33594-4.4375 1-0.99219 0.66797-1.4844 1.6484-1.4844 2.9375 0 1.1992 0.39844 2.1367 1.2031 2.8125 0.80078 0.66797 1.9102 1 3.3281 1 1.7695 0 3.2578-0.63281 4.4688-1.9062 1.207-1.2695 1.8125-2.8594 1.8125-4.7656v-1.0781zm14.375-3.5469v16.797h-9.4844v-4.3594c-1.2617 1.7812-2.6836 3.0859-4.2656 3.9062-1.5742 0.8125-3.4922 1.2188-5.75 1.2188-3.0547 0-5.5312-0.89062-7.4375-2.6719-1.8984-1.7812-2.8438-4.0859-2.8438-6.9219 0-3.457 1.1875-5.9883 3.5625-7.5938 2.375-1.6133 6.1016-2.4219 11.188-2.4219h5.5469v-0.75c0-1.4883-0.58984-2.5781-1.7656-3.2656-1.168-0.6875-2.9961-1.0312-5.4844-1.0312-2.0234 0-3.9023 0.20312-5.6406 0.60938-1.7305 0.39844-3.3398 0.99609-4.8281 1.7969v-7.1719c2.0078-0.48828 4.0312-0.85938 6.0625-1.1094 2.0391-0.25781 4.0781-0.39062 6.1094-0.39062 5.3125 0 9.1445 1.0469 11.5 3.1406 2.3516 2.0938 3.5312 5.5 3.5312 10.219z"/>
  </symbol>
  <symbol id="g" overflow="visible">
   <path d="m14.797-37.812v8.3594h9.7031v6.7344h-9.7031v12.484c0 1.375 0.26953 2.3047 0.8125 2.7812 0.55078 0.48047 1.6289 0.71875 3.2344 0.71875h4.8438v6.7344h-8.0781c-3.7109 0-6.3398-0.77344-7.8906-2.3281-1.5547-1.5508-2.3281-4.1875-2.3281-7.9062v-12.484h-4.6875v-6.7344h4.6875v-8.3594z"/>
  </symbol>
  <symbol id="f" overflow="visible">
   <path d="m24.562-25.141v-15.766h9.4531v40.906h-9.4531v-4.2656c-1.3047 1.7422-2.7344 3.0156-4.2969 3.8281-1.5547 0.80078-3.3555 1.2031-5.4062 1.2031-3.6367 0-6.6211-1.4414-8.9531-4.3281-2.3242-2.8828-3.4844-6.5977-3.4844-11.141 0-4.5312 1.1602-8.2383 3.4844-11.125 2.332-2.8828 5.3164-4.3281 8.9531-4.3281 2.0312 0 3.8281 0.41406 5.3906 1.2344 1.5703 0.8125 3.0078 2.0742 4.3125 3.7812zm-6.2188 19.062c2.0195 0 3.5625-0.73438 4.625-2.2031s1.5938-3.6094 1.5938-6.4219c0-2.8008-0.53125-4.9375-1.5938-6.4062s-2.6055-2.2031-4.625-2.2031c-1.9922 0-3.5156 0.73438-4.5781 2.2031s-1.5938 3.6055-1.5938 6.4062c0 2.8125 0.53125 4.9531 1.5938 6.4219s2.5859 2.2031 4.5781 2.2031z"/>
  </symbol>
  <symbol id="e" overflow="visible">
   <path d="m20.188-6.0781c2.0195 0 3.5547-0.73438 4.6094-2.2031 1.0625-1.4688 1.5938-3.6094 1.5938-6.4219 0-2.8008-0.53125-4.9375-1.5938-6.4062-1.0547-1.4688-2.5898-2.2031-4.6094-2.2031-2.0117 0-3.5586 0.74219-4.6406 2.2188-1.0742 1.4805-1.6094 3.6094-1.6094 6.3906 0 2.793 0.53516 4.9297 1.6094 6.4062 1.082 1.4805 2.6289 2.2188 4.6406 2.2188zm-6.25-19.062c1.2891-1.707 2.7227-2.9688 4.2969-3.7812 1.582-0.82031 3.3984-1.2344 5.4531-1.2344 3.625 0 6.6016 1.4453 8.9375 4.3281 2.332 2.8867 3.5 6.5938 3.5 11.125 0 4.543-1.168 8.2578-3.5 11.141-2.3359 2.8867-5.3125 4.3281-8.9375 4.3281-2.0547 0-3.8711-0.40625-5.4531-1.2188-1.5742-0.82031-3.0078-2.0938-4.2969-3.8125v4.2656h-9.4219v-40.906h9.4219z"/>
  </symbol>
  <symbol id="d" overflow="visible">
   <path d="m0.65625-29.453h9.4062l7.9219 19.984 6.7344-19.984h9.4062l-12.375 32.234c-1.25 3.2812-2.7031 5.5703-4.3594 6.875-1.6562 1.3125-3.8438 1.9688-6.5625 1.9688h-5.4375v-6.1875h2.9375c1.6016 0 2.7656-0.25781 3.4844-0.76562 0.72656-0.5 1.2969-1.4062 1.7031-2.7188l0.26562-0.82812z"/>
  </symbol>
  <symbol id="c" overflow="visible">
   <path d="m28.766-7.1562h-15.828l-2.5 7.1562h-10.172l14.531-39.25h12.078l14.531 39.25h-10.172zm-13.312-7.2812h10.766l-5.375-15.609z"/>
  </symbol>
  <symbol id="k" overflow="visible">
   <path d="m4.5156-40.906h9.4219v40.906h-9.4219z"/>
  </symbol>
  <symbol id="j" overflow="visible">
   <path d="m18.531-23.422c-2.0859 0-3.6719 0.75-4.7656 2.25s-1.6406 3.6562-1.6406 6.4688c0 2.8242 0.54688 4.9844 1.6406 6.4844s2.6797 2.25 4.7656 2.25c2.0508 0 3.6172-0.75 4.7031-2.25 1.0938-1.5 1.6406-3.6602 1.6406-6.4844 0-2.8125-0.54688-4.9688-1.6406-6.4688-1.0859-1.5-2.6523-2.25-4.7031-2.25zm0-6.7344c5.0703 0 9.0312 1.3711 11.875 4.1094 2.8438 2.7305 4.2656 6.5117 4.2656 11.344 0 4.8438-1.4219 8.6367-4.2656 11.375-2.8438 2.7305-6.8047 4.0938-11.875 4.0938-5.0859 0-9.0586-1.3633-11.922-4.0938-2.8672-2.7383-4.2969-6.5312-4.2969-11.375 0-4.832 1.4297-8.6133 4.2969-11.344 2.8633-2.7383 6.8359-4.1094 11.922-4.1094z"/>
  </symbol>
  <symbol id="i" overflow="visible">
   <path d="m34.125-17.938v17.938h-9.4688v-13.719c0-2.5391-0.058594-4.2891-0.17188-5.25-0.11719-0.96875-0.3125-1.6797-0.59375-2.1406-0.36719-0.61328-0.86719-1.0938-1.5-1.4375-0.625-0.34375-1.3398-0.51562-2.1406-0.51562-1.9688 0-3.5156 0.76172-4.6406 2.2812-1.1172 1.5117-1.6719 3.6094-1.6719 6.2969v14.484h-9.4219v-29.453h9.4219v4.3125c1.4141-1.707 2.9219-2.9688 4.5156-3.7812 1.5938-0.82031 3.3516-1.2344 5.2812-1.2344 3.4062 0 5.9883 1.0469 7.75 3.1406 1.7578 2.0859 2.6406 5.1094 2.6406 9.0781z"/>
  </symbol>
 </defs>
 <g>
  <path d="m195.52 106.61c7.1602-14.965 22.273-24.488 38.863-24.488h222.9c16.59 0 31.703 9.5234 38.859 24.488l37.219 77.816h-230.61c-5.9492 0-10.77 4.8242-10.77 10.77 0 5.9492 4.8203 10.77 10.77 10.77h241.6l26.906 44.848c11.047 18.41 16.883 39.477 16.883 60.949v60.68l-3.7031 44.418c-0.46484 5.582-5.1289 9.875-10.73 9.875h-455.75c-5.6016 0-10.266-4.293-10.73-9.875l-3.7031-44.418v-60.68c0-21.473 5.8359-42.539 16.883-60.949l26.906-44.848h69.285c5.9492 0 10.77-4.8203 10.77-10.77 0-5.9453-4.8203-10.77-10.77-10.77h-58.293zm320.05-9.293 41.66 87.109h5.1484c-0.71875-4.4727-1.168-9.8242-1.168-16.152 0-12.121 9.418-18.57 16.949-21.371 7.8242-2.9062 17.277-3.5859 25.758-2.8164 8.3398 0.75781 17.527 3.0859 24.238 7.8086 3.4453 2.4258 6.9453 5.9922 8.6484 11 1.8008 5.3008 1.082 10.73-1.3438 15.578-6.1758 12.352-18.379 19.016-28.906 22.609-10.781 3.6758-21.945 4.8828-29.188 4.8828h-7.9023l20.258 33.766c13.055 21.758 19.953 46.656 19.953 72.031v168.82c0 11.895-9.6445 21.539-21.539 21.539h-80.77c-11.895 0-21.539-9.6445-21.539-21.539v-32.309h-280v32.309c0 11.895-9.6406 21.539-21.535 21.539h-80.77c-11.895 0-21.539-9.6445-21.539-21.539v-168.82c0-25.375 6.8984-50.273 19.953-72.031l20.258-33.766h-7.9023c-7.2422 0-18.41-1.207-29.188-4.8828-10.527-3.5938-22.73-10.258-28.906-22.609-2.4258-4.8477-3.1445-10.277-1.3438-15.578 1.7031-5.0078 5.2031-8.5742 8.6484-11 6.7109-4.7227 15.898-7.0508 24.238-7.8086 8.4805-0.76953 17.934-0.089843 25.758 2.8164 7.5312 2.8008 16.949 9.25 16.949 21.371 0 6.3281-0.44922 11.68-1.168 16.152h5.1484l41.66-87.109c10.738-22.445 33.41-36.734 58.293-36.734h222.9c24.883 0 47.555 14.289 58.293 36.734zm70.148 91.16s-0.011719-0.019531-0.03125-0.054687c0.023438 0.03125 0.03125 0.050781 0.03125 0.054687zm-2.9688-19.828c0.023438 7.0781 0.71484 12.082 1.4805 15.371 4.6602-0.50781 10.137-1.5391 15.367-3.3242 8.0039-2.7305 13.594-6.5781 16.219-11.148l-0.054687-0.039063c-2.3789-1.6719-7.3242-3.3828-13.793-3.9727-6.3281-0.57422-12.355 0.089844-16.309 1.5586-1.6797 0.625-2.543 1.2305-2.9102 1.5547zm-75.383 311.93v-32.309h66.336c5.1719 0 10.078-1.2188 14.434-3.3984v35.707zm-389.41-32.309h66.336v32.309h-80.77v-35.707c4.3555 2.1797 9.2617 3.3984 14.434 3.3984zm-9.0508-279.62c-0.023438 7.0781-0.71094 12.082-1.4766 15.371-4.6602-0.50781-10.141-1.5391-15.371-3.3242-8-2.7305-13.59-6.5781-16.215-11.148l0.054687-0.039063c2.3789-1.6719 7.3242-3.3828 13.793-3.9727 6.3281-0.57422 12.355 0.089844 16.309 1.5586 1.6797 0.625 2.543 1.2305 2.9062 1.5547zm0.003906-0.37109v-0.003907zm-2.957 20.172 0.019531-0.027343c-0.023438 0.035156-0.03125 0.050781-0.03125 0.054687 0 0 0.003906-0.007812 0.011719-0.027344zm45.676 57.195c-9.6055-2.0586-19.387 2.6445-23.777 11.43l-2.082 4.1641c-4.2852 8.5664-5.5898 18.312-3.7109 27.707l1.6016 8.0078c1.8984 9.5078 9.918 16.57 19.586 17.262l57.191 4.0859c11.277 0.80469 21.258-7.2461 22.855-18.441l2.5469-17.809c1.5977-11.203-5.7422-21.734-16.812-24.105zm412.18 11.43c-4.3906-8.7852-14.172-13.488-23.777-11.43l-57.402 12.301c-11.066 2.3711-18.41 12.902-16.809 24.105l2.543 17.809c1.5977 11.195 11.582 19.246 22.859 18.441l57.191-4.0859c9.668-0.69141 17.684-7.7539 19.586-17.262l1.6016-8.0078c1.8789-9.3945 0.57031-19.141-3.7109-27.707zm-416.7 9.6289 57.402 12.301-2.543 17.812-57.191-4.0859-1.6016-8.0078c-0.94141-4.6953-0.28516-9.5703 1.8555-13.855zm340.04 12.301 57.398-12.301 2.082 4.1641c2.1406 4.2852 2.793 9.1602 1.8555 13.855l-1.6016 8.0078-57.191 4.0859zm-229.6-19.191c-10.16 0-18.906 7.168-20.898 17.129-3.0469 15.242 2.4883 30.93 14.43 40.879l2.8789 2.3984c11.609 9.6797 26.25 14.977 41.363 14.977h101.01c15.117 0 29.754-5.2969 41.367-14.977l2.8789-2.3984c11.941-9.9492 17.477-25.637 14.43-40.879-1.9922-9.9609-10.738-17.129-20.898-17.129zm7.3203 41.461c-5.8281-4.8516-8.5547-12.484-7.1328-19.922h176.19c1.4219 7.4375-1.3086 15.07-7.1328 19.922l-2.8789 2.3984c-7.7422 6.4531-17.5 9.9844-27.578 9.9844h-101.01c-10.074 0-19.836-3.5312-27.574-9.9844zm-48.27 60.848c-14.871 0-26.922 12.051-26.922 26.922 0 14.867 12.051 26.922 26.922 26.922h258.46c14.871 0 26.922-12.055 26.922-26.922 0-14.871-12.051-26.922-26.922-26.922zm-5.3867 26.922c0-2.9727 2.4102-5.3867 5.3867-5.3867h258.46c2.9727 0 5.3867 2.4141 5.3867 5.3867 0 2.9727-2.4141 5.3828-5.3867 5.3828h-258.46c-2.9766 0-5.3867-2.4102-5.3867-5.3828zm-53.848 16.152c8.9219 0 16.156-7.2305 16.156-16.152 0-8.9219-7.2344-16.156-16.156-16.156s-16.152 7.2344-16.152 16.156c0 8.9219 7.2305 16.152 16.152 16.152zm393.08-16.152c0 8.9219-7.2305 16.152-16.152 16.152-8.9219 0-16.156-7.2305-16.156-16.152 0-8.9219 7.2344-16.156 16.156-16.156 8.9219 0 16.152 7.2344 16.152 16.156zm-290.77-183.08c5.9492 0 10.77-4.8203 10.77-10.77 0-5.9453-4.8203-10.77-10.77-10.77-5.9453 0-10.77 4.8242-10.77 10.77 0 5.9492 4.8242 10.77 10.77 10.77z" fill-rule="evenodd"/>
  <use y="717.5" xlink:href="#l"/>
  <use x="39.515625" y="717.5" xlink:href="#h"/>
  <use x="66.070312" y="717.5" xlink:href="#b"/>
  <use x="102.589844" y="717.5" xlink:href="#a"/>
  <use x="138.925781" y="717.5" xlink:href="#g"/>
  <use x="164.667969" y="717.5" xlink:href="#b"/>
  <use x="201.1875" y="717.5" xlink:href="#f"/>
  <use x="258.476562" y="717.5" xlink:href="#e"/>
  <use x="297.023438" y="717.5" xlink:href="#d"/>
  <use x="350.867187" y="717.5" xlink:href="#c"/>
  <use x="392.539062" y="717.5" xlink:href="#k"/>
  <use x="410.996094" y="717.5" xlink:href="#j"/>
  <use x="447.992188" y="717.5" xlink:href="#i"/>
  <use x="486.324219" y="717.5" xlink:href="#a"/>
 </g>
</svg>
