<?xml version="1.0" encoding="UTF-8" standalone="no"?>
<svg
   width="800"
   height="600"
   viewBox="0 0 799.99999 599.99999"
   version="1.1"
   id="svg102"
   sodipodi:docname="car.svg"
   inkscape:version="1.2.1 (1:1.2.1+202210291244+9c6d41e410)"
   xmlns:inkscape="http://www.inkscape.org/namespaces/inkscape"
   xmlns:sodipodi="http://sodipodi.sourceforge.net/DTD/sodipodi-0.dtd"
   xmlns="http://www.w3.org/2000/svg"
   xmlns:svg="http://www.w3.org/2000/svg">
  <defs
     id="defs106" />
  <sodipodi:namedview
     id="namedview104"
     pagecolor="#ffffff"
     bordercolor="#666666"
     borderopacity="1.0"
     inkscape:showpageshadow="2"
     inkscape:pageopacity="0.0"
     inkscape:pagecheckerboard="0"
     inkscape:deskcolor="#d1d1d1"
     showgrid="false"
     inkscape:zoom="0.57134255"
     inkscape:cx="230.15965"
     inkscape:cy="322.04848"
     inkscape:window-width="1920"
     inkscape:window-height="1009"
     inkscape:window-x="0"
     inkscape:window-y="34"
     inkscape:window-maximized="1"
     inkscape:current-layer="svg102" />
  <path
     d="M 738.35003,532.45338 H 42.385307 v -1.56926 H 738.35003 c 0.43334,0 0.78463,0.35129 0.78463,0.78463 v 0 c 0,0.43334 -0.35129,0.78463 -0.78463,0.78463 z"
     fill="#3f3d56"
     id="path2"
     style="stroke-width:0.784628" />
  <g
     id="g20"
     transform="matrix(0.78462765,0,0,0.78462765,42.385307,74.891385)">
    <path
       d="m 218.96458,581.15813 h -55.57139 c -8.30576,0 -15.06327,-6.75751 -15.06327,-15.06409 V 402.9818 c 0,-8.30658 6.75751,-15.06409 15.06327,-15.06409 h 55.57139 c 8.30576,0 15.06327,6.75751 15.06327,15.06409 v 163.11224 c 0,8.30658 -6.75751,15.06409 -15.06327,15.06409 z"
       fill="#3f3d56"
       id="path4" />
    <path
       d="m 763.39843,581.47778 h -55.57139 c -8.30576,0 -15.06327,-6.75751 -15.06327,-15.06409 V 403.30145 c 0,-8.30658 6.75751,-15.06409 15.06327,-15.06409 h 55.57139 c 8.30576,0 15.06327,6.75751 15.06327,15.06409 v 163.11224 c 0,8.30658 -6.75751,15.06409 -15.06327,15.06409 z"
       fill="#3f3d56"
       id="path6" />
    <path
       d="m 232.13882,175.85665 -81.83264,116.22607 c -9.87473,14.02498 -13.78987,31.39132 -10.88821,48.29667 l 24.8708,144.89945 c 5.34189,31.1223 32.3273,53.87051 63.90471,53.87051 h 480.87558 c 34.27099,0 62.62374,-26.66996 64.71804,-60.8769 l 9.59799,-156.76719 c 1.14261,-18.66259 -5.82682,-36.90997 -19.11964,-50.05908 L 649.47898,157.90065 c -12.59955,-12.46334 -29.75157,-19.22619 -47.46661,-18.71556 l -318.72526,9.1872 c -20.42807,0.58884 -39.38297,10.77419 -51.1483,27.48436 z"
       fill="#7b2cbf"
       id="path8" />
    <path
       d="m 244.60387,196.48965 -15.64649,29.25608 c -9.97036,18.64275 4.56661,40.65808 26.68477,40.4124 l 391.72693,-4.35119 c 24.06147,-0.26727 37.61304,-26.2031 23.22255,-44.44476 l -24.66548,-31.26643 c -5.68817,-7.21043 -14.7072,-11.38724 -24.21686,-11.21509 l -351.41495,6.36154 c -10.89609,0.19725 -20.77813,6.0623 -25.69046,15.24745 z"
       fill="#ffffff"
       id="path10" />
    <path
       d="m 734.95471,257.54116 c -2.53119,0 -4.99593,-0.93863 -6.88878,-2.6518 -2.14475,-1.94127 -3.37547,-4.7145 -3.37547,-7.60753 l 8.2e-4,-6.43095 1.28898,-29.63753 c 0.23958,-5.50381 4.74158,-9.81463 10.25031,-9.81463 h 40.7797 c 3.7972,0 7.26621,2.08075 9.05404,5.4316 l 4.85891,9.11066 c 1.53595,2.88154 1.6221,6.22912 0.2363,9.1845 -1.3858,2.95702 -4.01463,5.03121 -7.21123,5.69088 l -30.74436,6.36203 c -3.17856,0.65639 -5.68431,3.01118 -6.53844,6.14543 l -1.81573,6.65741 c -1.11094,4.07124 -4.67922,7.08898 -8.87846,7.50907 -0.33886,0.0345 -0.67854,0.0509 -1.01658,0.0509 z"
       fill="#7b2cbf"
       id="path12" />
    <path
       d="m 184.09893,257.49029 c -4.19924,-0.42009 -7.76752,-3.43783 -8.87846,-7.50907 l -1.81573,-6.65741 c -0.85412,-3.13425 -3.35988,-5.48904 -6.53844,-6.14543 l -30.74436,-6.36203 c -3.19661,-0.65967 -5.82544,-2.73385 -7.21123,-5.69088 -1.3858,-2.95538 -1.29965,-6.30296 0.2363,-9.1845 l 4.85891,-9.11066 c 1.78783,-3.35086 5.25684,-5.4316 9.05404,-5.4316 h 40.7797 c 5.50873,0 10.01073,4.31082 10.25031,9.81463 l 1.28898,29.63753 8.2e-4,6.43095 c 0,2.89303 -1.23073,5.66626 -3.37547,7.60753 -1.89286,1.71317 -4.35759,2.6518 -6.88878,2.6518 -0.33804,0 -0.67772,-0.0164 -1.01658,-0.0509 z"
       fill="#7b2cbf"
       id="path14" />
    <circle
       cx="240.74925"
       cy="344.22858"
       r="40.32843"
       fill="#ffffff"
       id="circle16" />
    <circle
       cx="705.36639"
       cy="345.06876"
       r="40.32843"
       fill="#ffffff"
       id="circle18" />
  </g>
  <g
     id="g66"
     transform="matrix(0.78462765,0,0,0.78462765,42.385307,74.891385)">
    <g
       id="g26">
      <path
         d="m 187.06823,128.77693 c 3.71371,2.07874 6.87549,5.01631 9.22106,8.56759 l 26.48096,15.74671 44.99378,21.07444 c 0,0 10.61101,-37.72078 23.28825,-40.12999 12.67724,-2.40921 33.5925,25.54663 33.5925,25.54663 0,0 -36.45931,59.03377 -52.34125,52.98082 -15.88194,-6.05296 -51.36709,-35.44894 -51.36709,-35.44894 l -4.63539,-3.76697 -29.48273,-19.61344 c -4.24929,-0.25843 -8.37472,-1.53117 -12.03136,-3.71126 -9.22116,-5.32685 -13.94699,-14.40273 -10.55602,-20.27019 3.39106,-5.86797 13.61354,-6.30538 22.8373,-0.97538 z"
         fill="#a0616a"
         id="path22" />
      <path
         d="m 274.76795,145.14932 23.00932,-27.08702 13.90084,2.00262 c 17.05049,2.45637 26.52918,21.05455 18.49758,36.29418 l -8.00881,15.19639 -47.39893,-26.40616 z"
         fill="#e6e6e6"
         id="path24" />
    </g>
    <path
       d="m 199.94759,180.6123 -40.49781,-55.82875 c -0.60058,-0.82422 -0.45375,-1.97934 0.33363,-2.62947 l 9.71497,-8.02212 c 0.42125,-0.34782 0.97316,-0.501 1.5135,-0.42134 0.53947,0.0806 1.025,0.38537 1.32949,0.84148 l 40.23752,60.38863 c 0.33162,0.49564 0.41527,1.10557 0.23069,1.67316 -0.18545,0.56851 -0.61375,1.0124 -1.17576,1.21874 l -9.4534,3.45996 c -0.69498,0.25501 -1.47094,0.0837 -1.997,-0.41256 -0.0857,-0.0808 -0.16533,-0.16989 -0.23583,-0.26773 z"
       fill="#3f3d56"
       id="path28" />
    <path
       d="m 203.16706,177.19934 -41.91349,-54.328 c -0.62128,-0.80228 -0.57834,-1.84726 0.0972,-2.3788 l 8.33468,-6.55887 c 0.3614,-0.28437 0.8592,-0.38019 1.365,-0.26392 0.50507,0.11704 0.9783,0.43488 1.29635,0.87661 l 42.03913,58.47874 c 0.34631,0.48007 0.4726,1.0448 0.34759,1.54924 -0.12574,0.50521 -0.48595,0.87691 -0.9888,1.02054 l -8.45933,2.40615 c -0.62185,0.17748 -1.35278,-0.0416 -1.87884,-0.53782 -0.0857,-0.0808 -0.16645,-0.1687 -0.23946,-0.26387 z"
       fill="#e6e6e6"
       id="path30" />
    <g
       id="g36">
      <polygon
         points="186.44365,516.9023 168.21967,556.22775 138.4858,542.79955 161.50557,513.06567 "
         fill="#a0616a"
         id="polygon32" />
      <path
         d="m 155.75063,543.7587 22.06061,-2.87747 c 0,0 15.34651,36.44797 3.83663,38.36629 -11.50988,1.91832 -101.67066,10.55073 -101.67066,-0.95916 0,-11.50989 37.40713,-25.89724 37.40713,-25.89724 l 25.89724,-18.22399 12.46904,9.59157 z"
         fill="#2f2e41"
         id="path34" />
    </g>
    <path
       d="m 329.35807,263.68482 c 0,0 26.8564,40.2846 -30.69303,65.22268 l -61.38606,88.24246 -50.83533,110.30307 -30.69303,-11.50989 53.7128,-166.89334 30.69303,-74.81426 14.38736,-23.01977 74.81426,12.46904 z"
       fill="#2f2e41"
       id="path38" />
    <g
       id="g48">
      <g
         id="g44">
        <polygon
           points="115.95946,412.13218 103.74339,453.7179 72.35236,444.82842 90.72822,412.02079 "
           fill="#a0616a"
           id="polygon40" />
        <path
           d="m 89.56951,443.22718 21.3937,-6.1041 c 0,0 20.5613,33.7817 9.46096,37.3789 -11.10034,3.5972 -98.99741,25.45099 -100.69733,14.06733 -1.69992,-11.38366 33.17208,-31.13798 33.17208,-31.13798 l 22.9217,-21.84895 13.7489,7.6448 z"
           fill="#2f2e41"
           id="path42" />
      </g>
      <path
         d="m 270.85146,255.6295 -147.41339,31.98977 c -11.37442,2.46833 -20.19348,11.46121 -22.43938,22.88162 l -20.63274,104.91775 45.15656,14.6575 20.2803,-93.67355 130.87476,-5.07062 -5.82612,-75.70247 z"
         fill="#2f2e41"
         id="path46" />
    </g>
    <g
       id="g54">
      <polygon
         points="307.90972,78.36957 289.68223,114.07671 338.1706,121.6205 337.64269,73.61325 "
         fill="#a0616a"
         id="polygon50" />
      <circle
         cx="318.03085"
         cy="59.26635"
         r="33.752911"
         fill="#a0616a"
         id="circle52" />
    </g>
    <path
       d="m 339.90879,275.19471 5.5665,-90.16887 c 4.816,-21.58283 3.21227,-44.10313 -4.61357,-64.7857 l -1.91209,-21.53034 -44.12123,2.87747 -18.70356,30.21345 -17.74441,71.45721 -3.83663,47.95786 85.36498,23.97893 z"
       fill="#e6e6e6"
       id="path56" />
    <g
       id="g62">
      <path
         d="m 210.79468,205.42633 c 4.21434,-0.59338 8.50924,-0.16907 12.52595,1.23782 l 30.61013,-3.49568 48.57091,-10.46128 c 0,0 -14.38736,-36.44797 -5.75494,-46.03954 8.63241,-9.59157 42.20291,0 42.20291,0 0,0 6.7141,69.05931 -9.59157,73.8551 -16.30567,4.79579 -62.34521,2.87747 -62.34521,2.87747 l -5.96991,-0.19249 -35.34012,2.23491 c -3.53877,2.36651 -7.59294,3.85068 -11.8232,4.32885 -10.56431,1.34179 -19.81985,-3.02172 -20.67246,-9.74472 -0.85284,-6.72347 7.01922,-13.2596 17.58751,-14.60045 z"
         fill="#a0616a"
         id="path58" />
      <path
         d="m 290.5122,165.37122 1.91831,-35.48881 12.27697,-6.82054 c 15.05868,-8.36594 33.8615,0.70004 36.69353,17.69218 l 2.82399,16.94392 -53.7128,7.67326 z"
         fill="#e6e6e6"
         id="path60" />
    </g>
    <path
       d="m 344.34678,80.01132 c 0,0 3.14744,-15.73721 -6.29489,-16.78636 -9.44233,-1.04915 -18.88466,-19.9338 -18.88466,-19.9338 0,0 -32.58166,-5.68318 -33.63081,7.95574 -1.04915,13.63892 -0.64712,10.60766 -0.64712,10.60766 0,0 -7.74606,-3.26362 -4.59862,-16.90254 0.89927,-3.89683 3.08321,-7.45109 5.74431,-10.54042 8.55266,-9.92895 21.69179,-14.61957 34.71021,-13.11858 5.51337,0.63568 21.92811,5.86844 25.09896,9.43565 8.39318,9.44233 12.14153,38.79118 -1.49739,49.28266 z"
       fill="#3f3d56"
       id="path64" />
  </g>
  <path
     d="m 225.25563,451.63136 c -4.64595,0 -8.74444,-2.43052 -10.9744,-6.51227 -2.24231,-4.10465 -2.05938,-8.89519 0.48928,-12.81647 l 0.37863,0.24596 -0.37863,-0.24596 8.26,-12.70804 c 2.31724,-3.56425 6.23853,-5.69239 10.48998,-5.69239 h 359.26286 c 3.66298,0 7.12893,1.59655 9.5092,4.38059 l 9.06445,10.60194 c 3.20148,3.74497 3.91733,8.85375 1.86852,13.33396 -2.0488,4.48022 -6.38179,7.28012 -11.30764,7.30746 l -376.58731,2.10522 z"
     fill="#3f3d56"
     id="path68"
     style="stroke-width:0.784628" />
  <g
     id="g100"
     transform="matrix(0.78462765,0,0,0.78462765,42.385307,74.891385)">
    <g
       id="g73">
      <path
         id="uuid-f62fe5c4-23d7-4857-9194-89a06a859d22-562"
         d="m 780.88651,284.62937 c 8.42319,5.50907 18.09341,5.62848 21.59853,0.26734 3.50513,-5.36115 -0.48214,-14.17128 -8.90907,-19.68118 -3.33602,-2.24715 -7.16168,-3.66272 -11.15692,-4.12825 l -35.98417,-22.89144 -10.38235,17.11529 36.57629,20.7498 c 2.02877,3.47466 4.86033,6.4128 8.25768,8.56845 z"
         fill="#ffb6b6" />
      <path
         d="m 678.54084,228.21838 88.27877,45.62758 7.67994,-21.12032 -59.87881,-46.90464 -3.98642,-68.43014 c -0.48671,-8.35655 -4.67767,-15.93104 -11.49794,-20.7825 -6.81978,-4.84951 -15.3506,-6.32379 -23.40448,-4.04305 v 0 c -14.33715,4.0616 -22.88457,19.08268 -19.0529,33.48281 l 21.86185,82.17026 z"
         fill="#e6e6e6"
         id="path71" />
    </g>
    <polygon
       points="699.86472,105.76818 703.9922,79.97141 676.1317,68.62083 672.00421,107.83192 "
       fill="#ffb6b6"
       id="polygon75" />
    <path
       d="m 612.1293,252.55575 c 0,0 -7.99823,49.98892 23.99468,55.98759 31.99291,5.99867 104.97672,9.99778 104.97672,9.99778 l 93.97916,113.97473 18.99579,-20.99534 -80.98204,-124.97229 -64.98559,-40.99091 -95.97872,6.99845 z"
       fill="#2f2e41"
       id="path77" />
    <path
       d="m 619.76489,244.4634 c 0,0 -18.65274,47.06313 11.27679,59.85974 29.92953,12.7966 100.3075,32.53418 100.3075,32.53418 l 67.01426,131.64882 23.09827,-16.3742 -51.94079,-139.56475 -54.54493,-54.11314 -95.2111,-13.99064 z"
       fill="#2f2e41"
       id="path79" />
    <path
       d="m 705.10868,101.58923 -35.99202,-5.99867 -24.39407,13.57805 c -14.19811,20.65179 -15.37163,86.15298 -18.7226,110.98953 l -19.86937,46.39452 62.98603,-8.998 50.98869,-4.99889 -16.99623,-110.97539 1.99956,-39.99113 z"
       fill="#e6e6e6"
       id="path81" />
    <g
       id="g89">
      <circle
         cx="692.82416"
         cy="59.853081"
         r="28.41106"
         fill="#ffb6b6"
         id="circle83" />
      <path
         d="m 690.55672,21.6564 c 0.8221,0.47989 1.92329,-0.24618 2.18689,-1.16087 0.2636,-0.91469 -0.0435,-1.88586 -0.34797,-2.78776 -0.51097,-1.51344 -1.02195,-3.02687 -1.53292,-4.54031 -1.08718,-3.22009 -2.24105,-6.5527 -4.59562,-9.00361 -3.55385,-3.69925 -9.20174,-4.64032 -14.28598,-3.95855 -6.52916,0.87553 -12.9712,4.411 -16.00706,10.25737 -3.03587,5.84637 -1.74338,14.00414 3.74223,17.65168 -7.8182,8.96096 -10.54351,18.94764 -10.11319,30.832 0.43032,11.88436 13.38135,22.82184 21.82716,31.1939 1.8861,-1.14333 3.60078,-6.50146 2.5636,-8.44795 -1.03718,-1.94649 0.44887,-4.20156 -0.83565,-5.99449 -1.28452,-1.79293 -2.35918,1.06195 -1.06056,-0.7208 0.81945,-1.12494 -2.37884,-3.71295 -1.16078,-4.38625 5.89154,-3.25664 7.85103,-10.6002 11.5513,-16.22372 4.46321,-6.78301 12.102,-11.37654 20.18586,-12.13861 4.45312,-0.4198 9.15659,0.34054 12.80664,2.92581 3.65005,2.58527 6.01307,7.2051 5.16666,11.59715 2.19206,-2.22575 3.28323,-5.48758 2.87167,-8.5843 -0.41156,-3.09672 -2.31681,-5.96033 -5.01413,-7.53626 1.64008,-5.42366 0.23507,-11.66246 -3.57164,-15.85948 -3.80671,-4.19702 -19.2488,-3.48219 -24.80631,-2.3776"
         fill="#2f2e41"
         id="path85" />
      <path
         d="m 689.69367,42.39307 c -7.36075,0.79459 -12.67542,7.17064 -17.16321,13.05891 -2.58666,3.39387 -5.29616,7.14182 -5.23123,11.40854 0.0657,4.31377 2.94985,8.01377 4.32825,12.10192 2.25304,6.6822 0.0572,14.63248 -5.30606,19.21107 5.29949,1.00564 11.02839,-2.96791 11.94325,-8.28383 1.06501,-6.18838 -3.62607,-12.16111 -3.0705,-18.41584 0.48947,-5.51049 4.83197,-9.75146 8.52374,-13.87164 3.69177,-4.12018 7.15899,-9.58756 5.46059,-14.85258"
         fill="#2f2e41"
         id="path87" />
    </g>
    <g
       id="g94">
      <path
         id="uuid-3a487c00-6027-4cb8-ba45-983efea0d6d6-563"
         d="m 758.30603,289.97312 c 8.42319,5.50907 18.09341,5.62848 21.59853,0.26734 3.50512,-5.36114 -0.48214,-14.17128 -8.90907,-19.68118 -3.33602,-2.24715 -7.16168,-3.66272 -11.15692,-4.12825 l -35.98417,-22.89144 -10.38235,17.11529 36.57629,20.7498 c 2.02877,3.47466 4.86033,6.4128 8.25768,8.56845 z"
         fill="#ffb6b6" />
      <path
         d="m 655.96037,233.56212 88.27877,45.62758 7.67994,-21.12032 -59.87881,-46.90464 -3.98642,-68.43014 c -0.48671,-8.35655 -4.67767,-15.93104 -11.49794,-20.7825 -6.81978,-4.84951 -15.3506,-6.32379 -23.40448,-4.04305 v 0 c -14.33715,4.0616 -22.88457,19.08268 -19.0529,33.48281 l 21.86185,82.17026 z"
         fill="#e6e6e6"
         id="path92" />
    </g>
    <path
       d="m 801.54376,450.84405 2.04308,1.16748 c 0,0 13.9969,-7.99823 20.99534,0 6.99844,7.99823 11.99734,27.99379 11.99734,27.99379 0,0 28.99357,23.99468 11.99734,23.99468 -12.79412,0 -43.15053,-14.16314 -57.37897,-21.16646 -4.542,-2.2356 -6.65662,-7.54699 -4.89012,-12.29115 1.47259,-3.95485 3.37716,-8.10443 5.28173,-9.53285 1.99956,-1.49967 3.24928,-4.74895 3.99911,-7.62331 0.67943,-2.60449 3.61814,-3.8776 5.95514,-2.54217 z"
       fill="#2f2e41"
       id="path96" />
    <path
       d="m 840.53512,412.85248 2.04308,1.16748 c 0,0 13.9969,-7.99823 20.99534,0 6.99845,7.99823 11.99734,27.99379 11.99734,27.99379 0,0 28.99357,23.99468 11.99734,23.99468 -12.79412,0 -43.15053,-14.16314 -57.37897,-21.16646 -4.542,-2.2356 -6.65662,-7.54699 -4.89012,-12.29115 1.47259,-3.95485 3.37716,-8.10443 5.28173,-9.53285 1.99956,-1.49967 3.24928,-4.74895 3.99911,-7.62331 0.67943,-2.60449 3.61814,-3.8776 5.95514,-2.54217 z"
       fill="#2f2e41"
       id="path98" />
  </g>
</svg>
