<?xml version="1.0" encoding="UTF-8" standalone="no"?>
<svg
   width="51.9384pt"
   height="56.660961pt"
   version="1.1"
   viewBox="0 0 51.9384 56.660961"
   id="svg4"
   sodipodi:docname="client.svg"
   inkscape:version="1.2.2 (1:1.2.2+202212051550+b0a8486541)"
   xmlns:inkscape="http://www.inkscape.org/namespaces/inkscape"
   xmlns:sodipodi="http://sodipodi.sourceforge.net/DTD/sodipodi-0.dtd"
   xmlns="http://www.w3.org/2000/svg"
   xmlns:svg="http://www.w3.org/2000/svg">
  <defs
     id="defs8" />
  <sodipodi:namedview
     id="namedview6"
     pagecolor="#ffffff"
     bordercolor="#666666"
     borderopacity="1.0"
     inkscape:showpageshadow="2"
     inkscape:pageopacity="0.0"
     inkscape:pagecheckerboard="0"
     inkscape:deskcolor="#d1d1d1"
     inkscape:document-units="pt"
     showgrid="false"
     inkscape:zoom="0.50571429"
     inkscape:cx="-4.9435028"
     inkscape:cy="71.186441"
     inkscape:window-width="1920"
     inkscape:window-height="1009"
     inkscape:window-x="0"
     inkscape:window-y="34"
     inkscape:window-maximized="1"
     inkscape:current-layer="svg4" />
  <path
     d="m 25.96895,28.33023 c 7.82306,0 14.16511,-6.34205 14.16511,-14.16511 C 40.13406,6.34205 33.79201,0 25.96895,0 18.14589,0 11.80384,6.34205 11.80384,14.16512 c 0,7.82306 6.34205,14.16511 14.16511,14.16511 z m 0,-2.36102 c 6.51936,0 11.80409,-5.28473 11.80409,-11.80409 0,-6.51937 -5.28473,-11.80409 -11.80409,-11.80409 -6.51937,0 -11.80409,5.28472 -11.80409,11.80409 0,6.51936 5.28472,11.80409 11.80409,11.80409 z M 0,55.4807 c 0,0.65163 0.52813,1.18026 1.18026,1.18026 h 49.57788 c 0.65213,0 1.18026,-0.52863 1.18026,-1.18026 v -4.72204 c 0,-9.54881 -6.38404,-17.70639 -18.88639,-17.70639 H 18.8869 C 6.38429,33.05227 5e-4,41.20985 5e-4,50.75866 Z M 18.88639,35.41304 H 33.0515 c 11.05461,0 16.52639,6.99111 16.52639,15.34511 v 3.54128 H 2.36001 v -3.54128 c 0,-8.35425 5.47152,-15.34511 16.52638,-15.34511 z"
     fill-rule="evenodd"
     id="path2"
     style="fill:#ffffff;stroke-width:0.126474" />
</svg>
