<svg width="18.881pt" height="18.88pt" version="1.1" viewBox="0 0 18.881 18.88" xmlns="http://www.w3.org/2000/svg">
 <g transform="translate(-340.56 -270.56)">
  <path d="m348.78 271v8.852c0 0.24457-0.19832 0.44236-0.44236 0.44236h-7.3382c-0.24457 0-0.44236-0.19831-0.44236-0.44236v-8.852c0-0.24457 0.19831-0.44236 0.44236-0.44236h7.3382c0.24457 0 0.44236 0.19832 0.44236 0.44236zm9.7724 17.553v-7.9671h-6.4526v7.9671zm0.88537-8.4094v8.852c0 0.24457-0.19831 0.44236-0.44236 0.44236h-7.3382c-0.24403 0-0.44236-0.19832-0.44236-0.44236v-8.852c0-0.24457 0.19832-0.44236 0.44236-0.44236h7.3382c0.24457 0 0.44236 0.19831 0.44236 0.44236zm-0.88537-3.675v-5.0263h-6.4526v5.0263zm0.88537-5.4686v5.9109c0 0.24402-0.19831 0.44236-0.44236 0.44236h-7.3382c-0.24403 0-0.44236-0.19832-0.44236-0.44236v-5.9109c0-0.24457 0.19832-0.44236 0.44236-0.44236h7.3382c0.24457 0 0.44236 0.19832 0.44236 0.44236zm-11.543 8.4094v-7.9671h-6.4526v7.9671zm0.88537 3.675v5.9109c0 0.24457-0.19832 0.44236-0.44236 0.44236h-7.3382c-0.24457 0-0.44236-0.19831-0.44236-0.44236v-5.9109c0-0.24403 0.19831-0.44236 0.44236-0.44236h7.3382c0.24457 0 0.44236 0.19832 0.44236 0.44236zm-0.88537 5.4686v-5.0263h-6.4526v5.0263z" fill="#fff" stroke-width=".03442"/>
 </g>
</svg>
