<?xml version="1.0" encoding="UTF-8" standalone="no"?>
<svg
   data-name="Layer 1"
   width="800"
   height="600"
   viewBox="0 0 799.99998 600"
   version="1.1"
   id="svg68"
   sodipodi:docname="extra.svg"
   inkscape:version="1.2.1 (1:1.2.1+202210291244+9c6d41e410)"
   xmlns:inkscape="http://www.inkscape.org/namespaces/inkscape"
   xmlns:sodipodi="http://sodipodi.sourceforge.net/DTD/sodipodi-0.dtd"
   xmlns="http://www.w3.org/2000/svg"
   xmlns:svg="http://www.w3.org/2000/svg">
  <defs
     id="defs72" />
  <sodipodi:namedview
     id="namedview70"
     pagecolor="#ffffff"
     bordercolor="#666666"
     borderopacity="1.0"
     inkscape:showpageshadow="2"
     inkscape:pageopacity="0.0"
     inkscape:pagecheckerboard="0"
     inkscape:deskcolor="#d1d1d1"
     showgrid="false"
     inkscape:zoom="0.48810755"
     inkscape:cx="-347.25953"
     inkscape:cy="329.84534"
     inkscape:window-width="1920"
     inkscape:window-height="1009"
     inkscape:window-x="0"
     inkscape:window-y="34"
     inkscape:window-maximized="1"
     inkscape:current-layer="svg68" />
  <path
     d="m 468.14426,176.43187 h -79.74145 a 11.47812,11.47812 0 0 1 -9.06567,-4.39356 v 0 a 11.62154,11.62154 0 0 1 -2.17652,-9.96777 201.63052,201.63052 0 0 0 -4.9e-4,-93.647006 11.62425,11.62425 0 0 1 2.17676,-9.96729 11.47753,11.47753 0 0 1 9.06592,-4.39355 h 79.74145 a 11.6235,11.6235 0 0 1 11.439,9.75537 337.96108,337.96108 0 0 1 0,102.858406 11.6235,11.6235 0 0 1 -11.439,9.7554 z"
     fill="#e6e6e6"
     id="path2" />
  <path
     d="m 388.40281,60.062694 a 5.51264,5.51264 0 0 0 -4.35449,2.1084 5.65943,5.65943 0 0 0 -1.05371,4.85351 207.656,207.656 0 0 1 4.8e-4,96.445316 5.65638,5.65638 0 0 0 1.053,4.85254 l 4.9e-4,4.9e-4 a 5.5112,5.5112 0 0 0 4.35425,2.10889 h 79.74145 a 5.58248,5.58248 0 0 0 5.50879,-4.667 331.9854,331.9854 0 0 0 0,-101.035166 5.58248,5.58248 0 0 0 -5.50879,-4.667 z"
     fill="#ffffff"
     id="path4" />
  <path
     d="m 450.74294,88.913414 h -41.845 a 6.00633,6.00633 0 0 1 -5.99977,-5.99977 v -2.34463 a 6.00633,6.00633 0 0 1 5.99977,-5.99977 h 41.845 a 6.00633,6.00633 0 0 1 5.99976,5.99977 v 2.34468 a 6.00632,6.00632 0 0 1 -5.99976,5.99972 z"
     fill="#e6e6e6"
     id="path6" />
  <path
     d="m 450.74294,118.5392 h -41.845 a 6.00632,6.00632 0 0 1 -5.99977,-5.99976 v -2.34464 a 6.00632,6.00632 0 0 1 5.99977,-5.99976 h 41.845 a 6.00632,6.00632 0 0 1 5.99976,5.99976 v 2.34464 a 6.00632,6.00632 0 0 1 -5.99976,5.99976 z"
     fill="#e6e6e6"
     id="path8" />
  <path
     d="m 450.74294,148.16499 h -41.845 a 6.00633,6.00633 0 0 1 -5.99977,-5.99977 v -2.34463 a 6.00632,6.00632 0 0 1 5.99977,-5.99976 h 41.845 a 6.00632,6.00632 0 0 1 5.99976,5.99976 v 2.34463 a 6.00632,6.00632 0 0 1 -5.99976,5.99977 z"
     fill="#e6e6e6"
     id="path10" />
  <path
     d="m 618.14426,252.43187 h -79.74145 a 11.47812,11.47812 0 0 1 -9.06567,-4.39356 v 0 a 11.62154,11.62154 0 0 1 -2.17652,-9.96777 201.63052,201.63052 0 0 0 -4.9e-4,-93.647 11.62425,11.62425 0 0 1 2.17676,-9.96729 11.47753,11.47753 0 0 1 9.06592,-4.39355 h 79.74145 a 11.6235,11.6235 0 0 1 11.439,9.75537 337.96108,337.96108 0 0 1 0,102.8584 11.6235,11.6235 0 0 1 -11.439,9.7554 z"
     fill="#e6e6e6"
     id="path12" />
  <path
     d="m 538.40281,136.0627 a 5.51264,5.51264 0 0 0 -4.35449,2.1084 5.65943,5.65943 0 0 0 -1.05371,4.85351 207.656,207.656 0 0 1 4.8e-4,96.44531 5.65638,5.65638 0 0 0 1.053,4.85254 l 4.9e-4,4.9e-4 a 5.5112,5.5112 0 0 0 4.35425,2.10889 h 79.74145 a 5.58248,5.58248 0 0 0 5.50879,-4.667 331.9854,331.9854 0 0 0 0,-101.03516 5.58248,5.58248 0 0 0 -5.50879,-4.667 z"
     fill="#ffffff"
     id="path14" />
  <path
     d="m 459.14426,338.93187 h -79.74145 a 11.97546,11.97546 0 0 1 -9.45825,-4.584 12.1192,12.1192 0 0 1 -2.27,-10.394 201.13112,201.13112 0 0 0 -4.9e-4,-93.41357 12.12077,12.12077 0 0 1 2.27026,-10.39356 11.97561,11.97561 0 0 1 9.4585,-4.584 h 79.74145 a 12.12667,12.12667 0 0 1 11.93311,10.1792 338.45925,338.45925 0 0 1 0,103.01074 12.12668,12.12668 0 0 1 -11.93313,10.17919 z"
     fill="#f2f2f2"
     id="path16" />
  <path
     d="m 600.74294,179.91342 h -41.845 a 6.00633,6.00633 0 0 1 -5.99977,-5.99977 v -2.34463 a 6.00633,6.00633 0 0 1 5.99977,-5.99977 h 41.845 a 6.00633,6.00633 0 0 1 5.99976,5.99977 v 2.34468 a 6.00632,6.00632 0 0 1 -5.99976,5.99972 z"
     fill="#e6e6e6"
     id="path18" />
  <path
     d="m 600.74294,209.5392 h -41.845 a 6.00632,6.00632 0 0 1 -5.99977,-5.99976 v -2.34464 a 6.00632,6.00632 0 0 1 5.99977,-5.99976 h 41.845 a 6.00632,6.00632 0 0 1 5.99976,5.99976 v 2.34464 a 6.00632,6.00632 0 0 1 -5.99976,5.99976 z"
     fill="#e6e6e6"
     id="path20" />
  <circle
     cx="419.49658"
     cy="276.83472"
     r="23"
     fill="#ffffff"
     id="circle22" />
  <path
     d="m 430.49656,273.8347 h -8 v -8 a 3,3 0 0 0 -6,0 v 8 h -8 a 3,3 0 0 0 0,6 h 8 v 8 a 3,3 0 0 0 6,0 v -8 h 8 a 3,3 0 0 0 0,-6 z"
     fill="#e6e6e6"
     id="path24" />
  <path
     d="m 448.49656,65.334694 h -42 a 4.50508,4.50508 0 0 1 -4.5,-4.5 v -8 a 4.50508,4.50508 0 0 1 4.5,-4.5 h 42 a 4.50508,4.50508 0 0 1 4.5,4.5 v 8 a 4.50508,4.50508 0 0 1 -4.5,4.5 z"
     fill="#cccccc"
     id="path26" />
  <path
     d="m 587.04311,451.89112 h -79.74145 a 11.47812,11.47812 0 0 1 -9.06567,-4.39356 v 0 a 11.62154,11.62154 0 0 1 -2.17652,-9.96777 201.63052,201.63052 0 0 0 -4.9e-4,-93.647 11.62425,11.62425 0 0 1 2.17676,-9.96729 11.47753,11.47753 0 0 1 9.06592,-4.39355 h 79.74145 a 11.6235,11.6235 0 0 1 11.439,9.75537 337.96108,337.96108 0 0 1 0,102.8584 11.6235,11.6235 0 0 1 -11.439,9.7554 z"
     fill="#e6e6e6"
     id="path2-3" />
  <path
     d="m 507.30166,335.52195 a 5.51264,5.51264 0 0 0 -4.35449,2.1084 5.65943,5.65943 0 0 0 -1.05371,4.85351 207.656,207.656 0 0 1 4.8e-4,96.44531 5.65638,5.65638 0 0 0 1.053,4.85254 l 4.9e-4,4.9e-4 a 5.5112,5.5112 0 0 0 4.35425,2.10889 h 79.74145 a 5.58248,5.58248 0 0 0 5.50879,-4.667 331.9854,331.9854 0 0 0 0,-101.03516 5.58248,5.58248 0 0 0 -5.50879,-4.667 z"
     fill="#ffffff"
     id="path4-6" />
  <path
     d="m 569.64179,364.37267 h -41.845 a 6.00633,6.00633 0 0 1 -5.99977,-5.99977 v -2.34463 a 6.00633,6.00633 0 0 1 5.99977,-5.99977 h 41.845 a 6.00633,6.00633 0 0 1 5.99976,5.99977 v 2.34468 a 6.00632,6.00632 0 0 1 -5.99976,5.99972 z"
     fill="#e6e6e6"
     id="path6-7" />
  <path
     d="m 569.64179,393.99845 h -41.845 a 6.00632,6.00632 0 0 1 -5.99977,-5.99976 v -2.34464 a 6.00632,6.00632 0 0 1 5.99977,-5.99976 h 41.845 a 6.00632,6.00632 0 0 1 5.99976,5.99976 v 2.34464 a 6.00632,6.00632 0 0 1 -5.99976,5.99976 z"
     fill="#e6e6e6"
     id="path8-5" />
  <path
     d="m 569.64179,423.62424 h -41.845 a 6.00633,6.00633 0 0 1 -5.99977,-5.99977 v -2.34463 a 6.00632,6.00632 0 0 1 5.99977,-5.99976 h 41.845 a 6.00632,6.00632 0 0 1 5.99976,5.99976 v 2.34463 a 6.00632,6.00632 0 0 1 -5.99976,5.99977 z"
     fill="#e6e6e6"
     id="path10-3" />
  <path
     d="m 567.39541,340.79395 h -42 a 4.50508,4.50508 0 0 1 -4.5,-4.5 v -8 a 4.50508,4.50508 0 0 1 4.5,-4.5 h 42 a 4.50508,4.50508 0 0 1 4.5,4.5 v 8 a 4.50508,4.50508 0 0 1 -4.5,4.5 z"
     fill="#cccccc"
     id="path26-5" />
  <path
     d="m 600.49656,142.3347 h -42 a 4.50508,4.50508 0 0 1 -4.5,-4.5 v -8 a 4.50508,4.50508 0 0 1 4.5,-4.5 h 42 a 4.50508,4.50508 0 0 1 4.5,4.5 v 8 a 4.50508,4.50508 0 0 1 -4.5,4.5 z"
     fill="#cccccc"
     id="path28" />
  <polygon
     points="88.596,471.061 100.856,471.061 104.689,423.773 88.594,423.773 "
     fill="#ffb8b8"
     id="polygon30"
     transform="translate(147.68554,48.334694)" />
  <path
     d="m 233.15474,515.39315 24.1438,-10e-4 h 10e-4 a 15.38605,15.38605 0 0 1 15.38647,15.38623 v 0.5 l -39.53051,10e-4 z"
     fill="#2f2e41"
     id="path32" />
  <polygon
     points="22.596,471.061 34.856,471.061 40.689,423.773 22.594,423.773 "
     fill="#ffb8b8"
     id="polygon34"
     transform="translate(147.68554,48.334694)" />
  <path
     d="m 167.15474,515.39315 24.1438,-10e-4 h 0.001 a 15.38605,15.38605 0 0 1 15.38647,15.38623 v 0.5 l -39.53051,10e-4 z"
     fill="#2f2e41"
     id="path36" />
  <path
     d="m 172.45676,504.45726 a 4.98141,4.98141 0 0 1 -3.375,-1.31836 v 0 a 4.961,4.961 0 0 1 -1.61572,-3.53711 l -4.91664,-176.21338 69.81115,17.45215 21.53955,64.61768 a 70.461,70.461 0 0 1 3.54541,25.82421 l -2.67456,62.63672 a 4.996,4.996 0 0 1 -4.99438,4.75879 h -11.709 a 5.02349,5.02349 0 0 1 -4.95483,-4.32959 l -8.3689,-69.1416 a 37.82338,37.82338 0 0 0 -5.53173,-15.16406 l -16.46949,-26.07617 a 1.00011,1.00011 0 0 0 -1.83764,0.41015 L 187.9804,499.46507 a 4.99328,4.99328 0 0 1 -4.687,4.39649 l -10.552,0.58691 c -0.0949,0.005 -0.18966,0.009 -0.28464,0.009 z"
     fill="#2f2e41"
     id="path38" />
  <circle
     cx="220.74321"
     cy="184.74078"
     r="24.561029"
     fill="#ffb8b8"
     id="circle40" />
  <path
     d="m 232.0261,348.00706 a 5.07628,5.07628 0 0 1 -1.25293,-0.15918 h -7.7e-4 l -69.26428,-17.75976 a 4.9985,4.9985 0 0 1 -3.66285,-5.81543 l 15.90713,-85.69092 a 31.21377,31.21377 0 0 1 18.24975,-22.53955 30.11308,30.11308 0 0 1 28.26563,2.07519 c 0.96973,0.605 1.94653,1.26465 2.90259,1.96094 a 30.96046,30.96046 0 0 1 12.57885,24.5293 l 1.2649,98.32861 a 5.00656,5.00656 0 0 1 -4.988,5.0708 z"
     fill="#7b2cbf"
     id="path42" />
  <path
     d="m 168.63488,349.01478 a 10.05576,10.05576 0 0 1 4.214,-14.83233 l -3.08079,-35.6018 16.326,8.84848 0.42262,32.4515 a 10.11027,10.11027 0 0 1 -17.8818,9.13415 z"
     fill="#ffb8b8"
     id="path44" />
  <path
     d="m 174.46751,329.47386 a 5.53224,5.53224 0 0 1 -1.36573,-0.17285 5.49559,5.49559 0 0 1 -3.97192,-3.98633 l -8.02319,-31.88379 a 47.37028,47.37028 0 0 1 3.76123,-33.13476 l 16.80884,-32.88184 a 15.54083,15.54083 0 0 1 18.8081,-11.01855 15.35574,15.35574 0 0 1 9.47485,7.10058 15.56707,15.56707 0 0 1 1.65406,11.91309 l -23.92749,53.50586 0.28418,32.03564 a 5.5186,5.5186 0 0 1 -3.58448,5.20459 l -8.00732,2.97363 a 5.48,5.48 0 0 1 -1.91113,0.34473 z"
     fill="#7b2cbf"
     id="path46" />
  <path
     d="m 289.00327,335.91937 a 10.05578,10.05578 0 0 1 -8.493,-12.86954 l -28.99341,-20.88926 17.35654,-6.60182 24.8717,20.84893 a 10.11027,10.11027 0 0 1 -4.74186,19.51169 z"
     fill="#ffb8b8"
     id="path48" />
  <path
     d="m 273.8254,320.66527 a 5.52249,5.52249 0 0 1 -2.46265,-0.58155 L 241.9636,305.36644 A 47.381,47.381 0 0 1 219.30296,280.90111 L 205.34568,246.7107 a 15.54363,15.54363 0 0 1 3.91772,-21.44434 15.35158,15.35158 0 0 1 11.59034,-2.54346 15.56975,15.56975 0 0 1 10.08081,6.51221 l 24.94507,53.03955 24.46578,20.6826 a 5.51764,5.51764 0 0 1 1.60669,6.11182 l -2.96973,8.0083 a 5.474,5.474 0 0 1 -2.00684,2.59619 5.49717,5.49717 0 0 1 -3.15014,0.9917 z"
     fill="#7b2cbf"
     id="path50" />
  <path
     d="m 215.58572,209.6778 c 1.305,0.571 3.97732,-9.82732 2.78025,-11.90707 -1.78025,-3.09293 -1.675,-3.07072 -2.85681,-5.117 -1.18181,-2.04628 -1.44623,-4.84712 0.0842,-6.64761 1.5304,-1.80049 5.072,-1.56163 5.77042,0.69581 -0.4493,-4.2878 3.79189,-7.73454 7.993,-8.70313 4.20111,-0.96859 8.63244,-0.36723 12.85668,-1.22917 4.90243,-1.00032 10.00316,-5.10972 8.04719,-10.5007 a 7.5931,7.5931 0 0 0 -1.48106,-2.43408 c -2.25993,-2.54094 -5.42117,-3.62594 -8.512,-4.675 -6.43006,-2.18246 -13.036,-4.39233 -19.82212,-4.15141 a 28.7977,28.7977 0 0 0 -25.44634,18.60926 26.15571,26.15571 0 0 0 -1.08344,4.02534 c -2.32924,12.52423 4.94368,24.87794 16.75623,29.64715 z"
     fill="#2f2e41"
     id="path52" />
  <polygon
     points="38.9,273.343 39.457,240.414 56.9,205.343 42.9,241.343 "
     opacity="0.2"
     id="polygon54"
     transform="translate(147.68554,48.334694)" />
  <path
     d="M 344.76275,404.31714 271.1244,373.72162 a 11.47817,11.47817 0 0 1 -6.68609,-7.53565 v 0 a 11.62155,11.62155 0 0 1 1.81454,-10.04 201.63062,201.63062 0 0 0 35.9304,-86.47983 11.62422,11.62422 0 0 1 5.83445,-8.36925 11.47751,11.47751 0 0 1 10.05779,-0.57884 l 73.63839,30.59552 a 11.62349,11.62349 0 0 1 6.8205,13.39769 337.96147,337.96147 0 0 1 -39.46512,94.98607 11.6235,11.6235 0 0 1 -14.30651,4.61981 z"
     fill="#e6e6e6"
     id="path56" />
  <path
     d="m 315.77333,266.25885 a 5.51263,5.51263 0 0 0 -4.83017,0.27629 5.65945,5.65945 0 0 0 -2.83529,4.07775 207.65608,207.65608 0 0 1 -37.00407,89.064 5.65636,5.65636 0 0 0 -0.88946,4.88515 l 2.7e-4,6.4e-4 a 5.51116,5.51116 0 0 0 3.21185,3.61814 l 73.63839,30.59552 a 5.58247,5.58247 0 0 0 6.87782,-2.19616 331.98566,331.98566 0 0 0 38.76558,-93.30238 5.58248,5.58248 0 0 0 -3.29652,-6.42343 z"
     fill="#ffffff"
     id="path58" />
  <path
     d="m 354.98268,334.36618 -38.6424,-16.05527 a 6.00633,6.00633 0 0 1 -3.23855,-7.84259 l 0.8996,-2.16518 a 6.00632,6.00632 0 0 1 7.84258,-3.23856 l 38.6424,16.05527 a 6.00634,6.00634 0 0 1 3.23855,7.84259 l -0.8996,2.16518 a 6.00632,6.00632 0 0 1 -7.84258,3.23856 z"
     fill="#7b2cbf"
     id="path60" />
  <path
     d="m 343.61574,361.72454 -38.6424,-16.05527 a 6.00633,6.00633 0 0 1 -3.23855,-7.84259 l 0.89959,-2.16518 a 6.00634,6.00634 0 0 1 7.84259,-3.23856 l 38.64243,16.05527 a 6.00633,6.00633 0 0 1 3.23856,7.84258 l -0.8996,2.16519 a 6.00632,6.00632 0 0 1 -7.84262,3.23856 z"
     fill="#7b2cbf"
     id="path62" />
  <path
     d="m 370.46677,295.9167 a 4.48944,4.48944 0 0 1 -1.68725,-0.33057 l -38.938,-15.74267 a 4.50518,4.50518 0 0 1 -2.48535,-5.8584 l 2.99878,-7.417 a 4.50027,4.50027 0 0 1 5.85864,-2.48486 l 38.938,15.74267 a 4.50518,4.50518 0 0 1 2.48535,5.8584 l -2.99878,7.417 a 4.51079,4.51079 0 0 1 -4.17139,2.81543 z"
     fill="#cccccc"
     id="path64" />
  <path
     d="m 288.68554,531.8347 h -140 a 1,1 0 1 1 0,-2 h 140 a 1,1 0 0 1 0,2 z"
     fill="#cccccc"
     id="path66" />
</svg>
