<?xml version="1.0" encoding="UTF-8"?>
<svg width="700pt" height="700pt" version="1.1" viewBox="0 0 700 700" xmlns="http://www.w3.org/2000/svg">
 <path d="m555.43 144.61-134.1-105.96-24.863 19.695c-0.30469 0.27734-0.62109 0.52734-0.96484 0.76172l-107.94 85.504c-2.2109 1.7734-3.8945 3.8281-4.9922 6.0898-1.0898 2.2539-1.668 4.8672-1.668 7.707l-0.027344 347.66c0.03125 4.8398 1.9961 9.2344 5.1523 12.383 3.1797 3.1875 7.5742 5.1523 12.41 5.1523h245.97c4.8359 0 9.2266-1.9648 12.375-5.1211 3.1758-3.207 5.1445-7.5938 5.1445-12.414v-347.79c0-2.8438-0.55469-5.418-1.6211-7.6445-1.0781-2.2539-2.7266-4.3008-4.875-6.0195zm-213.67-64.285-76.023 29.699c-2.7305 1.1055-5.1211 2.5742-7.0195 4.4102-1.7539 1.707-3.1406 3.7891-4.0273 6.25l-115.58 318.83c-1.6484 4.5391-1.2969 9.3398 0.60156 13.406 1.8984 4.0625 5.3594 7.4219 9.8867 9.0664l114.5 41.668 0.027344-345.26c-0.03125-5.3594 1.125-10.418 3.3398-14.996 2.2305-4.5898 5.4961-8.6328 9.7148-11.957l64.566-51.129zm-73.254 442.49c-0.6875-0.066406-1.375-0.21875-2.0508-0.46484l-122.57-44.605c-8.8633-3.2227-15.617-9.7812-19.332-17.734-3.7188-7.9688-4.4102-17.348-1.1953-26.211l115.58-318.8c1.8203-4.9805 4.582-9.1602 8.1016-12.582 3.5195-3.4141 7.7734-6.0586 12.527-7.9688l127.07-49.668 29.406-23.289c2.9688-2.4141 7.3359-2.5469 10.465-0.074219l139.3 110.06c4.207 3.375 7.4297 7.3867 9.5977 11.918 2.1953 4.5781 3.3281 9.5898 3.3281 14.867v347.79c0 9.457-3.8555 18.051-10.066 24.262-6.2383 6.2109-14.828 10.074-24.254 10.074h-245.97c-9.4062 0-17.984-3.8477-24.203-10.059-1.9922-1.7383-4.4102-5.1914-5.7266-7.5195zm208-218.54c0 4.6367-3.7617 8.3984-8.3984 8.3984s-8.3984-3.7617-8.3984-8.3984c0-7.1914-3.9609-13.844-10.363-18.758-7.0508-5.4023-16.918-8.7422-27.938-8.7422-11.02 0-20.883 3.3477-27.906 8.7422-6.4141 4.9336-10.391 11.582-10.391 18.758 0 7.375 4.2383 14.391 11.086 20.969 7.793 7.4883 18.77 14.285 30.953 20.391 13.594 6.8203 25.988 14.539 35.09 23.277 10.047 9.6484 16.27 20.598 16.27 33.043 0 12.633-6.4961 23.938-16.973 32-7.9492 6.1367-18.273 10.379-29.73 11.785v21.039c0 4.6367-3.7617 8.3984-8.3984 8.3984-4.6367 0-8.3984-3.7617-8.3984-8.3984v-21.039c-11.449-1.4102-21.773-5.6484-29.738-11.773-10.133-8.4453-16.957-18.336-16.957-32.012 0-4.6367 3.7617-8.3984 8.3984-8.3984 4.6367 0 8.3984 3.7617 8.3984 8.3984 0 7.0391 3.7969 13.566 9.9688 18.445 8.6992 6.2891 17.562 9.0547 28.328 9.0547 11.02 0 20.883-3.3477 27.906-8.7422 6.4375-4.9141 10.398-11.566 10.398-18.758 0-7.375-4.2383-14.398-11.086-20.969-7.793-7.4805-18.77-14.281-30.961-20.391-13.598-6.8125-25.988-14.539-35.082-23.277-10.047-9.6484-16.27-20.598-16.27-33.043 0-12.645 6.4805-23.965 16.953-32.012 7.9648-6.125 18.297-10.363 29.746-11.773v-21.047c0-4.6367 3.7617-8.3984 8.3984-8.3984 4.6367 0 8.3984 3.7617 8.3984 8.3984v21.047c11.449 1.4102 21.781 5.6484 29.746 11.773 10.465 8.0742 16.957 19.387 16.957 32.012zm-55.098-177.13c-6.5938 0-12.574 2.6797-16.887 6.9922-4.3203 4.3203-6.9961 10.297-6.9961 16.895 0 6.6133 2.6641 12.594 6.9648 16.887 4.3242 4.332 10.305 6.9961 16.918 6.9961 6.5938 0 12.574-2.6797 16.895-6.9961 4.3125-4.3125 6.9922-10.293 6.9922-16.887 0-6.6094-2.6719-12.594-6.9766-16.906-4.3125-4.3047-10.297-6.9766-16.906-6.9766zm-28.766-4.8867c7.3555-7.3555 17.535-11.914 28.766-11.914 11.203 0 21.379 4.5586 28.738 11.914 7.3867 7.3945 11.945 17.566 11.945 28.773 0 11.23-4.5586 21.41-11.914 28.766-7.3633 7.3633-17.539 11.918-28.773 11.918-11.184 0-21.344-4.5508-28.711-11.898-7.6641-7.6641-11.973-17.93-11.973-28.785 0-11.23 4.5586-21.41 11.918-28.773z"/>
</svg>
