<?xml version="1.0" encoding="UTF-8" standalone="no"?>
<svg
   data-name="Layer 1"
   width="800"
   height="600"
   viewBox="0 0 800 600.00002"
   version="1.1"
   id="svg187"
   sodipodi:docname="promotion.svg"
   inkscape:version="1.2.1 (1:1.2.1+202210291244+9c6d41e410)"
   xmlns:inkscape="http://www.inkscape.org/namespaces/inkscape"
   xmlns:sodipodi="http://sodipodi.sourceforge.net/DTD/sodipodi-0.dtd"
   xmlns="http://www.w3.org/2000/svg"
   xmlns:svg="http://www.w3.org/2000/svg"
   xmlns:rdf="http://www.w3.org/1999/02/22-rdf-syntax-ns#"
   xmlns:cc="http://creativecommons.org/ns#"
   xmlns:dc="http://purl.org/dc/elements/1.1/">
  <sodipodi:namedview
     id="namedview189"
     pagecolor="#ffffff"
     bordercolor="#666666"
     borderopacity="1.0"
     inkscape:showpageshadow="2"
     inkscape:pageopacity="0.0"
     inkscape:pagecheckerboard="0"
     inkscape:deskcolor="#d1d1d1"
     showgrid="false"
     inkscape:zoom="0.71113256"
     inkscape:cx="397.25364"
     inkscape:cy="305.14705"
     inkscape:window-width="1920"
     inkscape:window-height="1009"
     inkscape:window-x="0"
     inkscape:window-y="34"
     inkscape:window-maximized="1"
     inkscape:current-layer="svg187" />
  <defs
     id="defs9">
    <linearGradient
       id="fb6415c1-f574-4dab-bb02-7ceb0a7d0718-179"
       x1="596"
       y1="757.78003"
       x2="596"
       y2="598.14001"
       gradientUnits="userSpaceOnUse"
       gradientTransform="matrix(0.66920268,0,0,0.66920268,-3.9355958,-8.4078256)">
      <stop
         offset="0"
         stop-color="gray"
         stop-opacity="0.25"
         id="stop2" />
      <stop
         offset="0.54"
         stop-color="gray"
         stop-opacity="0.12"
         id="stop4" />
      <stop
         offset="1"
         stop-color="gray"
         stop-opacity="0.1"
         id="stop6" />
    </linearGradient>
  </defs>
  <title
     id="title11">discount</title>
  <g
     opacity="0.1"
     id="g25"
     transform="matrix(0.66920267,0,0,0.66920267,15.136681,70.651776)">
    <ellipse
       cx="840.37"
       cy="625.03003"
       rx="22.09"
       ry="28.91"
       fill="#3f3d56"
       id="ellipse13" />
    <path
       d="M 886.35,619.49 A 34.83,34.83 0 0 0 891,601.82 c 0,-16 -9.89,-28.91 -22.09,-28.91 -12.2,0 -22.08,12.94 -22.08,28.91 a 34.83,34.83 0 0 0 4.61,17.67 36.15,36.15 0 0 0 0,35.33 36.17,36.17 0 0 0 0,35.34 34.83,34.83 0 0 0 -4.61,17.67 c 0,16 9.89,28.91 22.08,28.91 12.19,0 22.09,-12.94 22.09,-28.91 a 34.83,34.83 0 0 0 -4.61,-17.67 36.17,36.17 0 0 0 0,-35.34 36.15,36.15 0 0 0 0,-35.33 z"
       transform="translate(-28.5,-118.14)"
       fill="#3f3d56"
       id="path15" />
    <ellipse
       cx="840.37"
       cy="448.35001"
       rx="22.09"
       ry="28.91"
       fill="#3f3d56"
       id="ellipse17" />
    <ellipse
       cx="840.37"
       cy="413.01001"
       rx="22.09"
       ry="28.91"
       fill="#3f3d56"
       id="ellipse19" />
    <path
       d="m 951.55,289.33 a 106.47,106.47 0 0 0 8.22,-12.11 l -58,-9.53 62.77,0.47 a 106,106 0 0 0 2,-83.82 L 882.32,228 960,170.94 a 105.8,105.8 0 1 0 -174.75,118.39 106,106 0 0 0 -12.06,19.29 l 75.33,39.14 -80.32,-27 a 105.8,105.8 0 0 0 17,99.34 105.79,105.79 0 1 0 166.3,0 105.79,105.79 0 0 0 0,-130.81 z"
       transform="translate(-28.5,-118.14)"
       fill="#7b2cbf"
       id="path21" />
    <path
       d="m 762.61,354.74 a 105.31,105.31 0 0 0 22.64,65.4 105.79,105.79 0 1 0 166.3,0 c 14.18,-18 -188.94,-77.28 -188.94,-65.4 z"
       transform="translate(-28.5,-118.14)"
       opacity="0.1"
       id="path23" />
  </g>
  <g
     opacity="0.1"
     id="g39"
     transform="matrix(0.66920267,0,0,0.66920267,15.136681,70.651776)">
    <ellipse
       cx="220.81"
       cy="605.41998"
       rx="13.44"
       ry="17.6"
       fill="#3f3d56"
       id="ellipse27" />
    <path
       d="m 260,648.27 a 21.23,21.23 0 0 0 2.81,-10.76 c 0,-9.72 -6,-17.6 -13.45,-17.6 -7.45,0 -13.44,7.88 -13.44,17.6 a 21.23,21.23 0 0 0 2.8,10.76 22.06,22.06 0 0 0 0,21.51 22.06,22.06 0 0 0 0,21.51 21.16,21.16 0 0 0 -2.8,10.75 c 0,9.73 6,17.61 13.44,17.61 7.44,0 13.45,-7.88 13.45,-17.61 a 21.16,21.16 0 0 0 -2.81,-10.75 22,22 0 0 0 0,-21.51 22,22 0 0 0 0,-21.51 z"
       transform="translate(-28.5,-118.14)"
       fill="#3f3d56"
       id="path29" />
    <ellipse
       cx="220.81"
       cy="497.85999"
       rx="13.44"
       ry="17.6"
       fill="#3f3d56"
       id="ellipse31" />
    <ellipse
       cx="220.81"
       cy="476.35001"
       rx="13.44"
       ry="17.6"
       fill="#3f3d56"
       id="ellipse33" />
    <path
       d="m 199,447.27 a 64.1,64.1 0 0 1 -5,-7.37 l 35.33,-5.8 -38.21,0.29 a 64.57,64.57 0 0 1 -1.23,-51 L 241.12,410 193.85,375.2 a 64.4,64.4 0 1 1 106.37,72.07 64.33,64.33 0 0 1 7.34,11.73 l -45.86,23.84 48.9,-16.41 a 64.44,64.44 0 0 1 -10.38,60.48 64.4,64.4 0 1 1 -101.24,0 64.42,64.42 0 0 1 0,-79.64 z"
       transform="translate(-28.5,-118.14)"
       fill="#7b2cbf"
       id="path35" />
    <path
       d="m 314,487.09 a 64.15,64.15 0 0 1 -13.78,39.82 64.4,64.4 0 1 1 -101.24,0 C 190.35,516 314,479.86 314,487.09 Z"
       transform="translate(-28.5,-118.14)"
       opacity="0.1"
       id="path37" />
  </g>
  <g
     opacity="0.1"
     id="g53"
     transform="matrix(0.66920267,0,0,0.66920267,15.136681,70.651776)">
    <ellipse
       cx="523.81"
       cy="614.78998"
       rx="17.99"
       ry="23.549999"
       fill="#3f3d56"
       id="ellipse41" />
    <path
       d="m 566.55,632.17 a 28.41,28.41 0 0 0 3.75,-14.4 c 0,-13 -8,-23.55 -18,-23.55 -10,0 -18,10.55 -18,23.55 a 28.32,28.32 0 0 0 3.76,14.4 29.44,29.44 0 0 0 0,28.79 29.42,29.42 0 0 0 0,28.78 28.32,28.32 0 0 0 -3.76,14.4 c 0,13 8.06,23.55 18,23.55 9.94,0 18,-10.55 18,-23.55 a 28.41,28.41 0 0 0 -3.75,-14.4 29.48,29.48 0 0 0 0,-28.78 29.5,29.5 0 0 0 0,-28.79 z"
       transform="translate(-28.5,-118.14)"
       fill="#3f3d56"
       id="path43" />
    <ellipse
       cx="523.81"
       cy="470.85001"
       rx="17.99"
       ry="23.549999"
       fill="#3f3d56"
       id="ellipse45" />
    <ellipse
       cx="523.81"
       cy="442.06"
       rx="17.99"
       ry="23.549999"
       fill="#3f3d56"
       id="ellipse47" />
    <path
       d="m 485,363.2 a 85.91,85.91 0 0 1 -6.7,-9.86 l 47.27,-7.76 -51.12,0.38 a 86.35,86.35 0 0 1 -1.65,-68.29 l 68.6,35.58 -63.27,-46.5 a 86.19,86.19 0 1 1 142.31,96.45 86.33,86.33 0 0 1 9.82,15.72 l -61.36,31.88 65.43,-22 a 86.22,86.22 0 0 1 -13.89,80.93 86.18,86.18 0 1 1 -135.48,0 86.21,86.21 0 0 1 0,-106.57 z"
       transform="translate(-28.5,-118.14)"
       fill="#7b2cbf"
       id="path49" />
    <path
       d="m 638.88,416.49 a 85.81,85.81 0 0 1 -18.44,53.28 86.18,86.18 0 1 1 -135.48,0 c -11.55,-14.66 153.92,-62.96 153.92,-53.28 z"
       transform="translate(-28.5,-118.14)"
       opacity="0.1"
       id="path51" />
  </g>
  <path
     d="m 780.03533,496.41191 c 0,4.59741 -33.60734,8.8 -89.17124,12.04563 -10.10497,0.58221 -20.93267,1.13765 -32.41618,1.65963 q -14.88307,0.6692 -31.19824,1.26479 -15.80657,0.56213 -32.82438,1.04396 c -35.82911,1.02388 -75.43923,1.76 -117.51869,2.12806 q -15.31805,0.14053 -31.04431,0.21415 -16.38207,0.0736 -33.13892,0.067 c -202.86209,0 -367.30527,-8.23789 -367.30527,-18.40308 0,-10.16519 164.44318,-18.40307 367.30527,-18.40307 87.33765,0 167.54158,1.53248 230.58048,4.07544 l 6.89278,0.28106 h 0.0402 c 79.40759,3.36609 129.79855,8.43196 129.79855,14.0265 z"
     fill="#3f3d56"
     id="path55"
     style="stroke-width:0.669202" />
  <path
     d="m 780.03533,496.41191 c 0,4.59741 -33.60734,8.8 -89.17124,12.04563 -10.10497,0.58221 -20.93267,1.13765 -32.41618,1.65963 q -14.88307,0.6692 -31.19824,1.26479 -15.80657,0.56213 -32.82438,1.04396 c -35.82911,1.02388 -75.43923,1.76 -117.51869,2.12806 q -15.31805,0.14053 -31.04431,0.21415 -16.38207,0.0736 -33.13892,0.067 c -202.86209,0 -367.30527,-8.23789 -367.30527,-18.40308 0,-10.16519 164.44318,-18.40307 367.30527,-18.40307 87.33765,0 167.54158,1.53248 230.58048,4.07544 l 6.89278,0.28106 h 0.0402 c 79.40759,3.36609 129.79855,8.43196 129.79855,14.0265 z"
     opacity="0.15"
     id="path57"
     style="stroke-width:0.669202" />
  <path
     d="m 749.75392,493.17295 c 0,3.84123 -33.60736,7.36124 -89.17126,10.03805 -10.09828,0.48851 -20.93266,0.95026 -32.40949,1.38526 q -14.88975,0.56211 -31.19822,1.05733 -15.80657,0.46844 -32.8244,0.87665 c -35.8358,0.85658 -75.44591,1.47225 -117.52537,1.78008 q -15.30467,0.11377 -31.04431,0.174 -16.38208,0.0602 -33.13222,0.0602 c -202.8621,0 -367.311969,-6.8861 -367.311969,-15.39166 0,-8.50557 164.449869,-15.39166 367.311969,-15.39166 87.33095,0 167.53488,1.27817 230.57377,3.40623 l 6.8928,0.23423 h 0.0468 c 79.43437,2.85749 129.79188,7.06679 129.79188,11.77126 z"
     fill="#3f3d56"
     id="path59"
     style="stroke-width:0.669202" />
  <path
     d="m 110.00286,353.35645 -9.22162,-28.23367 220.83688,-2.41582 9.04762,27.9526 z"
     fill="#3f3d56"
     id="path61"
     style="stroke-width:0.669202" />
  <path
     d="m 110.00286,353.35645 -9.22162,-28.23367 220.83688,-2.41582 9.04762,27.9526 z"
     opacity="0.15"
     id="path63"
     style="stroke-width:0.669202" />
  <path
     d="m 95.280389,353.35645 -9.221616,-28.23367 220.836887,-2.41582 9.04762,27.9526 z"
     fill="#3f3d56"
     id="path65"
     style="stroke-width:0.669202" />
  <path
     d="m 472.27572,309.97203 q -34.24978,0 -53.98458,-27.1897 -19.73479,-27.1897 -19.73479,-65.87631 0,-38.94759 19.08566,-65.74247 19.08566,-26.79487 53.84405,-26.76811 36.85969,0 55.54383,28.23365 18.68413,28.23368 18.69082,65.35434 0,36.853 -19.33994,64.43084 -19.33997,27.57783 -54.10505,27.55776 z m 0.66921,-20.3906 q 22.53204,0 33.68096,-19.6411 11.14892,-19.6411 11.14892,-49.521 0,-33.25937 -11.40991,-54.4664 -11.4099,-21.20704 -34.99929,-21.21372 -44.83659,0 -44.83659,71.22993 0,73.61898 46.40252,73.61229 z m 7.52183,195.26665 h -33.02515 l 216.206,-356.81886 h 32.40279 z m 191.27151,3.66053 q -34.76507,0 -54.20542,-27.43731 -19.44034,-27.43731 -19.52065,-65.88299 0,-38.68662 18.95183,-65.48149 18.95182,-26.79488 53.97788,-26.7681 36.59871,0 55.1557,28.23365 18.55698,28.23367 18.56367,65.34765 0,36.61208 -19.21281,64.31038 -19.21281,27.69829 -53.72359,27.67821 z m 0.38814,-20.91258 q 22.42497,0 33.50028,-19.30649 11.0753,-19.3065 11.0753,-49.32025 0,-32.12172 -11.20914,-53.87751 -11.20914,-21.75577 -34.92569,-21.78923 -45.09756,0 -45.09756,71.22993 -0.0134,73.07025 46.64342,73.06355 z"
     fill="#3f3d56"
     id="path67"
     style="stroke-width:0.669202" />
  <path
     d="m 472.27572,309.97203 q -34.24978,0 -53.98458,-27.1897 -19.73479,-27.1897 -19.73479,-65.87631 0,-38.94759 19.08566,-65.74247 19.08566,-26.79487 53.84405,-26.76811 36.85969,0 55.54383,28.23365 18.68413,28.23368 18.69082,65.35434 0,36.853 -19.33994,64.43084 -19.33997,27.57783 -54.10505,27.55776 z m 0.66921,-20.3906 q 22.53204,0 33.68096,-19.6411 11.14892,-19.6411 11.14892,-49.521 0,-33.25937 -11.40991,-54.4664 -11.4099,-21.20704 -34.99929,-21.21372 -44.83659,0 -44.83659,71.22993 0,73.61898 46.40252,73.61229 z m 7.52183,195.26665 h -33.02515 l 216.206,-356.81886 h 32.40279 z m 191.27151,3.66053 q -34.76507,0 -54.20542,-27.43731 -19.44034,-27.43731 -19.52065,-65.88299 0,-38.68662 18.95183,-65.48149 18.95182,-26.79488 53.97788,-26.7681 36.59871,0 55.1557,28.23365 18.55698,28.23367 18.56367,65.34765 0,36.61208 -19.21281,64.31038 -19.21281,27.69829 -53.72359,27.67821 z m 0.38814,-20.91258 q 22.42497,0 33.50028,-19.30649 11.0753,-19.3065 11.0753,-49.32025 0,-32.12172 -11.20914,-53.87751 -11.20914,-21.75577 -34.92569,-21.78923 -45.09756,0 -45.09756,71.22993 -0.0134,73.07025 46.64342,73.06355 z"
     fill="#3f3d56"
     id="path69"
     style="stroke-width:0.669202" />
  <path
     d="m 472.27572,309.97203 q -34.24978,0 -53.98458,-27.1897 -19.73479,-27.1897 -19.73479,-65.87631 0,-38.94759 19.08566,-65.74247 19.08566,-26.79487 53.84405,-26.76811 36.85969,0 55.54383,28.23365 18.68413,28.23368 18.69082,65.35434 0,36.853 -19.33994,64.43084 -19.33997,27.57783 -54.10505,27.55776 z m 0.66921,-20.3906 q 22.53204,0 33.68096,-19.6411 11.14892,-19.6411 11.14892,-49.521 0,-33.25937 -11.40991,-54.4664 -11.4099,-21.20704 -34.99929,-21.21372 -44.83659,0 -44.83659,71.22993 0,73.61898 46.40252,73.61229 z m 7.52183,195.26665 h -33.02515 l 216.206,-356.81886 h 32.40279 z m 191.27151,3.66053 q -34.76507,0 -54.20542,-27.43731 -19.44034,-27.43731 -19.52065,-65.88299 0,-38.68662 18.95183,-65.48149 18.95182,-26.79488 53.97788,-26.7681 36.59871,0 55.1557,28.23365 18.55698,28.23367 18.56367,65.34765 0,36.61208 -19.21281,64.31038 -19.21281,27.69829 -53.72359,27.67821 z m 0.38814,-20.91258 q 22.42497,0 33.50028,-19.30649 11.0753,-19.3065 11.0753,-49.32025 0,-32.12172 -11.20914,-53.87751 -11.20914,-21.75577 -34.92569,-21.78923 -45.09756,0 -45.09756,71.22993 -0.0134,73.07025 46.64342,73.06355 z"
     opacity="0.15"
     id="path71"
     style="stroke-width:0.669202" />
  <path
     d="m 451.53044,309.97203 q -34.2498,0 -53.98459,-27.1897 -19.73477,-27.1897 -19.73477,-65.87631 0,-38.94759 19.08565,-65.74247 19.08566,-26.79487 53.84405,-26.76811 36.85968,0 55.54382,28.23365 18.68414,28.23368 18.69083,65.35434 0,36.853 -19.33996,64.43084 -19.33996,27.57783 -54.10503,27.55776 z m 0.66919,-20.3906 q 22.53207,0 33.68099,-19.6411 11.14891,-19.6411 11.14891,-49.521 0,-33.25937 -11.4099,-54.4664 -11.40991,-21.20704 -34.99931,-21.21372 -44.83658,0 -44.83658,71.22993 0,73.61898 46.40251,73.61229 z m 7.52184,195.26665 h -33.02515 l 216.206,-356.81886 h 32.4028 z m 191.27151,3.66053 q -34.76507,0 -54.2054,-27.43731 -19.44035,-27.43731 -19.52065,-65.88299 0,-38.68662 18.95182,-65.48149 18.95182,-26.79488 53.97788,-26.7681 36.5987,0 55.15568,28.23365 18.557,28.23367 18.56369,65.34765 0,36.61208 -19.21281,64.31038 -19.2128,27.69829 -53.72358,27.67821 z m 0.38814,-20.91258 q 22.42498,0 33.50028,-19.30649 11.07531,-19.3065 11.07531,-49.32025 0,-32.12172 -11.20915,-53.87751 -11.20913,-21.75577 -34.93907,-21.78923 -45.09757,0 -45.09757,71.22993 0,73.07025 46.65682,73.06355 z"
     fill="#3f3d56"
     id="path73"
     style="stroke-width:0.669202" />
  <path
     d="m 523.77755,493.80201 c 2.75712,-5.11271 -0.37475,-11.37645 -3.97506,-15.94041 -3.6003,-4.56396 -7.99027,-9.30191 -7.89659,-15.11729 0.13384,-8.34496 8.99409,-13.27698 16.06086,-17.7071 a 78.350249,78.350249 0 0 0 14.4414,-11.60398 21.200341,21.200341 0 0 0 4.43682,-5.94251 c 1.46554,-3.26572 1.4187,-6.97979 1.3384,-10.55333 q -0.46174,-17.8811 -1.7667,-35.70865"
     fill="none"
     stroke="#3f3d56"
     stroke-miterlimit="10"
     stroke-width="2.67681"
     id="path75" />
  <path
     d="m 559.88105,380.57292 a 13.002608,13.002608 0 0 0 -6.49796,-10.66709 l -2.91772,5.76853 0.087,-6.98649 a 13.1766,13.1766 0 0 0 -4.2896,-0.51528 13.022685,13.022685 0 1 0 13.61828,12.40033 z"
     fill="#7b2cbf"
     id="path77"
     style="stroke-width:0.669202" />
  <path
     d="m 536.6597,468.73367 a 13.015992,13.015992 0 1 1 0.62906,-10.4864 l -8.13751,6.61842 8.96732,-2.08793 a 12.982532,12.982532 0 0 1 -1.45887,5.95591 z"
     fill="#7b2cbf"
     id="path79"
     style="stroke-width:0.669202" />
  <path
     d="m 530.22867,443.43113 a 13.022685,13.022685 0 0 1 -13.61827,-12.40033 12.87546,12.87546 0 0 1 1.12426,-5.93582 13.042761,13.042761 0 0 1 8.33826,-7.2207 l -0.0735,5.35361 2.95119,-5.83544 v 0 a 13.023546,13.023546 0 1 1 1.21795,26.01859 z"
     fill="#7b2cbf"
     id="path81"
     style="stroke-width:0.669202" />
  <path
     d="m 561.8418,422.39808 a 13.029376,13.029376 0 1 1 -1.21794,-26.02528 12.902227,12.902227 0 0 1 6.97309,1.65292 l -2.30205,6.3039 4.73795,-4.54389 a 12.982532,12.982532 0 0 1 4.22266,8.98738 12.714851,12.714851 0 0 1 -0.33459,3.58694 13.029376,13.029376 0 0 1 -12.07912,10.03803 z"
     fill="#7b2cbf"
     id="path83"
     style="stroke-width:0.669202" />
  <path
     d="m 558.12773,384.04608 c -3.00472,0.32791 -5.92244,1.26479 -8.94055,1.45216 -3.0181,0.18738 -6.33065,-0.53536 -8.23789,-2.88425 -1.03056,-1.2581 -1.53915,-2.8575 -2.40911,-4.23606 a 9.2283049,9.2283049 0 0 0 -3.2791,-3.08502 13.022685,13.022685 0 1 0 24.34559,8.6394 c -0.49522,0.0268 -0.98373,0.0602 -1.47894,0.11377 z"
     opacity="0.1"
     id="path85"
     style="stroke-width:0.669202" />
  <path
     d="m 561.8418,422.39808 a 13.036068,13.036068 0 0 1 -12.38693,-18.57707 9.756975,9.756975 0 0 1 2.61658,2.62328 c 0.93019,1.39864 1.49232,3.0181 2.58313,4.30297 2.0076,2.38907 5.49415,3.16533 8.6327,3.0248 3.13856,-0.14053 6.17674,-1.03726 9.30861,-1.33841 0.43498,-0.0401 0.87666,-0.067 1.33841,-0.0803 a 13.029376,13.029376 0 0 1 -12.0925,10.04473 z"
     opacity="0.1"
     id="path87"
     style="stroke-width:0.669202" />
  <path
     d="m 530.22867,443.43113 a 13.022685,13.022685 0 0 1 -13.61827,-12.40033 12.87546,12.87546 0 0 1 1.12426,-5.93582 10.479714,10.479714 0 0 1 2.75042,2.67679 c 1.0105,1.42541 1.64623,3.07165 2.83072,4.38998 2.19499,2.44258 5.88899,3.30586 9.21493,3.22556 3.32594,-0.0803 6.33066,-0.85658 9.53614,-1.10419 a 13.029376,13.029376 0 0 1 -11.8382,9.14801 z"
     opacity="0.1"
     id="path89"
     style="stroke-width:0.669202" />
  <path
     d="m 536.6597,468.73367 a 13.022685,13.022685 0 0 1 -23.7433,-10.62693 13.116373,13.116373 0 0 1 2.8575,2.54966 c 1.23803,1.51239 2.05444,3.22556 3.48653,4.63088 2.67682,2.60989 6.95971,3.68732 10.78756,3.7877 a 55.443442,55.443442 0 0 0 6.61171,-0.34131 z"
     opacity="0.1"
     id="path91"
     style="stroke-width:0.669202" />
  <path
     d="m 725.20756,493.13281 c 2.75712,-5.11271 -0.37475,-11.37645 -3.97506,-15.9404 -3.60031,-4.56397 -7.99029,-9.30194 -7.8966,-15.1173 0.13384,-8.34495 8.99409,-13.27698 16.06087,-17.70711 a 78.350249,78.350249 0 0 0 14.44139,-11.60396 21.200341,21.200341 0 0 0 4.43683,-5.94253 c 1.46554,-3.26571 1.4187,-6.97978 1.33839,-10.55333 q -0.46175,-17.88109 -1.7667,-35.70866"
     fill="none"
     stroke="#3f3d56"
     stroke-miterlimit="10"
     stroke-width="2.67681"
     id="path93" />
  <path
     d="m 761.31104,379.90371 a 13.002608,13.002608 0 0 0 -6.49796,-10.66709 l -2.91772,5.76853 0.0871,-6.98647 a 13.1766,13.1766 0 0 0 -4.28959,-0.51529 13.022685,13.022685 0 1 0 13.61828,12.40032 z"
     fill="#7b2cbf"
     id="path95"
     style="stroke-width:0.669202" />
  <path
     d="m 738.08971,468.06448 a 13.015992,13.015992 0 1 1 0.62906,-10.48641 l -8.13751,6.61841 8.96731,-2.08791 a 12.982532,12.982532 0 0 1 -1.45886,5.95591 z"
     fill="#7b2cbf"
     id="path97"
     style="stroke-width:0.669202" />
  <path
     d="m 731.65868,442.76192 a 13.022685,13.022685 0 0 1 -13.61828,-12.40033 12.87546,12.87546 0 0 1 1.12426,-5.93583 13.042761,13.042761 0 0 1 8.33827,-7.22069 l -0.0735,5.35362 2.95117,-5.83545 h 0.0335 a 13.023551,13.023551 0 1 1 1.21796,26.01861 z"
     fill="#7b2cbf"
     id="path99"
     style="stroke-width:0.669202" />
  <path
     d="m 763.2718,421.72889 a 13.029376,13.029376 0 1 1 -1.21794,-26.02531 12.902227,12.902227 0 0 1 6.9731,1.65294 l -2.30207,6.30388 4.73797,-4.54387 a 12.982532,12.982532 0 0 1 4.22266,8.98739 12.714851,12.714851 0 0 1 -0.3346,3.58691 13.029376,13.029376 0 0 1 -12.07912,10.03806 z"
     fill="#7b2cbf"
     id="path101"
     style="stroke-width:0.669202" />
  <path
     d="m 759.55774,383.37688 c -3.00472,0.3279 -5.92244,1.26479 -8.94055,1.45217 -3.0181,0.18737 -6.33067,-0.53537 -8.23789,-2.88428 -1.03057,-1.25809 -1.53916,-2.85748 -2.40912,-4.23604 a 9.2283049,9.2283049 0 0 0 -3.2791,-3.08503 13.022685,13.022685 0 1 0 24.34559,8.63942 c -0.49521,0.0267 -0.98372,0.0602 -1.47893,0.11376 z"
     opacity="0.1"
     id="path103"
     style="stroke-width:0.669202" />
  <path
     d="m 763.2718,421.72889 a 13.036068,13.036068 0 0 1 -12.38694,-18.57708 9.756975,9.756975 0 0 1 2.6166,2.62328 c 0.93018,1.39864 1.49231,3.01811 2.58311,4.30297 2.00761,2.38905 5.49416,3.16533 8.63272,3.0248 3.13857,-0.14054 6.17673,-1.03727 9.30861,-1.3384 0.43498,-0.0401 0.87665,-0.067 1.3384,-0.0803 a 13.029376,13.029376 0 0 1 -12.0925,10.04474 z"
     opacity="0.1"
     id="path105"
     style="stroke-width:0.669202" />
  <path
     d="m 731.65868,442.76192 a 13.022685,13.022685 0 0 1 -13.61828,-12.40033 12.87546,12.87546 0 0 1 1.12426,-5.93583 10.479714,10.479714 0 0 1 2.75042,2.67682 c 1.0105,1.4254 1.64625,3.07163 2.83073,4.38997 2.19499,2.44259 5.88899,3.30587 9.21492,3.22555 3.22557,-0.0669 6.33066,-0.85658 9.53614,-1.10418 a 13.029376,13.029376 0 0 1 -11.83819,9.148 z"
     opacity="0.1"
     id="path107"
     style="stroke-width:0.669202" />
  <path
     d="m 738.08971,468.06448 a 13.022685,13.022685 0 0 1 -23.74331,-10.62694 13.116373,13.116373 0 0 1 2.8575,2.54966 c 1.23803,1.5124 2.05444,3.22556 3.48654,4.63088 2.67681,2.6099 6.95971,3.6873 10.78755,3.78768 a 55.443442,55.443442 0 0 0 6.61172,-0.34128 z"
     opacity="0.1"
     id="path109"
     style="stroke-width:0.669202" />
  <path
     d="m 88.702133,484.43317 c -2.757115,-5.1127 0.374743,-11.37645 3.975063,-15.94041 3.600309,-4.56396 7.990284,-9.30191 7.896594,-15.11729 -0.13385,-8.34496 -8.994088,-13.27698 -16.060875,-17.7071 a 78.350249,78.350249 0 0 1 -14.441393,-11.60398 21.200341,21.200341 0 0 1 -4.43681,-5.94251 c -1.465548,-3.26571 -1.418707,-6.97979 -1.338409,-10.55333 q 0.46175,-17.88109 1.766703,-35.70865"
     fill="none"
     stroke="#3f3d56"
     stroke-miterlimit="10"
     stroke-width="2.67681"
     id="path111" />
  <path
     d="m 52.598641,371.20409 a 13.002608,13.002608 0 0 1 6.497958,-10.6671 l 2.917724,5.76852 -0.08704,-6.98648 a 13.1766,13.1766 0 0 1 4.289588,-0.51528 13.022685,13.022685 0 1 1 -13.618273,12.40034 z"
     fill="#7b2cbf"
     id="path113"
     style="stroke-width:0.669202" />
  <path
     d="m 75.819973,459.36483 a 13.015992,13.015992 0 1 0 -0.629045,-10.4864 l 8.137498,6.61842 -8.967315,-2.08791 a 12.982532,12.982532 0 0 0 1.458862,5.95589 z"
     fill="#7b2cbf"
     id="path115"
     style="stroke-width:0.669202" />
  <path
     d="m 82.251017,434.06229 a 13.022685,13.022685 0 0 0 13.61827,-12.40033 12.87546,12.87546 0 0 0 -1.124253,-5.93582 13.042761,13.042761 0 0 0 -8.338266,-7.22071 l 0.07367,5.35363 -2.951191,-5.83545 v 0 a 13.023546,13.023546 0 1 0 -1.217945,26.01859 z"
     fill="#7b2cbf"
     id="path117"
     style="stroke-width:0.669202" />
  <path
     d="m 50.637876,413.02924 a 13.029376,13.029376 0 1 0 1.217956,-26.02528 12.902227,12.902227 0 0 0 -6.939637,1.65293 l 2.302065,6.30388 -4.771423,-4.5238 a 12.982532,12.982532 0 0 0 -4.222663,8.96731 12.714851,12.714851 0 0 0 0.3346,3.58693 13.029376,13.029376 0 0 0 12.079102,10.03803 z"
     fill="#7b2cbf"
     id="path119"
     style="stroke-width:0.669202" />
  <path
     d="m 54.351959,374.67724 c 3.00472,0.32791 5.922442,1.26479 8.940546,1.45217 3.018104,0.18738 6.330652,-0.53535 8.237879,-2.88426 1.030579,-1.2581 1.53917,-2.8575 2.409132,-4.23605 a 9.2283049,9.2283049 0 0 1 3.279092,-3.08503 13.022685,13.022685 0 1 1 -24.345593,8.6394 c 0.495218,0.0267 0.983727,0.0602 1.478944,0.11377 z"
     opacity="0.1"
     id="path121"
     style="stroke-width:0.669202" />
  <path
     d="m 50.637876,413.02924 a 13.036068,13.036068 0 0 0 12.386943,-18.57706 9.756975,9.756975 0 0 0 -2.616581,2.62327 c -0.930186,1.39863 -1.492318,3.0181 -2.583123,4.30297 -2.007608,2.38907 -5.494148,3.16534 -8.632716,3.02481 -3.138557,-0.14053 -6.176732,-1.03727 -9.308601,-1.33841 -0.434982,-0.0401 -0.876659,-0.0669 -1.338409,-0.0803 a 13.029376,13.029376 0 0 0 12.092487,10.04473 z"
     opacity="0.1"
     id="path123"
     style="stroke-width:0.669202" />
  <path
     d="m 82.251017,434.06229 a 13.022685,13.022685 0 0 0 13.61827,-12.40033 12.87546,12.87546 0 0 0 -1.124253,-5.93582 10.479714,10.479714 0 0 0 -2.750422,2.6768 c -1.010498,1.42541 -1.64624,3.07164 -2.830739,4.38997 -2.194985,2.44259 -5.888975,3.30586 -9.214919,3.22557 -3.225553,-0.0669 -6.330653,-0.85659 -9.536134,-1.10419 a 13.029376,13.029376 0 0 0 11.838197,9.148 z"
     opacity="0.1"
     id="path125"
     style="stroke-width:0.669202" />
  <path
     d="m 75.819973,459.36483 a 13.022685,13.022685 0 0 0 23.743324,-10.62693 13.116373,13.116373 0 0 0 -2.857499,2.54967 c -1.238028,1.51238 -2.054455,3.22554 -3.486555,4.63087 -2.676808,2.60989 -6.959709,3.68732 -10.787547,3.7877 a 55.443442,55.443442 0 0 1 -6.611723,-0.34131 z"
     opacity="0.1"
     id="path127"
     style="stroke-width:0.669202" />
  <path
     d="m 465.84468,421.72218 a 10.392717,10.392717 0 0 0 -4.13567,-8.37841 c -0.1606,-6.13659 -4.53719,-11.14891 -10.16519,-11.92519 a 12.132644,12.132644 0 0 0 -8.08397,-9.04763 v 0 a 10.265569,10.265569 0 0 0 -1.5057,-0.35467 h -0.14724 l -0.26098,-0.0335 h -0.22083 -0.22084 -0.28776 -0.17399 -0.47513 c -5.74176,0 -10.51988,4.38997 -11.5036,10.17856 -3.71408,-0.85658 -7.12031,0.25431 -7.72928,2.6032 a 3.1787127,3.1787127 0 0 0 0.10037,1.88046 c 0.62904,1.82023 2.67681,3.56017 5.454,4.42343 l 0.36137,0.1071 c 0.18067,0.0535 0.36136,0.0938 0.54204,0.13384 h 0.12047 v 0 a 9.3688374,9.3688374 0 0 0 4.08882,12.2531 2.1213724,2.1213724 0 0 0 -0.24091,0.15392 3.3460134,3.3460134 0 0 0 -0.80304,1.12426 16.301777,16.301777 0 0 0 -1.55255,3.74084 c -0.26769,1.11757 -0.31453,2.28868 -0.6692,3.39286 -0.60898,2.0076 -2.17491,3.76761 -2.3556,5.90236 -0.0802,0.95028 0.0736,2.06784 -0.60227,2.71697 a 4.4167377,4.4167377 0 0 1 -0.53537,0.39483 4.1356725,4.1356725 0 0 0 -1.1778,1.23133 3.9349117,3.9349117 0 0 1 -0.78296,1.08411 c -0.60898,0.46175 -1.61278,0.41491 -1.91393,1.12426 -0.30114,0.70936 0.47513,1.54587 0.29446,2.32212 -0.14724,0.62906 -0.83651,0.91682 -1.33841,1.33841 a 4.744647,4.744647 0 0 0 -1.13765,2.16153 6.9195556,6.9195556 0 0 1 -5.7083,-1.45217 10.707243,10.707243 0 0 1 0.58891,2.13476 c -0.79635,-0.84989 -2.108,-1.0975 -3.07835,-1.53916 a 9.8305873,9.8305873 0 0 1 -3.27909,-2.4359 l 1.75332,-0.24092 -7.76276,-11.77797 -2.28866,-0.46843 2.05444,3.9416 a 1.2313329,1.2313329 0 0 0 -0.66919,0.84319 3.5869263,3.5869263 0 0 0 -0.0803,1.33841 24.760499,24.760499 0 0 0 0.52867,3.13855 l 0.59559,2.7705 a 7.1872368,7.1872368 0 0 0 0.19407,0.7696 7.8029031,7.8029031 0 0 0 -2.30205,0.26098 20.223304,20.223304 0 0 0 -4.77142,-1.13096 2.4358978,2.4358978 0 0 0 -1.07741,0.0535 2.6098905,2.6098905 0 0 0 -1.00382,0.81643 32.121729,32.121729 0 0 0 -3.54676,4.99225 c -4.16914,7.25416 -9.7369,13.58481 -14.94999,20.143 -3.60031,1.46556 -7.22739,2.85749 -10.86116,4.23606 l -7.8096,2.97794 c -1.55924,0.59559 -3.17871,1.20456 -4.83833,1.0975 -0.74951,-0.0468 -1.65963,-0.16061 -2.08122,0.47513 a 4.015216,4.015216 0 0 0 -0.47513,1.01718 c -0.27438,0 -0.54875,0.067 -0.80305,0.0803 h -0.0468 c -0.4952,-1.23133 -0.9235,-2.54967 -1.87376,-3.4464 a 1.1644126,1.1644126 0 0 0 -0.88335,0.66921 c -0.18738,0.34798 -0.30114,0.72943 -0.51529,1.05064 -0.42159,0.61567 -1.15102,0.91681 -1.67301,1.43879 -0.52197,0.52198 -0.84988,1.33841 -1.41201,1.847 a 5.6079184,5.6079184 0 0 1 -2.67681,1.03727 16.897367,16.897367 0 0 0 -4.15575,1.57931 7.1136245,7.1136245 0 0 1 -1.53917,0.70936 5.7952951,5.7952951 0 0 1 -1.80015,0.0602 l -4.13568,-0.30115 a 3.2188648,3.2188648 0 0 0 -1.10418,0.0468 2.0544522,2.0544522 0 0 0 -1.33841,2.12137 3.2991692,3.2991692 0 0 0 1.30494,2.27528 8.6996348,8.6996348 0 0 0 2.35561,1.22465 68.405897,68.405897 0 0 0 11.0753,3.24563 v 0.83651 a 18.784519,18.784519 0 0 0 8.43865,2.00761 1.2581011,1.2581011 0 0 0 0.62905,-0.11377 1.3986336,1.3986336 0 0 0 0.52866,-0.82982 34.129336,34.129336 0 0 0 1.65294,-8.10404 v 0 a 4.1691326,4.1691326 0 0 0 1.49232,-0.38144 c 1.4254,-0.38814 2.83742,0.5889 4.30297,0.74951 1.80684,0.19406 3.48656,-0.85659 5.19302,-1.50572 0.2476,-0.0938 0.4952,-0.17399 0.74281,-0.25428 a 8.3181892,8.3181892 0 0 1 -1.70646,1.65291 c -0.70936,0.5086 -1.50571,0.88336 -2.20169,1.41203 a 14.635463,14.635463 0 0 1 -1.85369,1.43879 11.175685,11.175685 0 0 1 -1.4254,0.54874 9.6632866,9.6632866 0 0 0 -2.00761,1.0105 4.1758246,4.1758246 0 0 0 -1.39194,1.3384 1.8269232,1.8269232 0 0 0 1.24471,2.85081 5.7417589,5.7417589 0 0 0 1.69309,0.0468 c 2.23513,-0.1673 4.46359,-0.37475 6.69203,-0.57551 a 18.737675,18.737675 0 0 0 2.80396,-0.40153 c 0.48852,-0.12044 0.97034,-0.28106 1.45886,-0.40821 a 11.804735,11.804735 0 0 1 2.54966,-0.38144 2.1146804,2.1146804 0 0 1 0.74281,0.0736 c 0.52198,0.16729 0.89005,0.6692 1.41871,0.80303 a 2.1882928,2.1882928 0 0 0 1.0105,-0.14052 23.21464,23.21464 0 0 1 4.96549,-0.52867 c 0.72943,-0.0402 1.58601,-0.18068 1.9273,-0.85658 0.4149,-0.8365 -0.28107,-1.77338 -0.55544,-2.67682 a 8.0705842,8.0705842 0 0 1 -0.22754,-1.7533 10.934771,10.934771 0 0 0 -1.23132,-4.16914 11.289449,11.289449 0 0 1 -0.9168,-1.90052 48.363278,48.363278 0 0 0 9.12791,-4.63089 c 1.64625,-1.02389 3.34603,-2.12808 5.2064,-2.50282 2.16822,-0.43499 4.40336,0.14052 6.53811,0.7562 a 147.03051,147.03051 0 0 1 14.98345,5.22647 c 2.34221,0.95696 4.68442,1.97416 7.08016,2.67681 a 11.021768,11.021768 0 0 0 2.50952,2.44929 c 1.60608,1.03726 3.56685,1.3384 5.454,1.48563 a 71.604686,71.604686 0 0 0 7.66906,0.28775 c 1.95407,-0.0334 3.96838,-0.1673 5.715,-1.05735 a 6.6184144,6.6184144 0 0 0 1.19787,-0.78965 c 1.3384,0.2409 2.71026,-0.47513 3.76091,-1.39195 a 9.1011563,9.1011563 0 0 0 2.87757,-4.51711 c 0.61568,-2.41582 0.14053,-5.23317 1.62616,-7.20732 0.39483,-0.52866 0.91012,-0.95695 1.29827,-1.49231 a 4.015216,4.015216 0 0 0 0.66919,-2.42921 l 0.0668,-0.10037 a 9.020852,9.020852 0 0 0 0.66921,-2.4359 13.939492,13.939492 0 0 1 0.66919,-1.92061 58.006488,58.006488 0 0 0 1.96747,-5.7083 31.33207,31.33207 0 0 0 0.91011,-3.91483 c 0.16061,-1.05735 0.25429,-2.12137 0.34129,-3.18541 a 19.212809,19.212809 0 0 1 0.96366,-4.89187 39.964784,39.964784 0 0 0 2.21507,-11.72444 c 0,-0.0803 0,-0.1539 0,-0.23421 a 7.8497473,7.8497473 0 0 0 6.99316,-7.92337 8.3918016,8.3918016 0 0 0 -0.72275,-3.41962 10.613554,10.613554 0 0 0 1.39195,-5.32016 z m -37.84342,45.98093 c 0.11377,0.40821 0.24762,0.81642 0.38146,1.22464 -0.61568,-0.60898 -1.22465,-1.23802 -1.847,-1.84031 0.2476,0.0736 0.4952,0.15392 0.73612,0.24092 a 4.4167377,4.4167377 0 0 1 0.73613,0.37475 z m -2.99801,-2.00761 c -3.65385,-3.17202 -7.88321,-5.63469 -11.62405,-8.69964 2.0076,1.0105 4.01521,2.1816 6.02282,3.30587 q 3.50662,2.0076 7.09355,3.84122 a 5.768527,5.768527 0 0 1 -1.47225,1.52578 z m 1.55923,-7.99028 0.174,-0.18068 c 0,0.44836 0,0.86995 0,1.2514 -0.32791,-0.10711 -0.66921,-0.21415 -0.98372,-0.33461 a 8.2981132,8.2981132 0 0 0 0.81641,-0.76288 z m -32.16856,8.59256 a 30.328265,30.328265 0 0 0 3.90144,-5.56108 c 1.44548,2.53628 3.80108,4.36321 5.80868,6.48458 -3.22556,-0.45505 -6.45781,-0.80974 -9.70344,-0.95027 z"
     fill="url(#fb6415c1-f574-4dab-bb02-7ceb0a7d0718-179)"
     id="path129"
     style="fill:url(#fb6415c1-f574-4dab-bb02-7ceb0a7d0718-179);stroke-width:0.669202" />
  <polygon
     points="574.53,545.12 577.98,545.82 589.73,563.18 584.54,563.88 "
     fill="#2f2e41"
     id="polygon131"
     transform="matrix(0.66920267,0,0,0.66920267,15.136681,70.651776)" />
  <path
     d="m 343.7018,482.59956 a 45.740003,45.740003 0 0 0 2.29537,6.02282 55.650895,55.650895 0 0 0 7.66906,-2.18829 20.892507,20.892507 0 0 0 -1.59269,-2.16153 7.515146,7.515146 0 0 0 -2.16822,-1.6663 c -0.79635,-0.34799 -1.78008,-0.0871 -2.62996,-0.0402 q -1.78678,0.0669 -3.57356,0.0335 z"
     fill="#fbbebe"
     id="path133"
     style="stroke-width:0.669202" />
  <path
     d="m 349.91871,485.70466 c -1.29826,-0.40822 -2.0946,-1.71985 -2.62328,-2.98464 -0.52866,-1.2648 -0.95696,-2.64336 -1.96077,-3.57355 a 1.1711047,1.1711047 0 0 0 -0.88334,0.6692 c -0.19407,0.33461 -0.30783,0.71605 -0.52867,1.03727 -0.41491,0.60228 -1.15103,0.89672 -1.6797,1.41201 -0.52867,0.51529 -0.85658,1.29825 -1.4254,1.81355 a 5.6681466,5.6681466 0 0 1 -2.67681,1.03057 16.964287,16.964287 0 0 0 -4.18922,1.55254 7.1604686,7.1604686 0 0 1 -1.55253,0.66921 5.8822915,5.8822915 0 0 1 -1.81355,0.0602 l -4.16914,-0.30114 a 3.2523251,3.2523251 0 0 0 -1.11087,0.0535 2.0076081,2.0076081 0 0 0 -1.3384,2.0879 3.238941,3.238941 0 0 0 1.3384,2.24183 8.8870115,8.8870115 0 0 0 2.36897,1.20456 71.424001,71.424001 0 0 0 11.17569,3.19211 v 0.82311 a 19.346649,19.346649 0 0 0 8.50556,2.00761 1.3384054,1.3384054 0 0 0 0.66921,-0.11377 1.3919416,1.3919416 0 0 0 0.53537,-0.81642 32.911387,32.911387 0 0 0 1.73323,-9.061 6.7990992,6.7990992 0 0 0 -0.174,-2.32883 c -0.22753,-0.74951 0.54875,-0.43498 -0.17398,-0.72944"
     fill="#2f2e41"
     id="path135"
     style="stroke-width:0.669202" />
  <path
     d="m 429.84826,469.99178 c -12.36016,0.74951 -24.56642,-2.87757 -36.94666,-3.26571 a 18.476686,18.476686 0 0 0 -4.59074,0.29444 22.558822,22.558822 0 0 0 -4.55057,1.76671 c -6.63181,3.08501 -13.49783,5.64137 -20.35715,8.19772 l -7.86982,2.93111 c -1.57933,0.58221 -3.20548,1.1778 -4.88519,1.07742 -0.7495,-0.0468 -1.66631,-0.16061 -2.09461,0.46844 -1.27816,1.89385 -0.66919,4.68442 0.174,6.81248 0.27437,0.66921 0.73612,1.4388 1.47224,1.51909 a 4.3431253,4.3431253 0 0 0 1.50572,-0.38144 c 1.43209,-0.38144 2.86419,0.58221 4.33643,0.73612 1.82692,0.19406 3.52001,-0.84319 5.23986,-1.47893 2.8508,-1.05065 5.96928,-1.01719 8.96731,-1.5191 5.0324,-0.8365 9.69006,-3.17202 14.05325,-5.83544 1.65963,-1.0105 3.34602,-2.09461 5.24655,-2.46267 2.1883,-0.42829 4.44351,0.13384 6.59166,0.74281 a 152.01608,152.01608 0 0 1 15.1039,5.14617 69.597078,69.597078 0 0 0 7.89659,2.87758 28.548186,28.548186 0 0 0 17.69372,-1.03058 c 2.0076,-0.78296 4.12229,-2.16152 4.23605,-4.29627 0.0669,-1.21797 -0.87666,-2.28869 -1.50571,-3.34603 -0.40821,-0.66919 -0.80974,-1.33841 -1.2514,-1.97414 -2.12807,-3.10511 -4.71119,-7.20731 -8.46543,-6.97978 z"
     fill="#2f2e41"
     id="path137"
     style="stroke-width:0.669202" />
  <path
     d="m 429.84826,469.99178 c -12.36016,0.74951 -24.56642,-2.87757 -36.94666,-3.26571 a 18.476686,18.476686 0 0 0 -4.59074,0.29444 22.558822,22.558822 0 0 0 -4.55057,1.76671 c -6.63181,3.08501 -13.49783,5.64137 -20.35715,8.19772 l -7.86982,2.93111 c -1.57933,0.58221 -3.20548,1.1778 -4.88519,1.07742 -0.7495,-0.0468 -1.66631,-0.16061 -2.09461,0.46844 -1.27816,1.89385 -0.66919,4.68442 0.174,6.81248 0.27437,0.66921 0.73612,1.4388 1.47224,1.51909 a 4.3431253,4.3431253 0 0 0 1.50572,-0.38144 c 1.43209,-0.38144 2.86419,0.58221 4.33643,0.73612 1.82692,0.19406 3.52001,-0.84319 5.23986,-1.47893 2.8508,-1.05065 5.96928,-1.01719 8.96731,-1.5191 5.0324,-0.8365 9.69006,-3.17202 14.05325,-5.83544 1.65963,-1.0105 3.34602,-2.09461 5.24655,-2.46267 2.1883,-0.42829 4.44351,0.13384 6.59166,0.74281 a 152.01608,152.01608 0 0 1 15.1039,5.14617 69.597078,69.597078 0 0 0 7.89659,2.87758 28.548186,28.548186 0 0 0 17.69372,-1.03058 c 2.0076,-0.78296 4.12229,-2.16152 4.23605,-4.29627 0.0669,-1.21797 -0.87666,-2.28869 -1.50571,-3.34603 -0.40821,-0.66919 -0.80974,-1.33841 -1.2514,-1.97414 -2.12807,-3.10511 -4.71119,-7.20731 -8.46543,-6.97978 z"
     opacity="0.1"
     id="path139"
     style="stroke-width:0.669202" />
  <path
     d="m 367.42504,483.20184 q 2.90434,0.98373 5.84884,1.82023 c 1.10419,-1.81354 3.16532,-3.07165 3.63377,-5.13947 a 0.48182592,0.48182592 0 0 0 0,-0.27438 0.49520998,0.49520998 0 0 0 -0.22083,-0.20077 10.941464,10.941464 0 0 0 -4.58405,-1.33841 c -1.27148,-0.0803 -1.847,1.24473 -2.42251,2.17493 -0.20076,0.37475 -1.73993,3.13186 -2.25522,2.95787 z"
     fill="#fbbebe"
     id="path141"
     style="stroke-width:0.669202" />
  <path
     d="m 370.1487,481.87682 a 4.2092848,4.2092848 0 0 1 -2.84411,-1.86708 c -0.27438,-0.47513 -0.56213,-1.11757 -1.11088,-1.0841 -0.54875,0.0335 -0.73612,0.63574 -0.84989,1.13765 a 32.503174,32.503174 0 0 1 -1.5994,5.49415 10.299029,10.299029 0 0 1 -3.41961,4.49034 c -0.71605,0.49521 -1.51241,0.86997 -2.21507,1.39194 a 14.66223,14.66223 0 0 1 -1.87376,1.41872 10.573402,10.573402 0 0 1 -1.43878,0.53536 9.8774314,9.8774314 0 0 0 -2.05447,0.99711 4.1825167,4.1825167 0 0 0 -1.39862,1.3384 2.0076081,2.0076081 0 0 0 -0.12047,1.87376 2.0076081,2.0076081 0 0 0 1.33841,0.94359 6.0696682,6.0696682 0 0 0 1.70647,0.0402 c 2.25521,-0.1673 4.50374,-0.36806 6.75226,-0.56883 a 19.192733,19.192733 0 0 0 2.83073,-0.38816 c 0.4952,-0.12046 0.97703,-0.28106 1.46554,-0.40822 a 12.407017,12.407017 0 0 1 2.57644,-0.37475 2.1816006,2.1816006 0 0 1 0.74951,0.0735 c 0.52198,0.16731 0.89004,0.6692 1.42539,0.78966 a 2.2083688,2.2083688 0 0 0 1.01719,-0.13384 24.091296,24.091296 0 0 1 5.00564,-0.52198 c 0.73612,-0.0402 1.60609,-0.18068 1.94069,-0.84319 0.4216,-0.82312 -0.27437,-1.74662 -0.55544,-2.62996 a 8.2512689,8.2512689 0 0 1 -0.23422,-1.72655 10.513174,10.513174 0 0 0 -1.23803,-4.10221 c -0.57551,-1.05734 -1.3384,-2.22176 -0.95696,-3.34602 a 2.9311077,2.9311077 0 0 0 0.38145,-1.14433 c -0.0938,-1.81355 -4.26282,-1.14434 -5.28001,-1.38525 z"
     fill="#2f2e41"
     id="path143"
     style="stroke-width:0.669202" />
  <path
     d="m 411.31805,450.16999 a 9.6900548,9.6900548 0 0 1 -4.92533,-4.89188 c -0.20077,-0.46843 -0.37475,-0.95695 -0.56882,-1.43209 a 10.954848,10.954848 0 0 0 -2.94449,-4.08212 1.4120176,1.4120176 0 0 0 -1.09081,-0.46175 1.1644126,1.1644126 0 0 0 -0.80304,0.85658 3.5133141,3.5133141 0 0 0 -0.087,1.33841 25.188789,25.188789 0 0 0 0.53535,3.085 l 0.60229,2.73036 a 5.3536214,5.3536214 0 0 0 0.37475,1.21795 4.242745,4.242745 0 0 0 1.00381,1.19788 c 0.54875,0.50859 1.10418,0.9971 1.66631,1.47224 a 5.9023675,5.9023675 0 0 0 1.0105,0.73613 6.1968168,6.1968168 0 0 0 1.88046,0.54874 c 2.45597,0.45505 4.9521,1.11088 7.01993,2.67681 0,0 0,-1.82693 -0.0468,-2.00761 a 2.6768106,2.6768106 0 0 0 -0.52198,-1.46556 c -0.77628,-0.8365 -2.11468,-1.08411 -3.10511,-1.51909 z"
     fill="#fbbebe"
     id="path145"
     style="stroke-width:0.669202" />
  <path
     d="m 411.31805,450.16999 a 9.6900548,9.6900548 0 0 1 -4.92533,-4.89188 c -0.20077,-0.46843 -0.37475,-0.95695 -0.56882,-1.43209 a 10.954848,10.954848 0 0 0 -2.94449,-4.08212 1.4120176,1.4120176 0 0 0 -1.09081,-0.46175 1.1644126,1.1644126 0 0 0 -0.80304,0.85658 3.5133141,3.5133141 0 0 0 -0.087,1.33841 25.188789,25.188789 0 0 0 0.53535,3.085 l 0.60229,2.73036 a 5.3536214,5.3536214 0 0 0 0.37475,1.21795 4.242745,4.242745 0 0 0 1.00381,1.19788 c 0.54875,0.50859 1.10418,0.9971 1.66631,1.47224 a 5.9023675,5.9023675 0 0 0 1.0105,0.73613 6.1968168,6.1968168 0 0 0 1.88046,0.54874 c 2.45597,0.45505 4.9521,1.11088 7.01993,2.67681 0,0 0,-1.82693 -0.0468,-2.00761 a 2.6768106,2.6768106 0 0 0 -0.52198,-1.46556 c -0.77628,-0.8365 -2.11468,-1.08411 -3.10511,-1.51909 z"
     opacity="0.1"
     id="path147"
     style="stroke-width:0.669202" />
  <ellipse
     cx="436.48007"
     cy="426.26614"
     rx="3.0047197"
     ry="3.024796"
     fill="#2f2e41"
     id="ellipse149"
     style="stroke-width:0.669202" />
  <path
     d="m 434.61969,424.43914 a 3.3460134,3.3460134 0 0 0 -2.37568,0.34131 3.1987888,3.1987888 0 0 0 -0.80973,1.11087 15.786491,15.786491 0 0 0 -1.56593,3.68061 c -0.26769,1.10418 -0.31453,2.25522 -0.66921,3.34603 -0.61566,2.0076 -2.19498,3.71406 -2.37566,5.80867 -0.0803,0.93689 0.0735,2.04107 -0.60897,2.67681 a 3.9349117,3.9349117 0 0 1 -0.54207,0.38145 4.1089044,4.1089044 0 0 0 -1.18449,1.21794 3.8612994,3.8612994 0 0 1 -0.8365,1.15772 c -0.61566,0.45506 -1.62615,0.40821 -1.92729,1.11088 -0.30115,0.70267 0.47513,1.51909 0.29444,2.28198 -0.14722,0.62236 -0.84319,0.91011 -1.33841,1.33841 a 4.6308825,4.6308825 0 0 0 -1.14434,2.13476 7.0868563,7.0868563 0 0 1 -5.74844,-1.43879 c 0.8365,2.06784 0.85657,4.34981 0.89004,6.57826 a 2.7169628,2.7169628 0 0 1 -0.52867,2.00762 c 2.39574,0.0535 4.72457,0.66919 7.06008,1.22462 a 4.8450274,4.8450274 0 0 0 3.07833,0 5.0859402,5.0859402 0 0 0 1.41203,-1.12424 c 1.27148,-1.29157 2.60319,-2.67682 2.91103,-4.47698 a 24.318825,24.318825 0 0 0 0.0535,-3.04487 17.46619,17.46619 0 0 1 0.76958,-3.68731 43.130112,43.130112 0 0 0 1.3384,-7.59545 c 0.14054,-1.58602 1.50572,-2.85749 2.22846,-4.2762 1.3384,-2.67681 2.74373,-5.45401 2.85079,-8.45203 0.0938,-0.97704 -0.24091,-2.17491 -1.23132,-2.30207 z"
     fill="#2f2e41"
     id="path151"
     style="stroke-width:0.669202" />
  <path
     d="m 434.61969,424.43914 a 3.3460134,3.3460134 0 0 0 -2.37568,0.34131 3.1987888,3.1987888 0 0 0 -0.80973,1.11087 15.786491,15.786491 0 0 0 -1.56593,3.68061 c -0.26769,1.10418 -0.31453,2.25522 -0.66921,3.34603 -0.61566,2.0076 -2.19498,3.71406 -2.37566,5.80867 -0.0803,0.93689 0.0735,2.04107 -0.60897,2.67681 a 3.9349117,3.9349117 0 0 1 -0.54207,0.38145 4.1089044,4.1089044 0 0 0 -1.18449,1.21794 3.8612994,3.8612994 0 0 1 -0.8365,1.15772 c -0.61566,0.45506 -1.62615,0.40821 -1.92729,1.11088 -0.30115,0.70267 0.47513,1.51909 0.29444,2.28198 -0.14722,0.62236 -0.84319,0.91011 -1.33841,1.33841 a 4.6308825,4.6308825 0 0 0 -1.14434,2.13476 7.0868563,7.0868563 0 0 1 -5.74844,-1.43879 c 0.8365,2.06784 0.85657,4.34981 0.89004,6.57826 a 2.7169628,2.7169628 0 0 1 -0.52867,2.00762 c 2.39574,0.0535 4.72457,0.66919 7.06008,1.22462 a 4.8450274,4.8450274 0 0 0 3.07833,0 5.0859402,5.0859402 0 0 0 1.41203,-1.12424 c 1.27148,-1.29157 2.60319,-2.67682 2.91103,-4.47698 a 24.318825,24.318825 0 0 0 0.0535,-3.04487 17.46619,17.46619 0 0 1 0.76958,-3.68731 43.130112,43.130112 0 0 0 1.3384,-7.59545 c 0.14054,-1.58602 1.50572,-2.85749 2.22846,-4.2762 1.3384,-2.67681 2.74373,-5.45401 2.85079,-8.45203 0.0938,-0.97704 -0.24091,-2.17491 -1.23132,-2.30207 z"
     opacity="0.1"
     id="path153"
     style="stroke-width:0.669202" />
  <path
     d="m 431.80903,472.59497 c -2.57642,-1.22464 -4.45689,-3.50662 -6.53811,-5.46069 -3.97506,-3.73414 -8.83347,-6.3708 -13.0093,-9.87073 -2.7638,-2.31545 -5.23986,-5.01234 -8.28472,-6.95303 a 20.57129,20.57129 0 0 0 -8.87363,-3.11178 2.4626659,2.4626659 0 0 0 -1.08411,0.0535 2.6031984,2.6031984 0 0 0 -1.0105,0.80306 31.53283,31.53283 0 0 0 -3.58023,4.91862 c -5.2934,8.9807 -12.80854,16.53601 -19.03881,24.89434 a 1.1175685,1.1175685 0 0 0 -0.0736,1.51241 l 1.26479,2.48273 c 0.70935,1.38525 1.847,3.00473 3.34601,2.73036 a 3.7140748,3.7140748 0 0 0 1.7734,-1.13096 l 5.68822,-5.44062 5.96258,-5.7016 c 3.49325,-3.34601 7.04671,-6.75895 9.32869,-11.02846 1.78009,3.08502 4.93873,5.10602 7.10694,7.93674 0.82312,1.07072 1.49232,2.25521 2.22844,3.39285 1.18449,1.82694 2.5229,3.54009 3.8613,5.24655 l 6.84595,8.7331 a 13.243521,13.243521 0 0 0 3.16532,3.21218 c 1.61948,1.02388 3.59362,1.29826 5.50086,1.46554 a 70.861871,70.861871 0 0 0 7.72928,0.28107 c 1.96746,-0.0335 4.01522,-0.1606 5.75515,-1.03726 1.73992,-0.87666 3.21885,-2.6768 3.12517,-4.63757 a 6.8860955,6.8860955 0 0 0 -0.98373,-2.89765 c -2.41581,-4.48365 -5.61461,-8.23119 -10.20534,-10.39272 z"
     fill="#2f2e41"
     id="path155"
     style="stroke-width:0.669202" />
  <ellipse
     cx="438.32703"
     cy="428.36072"
     rx="2.3087492"
     ry="2.3221333"
     fill="#e8e8f0"
     id="ellipse157"
     style="stroke-width:0.669202" />
  <path
     d="m 437.81847,426.61406 a 4.4167377,4.4167377 0 0 1 0.25431,3.34602 12.935687,12.935687 0 0 1 -1.48564,3.07833 15.338125,15.338125 0 0 1 -1.93399,2.75711 c 3.56685,0.174 7.02663,-1.22464 10.17187,-2.92442 2.53629,-1.33839 5.06586,-3.04487 6.41766,-5.59452 a 2.9712598,2.9712598 0 0 1 -2.36228,-0.43499 8.8468593,8.8468593 0 0 1 -1.81354,-1.68639 l -1.78677,-2.00761 a 8.030432,8.030432 0 0 1 -1.10418,-1.45217 4.015216,4.015216 0 0 1 -0.47514,-2.33552 13.384054,13.384054 0 0 1 -2.36898,1.96746 c -1.27818,0.8365 -2.67682,1.43878 -3.96837,2.2619 -0.45507,0.29445 -1.46556,0.76959 -1.20457,1.33841 0.26099,0.56882 1.29825,1.04396 1.65962,1.68639 z"
     fill="#fbbebe"
     id="path159"
     style="stroke-width:0.669202" />
  <path
     d="m 437.81847,426.61406 a 4.4167377,4.4167377 0 0 1 0.25431,3.34602 12.935687,12.935687 0 0 1 -1.48564,3.07833 15.338125,15.338125 0 0 1 -1.93399,2.75711 c 3.56685,0.174 7.02663,-1.22464 10.17187,-2.92442 2.53629,-1.33839 5.06586,-3.04487 6.41766,-5.59452 a 2.9712598,2.9712598 0 0 1 -2.36228,-0.43499 8.8468593,8.8468593 0 0 1 -1.81354,-1.68639 l -1.78677,-2.00761 a 8.030432,8.030432 0 0 1 -1.10418,-1.45217 4.015216,4.015216 0 0 1 -0.47514,-2.33552 13.384054,13.384054 0 0 1 -2.36898,1.96746 c -1.27818,0.8365 -2.67682,1.43878 -3.96837,2.2619 -0.45507,0.29445 -1.46556,0.76959 -1.20457,1.33841 0.26099,0.56882 1.29825,1.04396 1.65962,1.68639 z"
     opacity="0.1"
     id="path161"
     style="stroke-width:0.669202" />
  <path
     d="m 437.86532,426.96205 a 3.0181041,3.0181041 0 0 0 0,3.48653 c 0.10037,0.12715 0.48182,0.9235 0.66921,0.93021 a 0.60897443,0.60897443 0 0 0 0.4082,-0.20746 28.367502,28.367502 0 0 0 2.26191,-2.67681 4.9922519,4.9922519 0 0 1 2.87757,-1.88716 c 1.39864,-0.22084 2.74373,0.52199 3.96838,1.23134 a 3.7876871,3.7876871 0 0 1 1.33841,1.11088 3.6471545,3.6471545 0 0 1 0.44836,1.51239 70.808336,70.808336 0 0 1 0.40151,9.60976 36.966756,36.966756 0 0 1 -0.45505,6.91286 c -0.22753,1.17779 -0.56882,2.32883 -0.72944,3.52 a 23.663007,23.663007 0 0 0 -0.14052,3.15864 v 4.41674 a 11.209145,11.209145 0 0 0 0.17399,2.41582 29.51853,29.51853 0 0 0 0.97034,2.80397 18.476686,18.476686 0 0 1 0.66921,3.346 l 0.60228,4.57066 c 0.19406,1.44547 0.3346,3.0181 -0.54206,4.17583 -0.38813,0.52867 -0.91012,0.94357 -1.3384,1.46555 -1.50572,1.91392 -1.00381,4.69111 -1.673,7.06678 a 8.9472397,8.9472397 0 0 1 -2.90434,4.4502 c -1.06404,0.90342 -2.44259,1.61947 -3.82116,1.33841 -1.85368,-0.34799 -2.97126,-2.28199 -3.47985,-4.10891 -0.50859,-1.82692 -0.6692,-3.82115 -1.78678,-5.35363 -0.89672,-1.26479 -2.28197,-2.05445 -3.53337,-2.95786 -1.25142,-0.90344 -2.48275,-2.06115 -2.75712,-3.58694 -0.12047,-0.66919 -0.0468,-1.3384 -0.11377,-2.0076 a 4.7847991,4.7847991 0 0 0 -2.95788,-3.88139 c -0.95026,-0.36805 -2.12806,-0.50189 -2.67681,-1.33839 a 6.4444217,6.4444217 0 0 0 2.78388,-3.74084 19.206116,19.206116 0 0 0 0.66921,-4.68443 l 0.32121,-5.31347 c 0.14054,-2.37566 0.20746,-4.73125 1.25142,-6.86602 0.46843,-0.95026 1.05064,-1.847 1.53247,-2.79058 a 30.964008,30.964008 0 0 0 1.64624,-4.09551 c 0.75619,-2.17492 1.51909,-4.35651 2.19499,-6.55819 a 12.995916,12.995916 0 0 1 1.20456,-3.05825 c 0.62235,-1.00382 1.44547,-2.20838 2.5162,-2.40913 z"
     fill="#e8e8f0"
     id="path163"
     style="stroke-width:0.669202" />
  <path
     d="m 426.06727,461.48621 1.40533,0.0468 0.30115,-2.12138 a 4.5773462,4.5773462 0 0 1 0.29444,-1.23801 7.8832075,7.8832075 0 0 1 0.80973,-1.18449 c 1.38525,-1.95407 1.28487,-4.55059 1.62618,-6.92625 0.45505,-3.16533 1.78007,-6.13659 3.09171,-9.05431 l 2.73035,-6.08305 a 8.7531709,8.7531709 0 0 0 0.58219,-1.55925 8.5457182,8.5457182 0 0 0 0.16731,-1.80016 c 0,-0.93688 0.30783,-4.35651 0.32791,-5.30008 0,-0.34798 -0.76288,-0.15392 -0.9235,-0.46175 -0.34129,-0.6692 -0.80974,1.15104 -1.45217,1.55254 a 3.5601583,3.5601583 0 0 0 -1.2581,1.84032 c -0.5889,1.53247 -0.95027,3.14525 -1.49902,4.68442 a 9.6298265,9.6298265 0 0 1 -2.54966,4.14236 c -0.55543,0.49521 -1.20456,0.88334 -1.73324,1.40532 -1.69977,1.67971 -1.86037,4.32974 -1.92061,6.69204 -0.0401,1.46554 -0.31451,15.36488 0,15.36488 z"
     fill="#2f2e41"
     id="path165"
     style="stroke-width:0.669202" />
  <path
     d="m 446.31065,424.42576 c -1.33839,0.53537 -2.11467,2.00762 -2.49611,3.43972 -0.38145,1.43209 -0.54206,2.94448 -1.27819,4.21597 -1.71316,2.98463 -6.08305,3.85461 -7.29431,7.08016 a 12.949072,12.949072 0 0 0 -0.48851,3.34602 c -0.21415,2.30875 -0.97704,4.54388 -1.20456,6.85263 a 30.214501,30.214501 0 0 0 0.12713,5.38708 l 1.53249,18.22239 a 24.091296,24.091296 0 0 1 -0.46175,8.03043 7.7159069,7.7159069 0 0 0 4.59072,-0.75619 c 1.43879,-0.66921 2.75042,-1.55255 4.12898,-2.31545 2.37568,-1.33841 4.99896,-2.24183 7.07347,-4.01522 a 4.1959007,4.1959007 0 0 0 0.95697,-1.05064 9.0409281,9.0409281 0 0 0 0.6692,-2.40244 13.511202,13.511202 0 0 1 0.6692,-1.88715 56.045724,56.045724 0 0 0 2.00761,-5.62131 30.274729,30.274729 0 0 0 0.91682,-3.86129 c 0.16728,-1.03727 0.25428,-2.08792 0.34797,-3.13187 a 18.449918,18.449918 0 0 1 0.97035,-4.81827 38.63307,38.63307 0 0 0 2.22844,-11.54373 5.781911,5.781911 0 0 0 -0.11376,-1.69978 9.1078484,9.1078484 0 0 0 -0.9235,-1.9273 c -0.63574,-1.19788 -1.01719,-2.5162 -1.61947,-3.72746 -1.3384,-2.74373 -3.74085,-4.82495 -6.25035,-6.57157 -1.28487,-0.84989 -2.69689,-1.77339 -4.08884,-1.24473 z"
     fill="#2f2e41"
     id="path167"
     style="stroke-width:0.669202" />
  <path
     d="m 414.36292,454.15844 a 10.974924,10.974924 0 0 1 -2.91104,-2.20836 c -0.38143,-0.44837 -0.66919,-0.95028 -1.0841,-1.39195 a 7.1537765,7.1537765 0 0 0 -3.66054,-2.0879 17.660258,17.660258 0 0 0 -4.24274,-0.40823 7.5352221,7.5352221 0 0 0 -2.81734,0.3413 2.8441114,2.8441114 0 0 0 -1.87377,2.00761 c -0.20745,1.13764 0.53536,2.24182 1.4254,2.96456 a 6.8860955,6.8860955 0 0 0 2.84411,1.38525 23.602778,23.602778 0 0 0 2.56974,0.30114 c 5.05917,0.52868 9.57629,3.27909 14.00641,5.78861 q 5.84214,3.29916 11.91181,6.17674 a 23.843691,23.843691 0 0 0 0.20076,-3.65385 c 0,-0.9101 -0.0669,-2.30206 -0.9302,-2.83742 -1.00379,-0.62904 -2.6768,-0.76958 -3.78768,-1.14433 a 60.087707,60.087707 0 0 1 -7.62222,-3.07834 c -1.39863,-0.67589 -2.73704,-1.39194 -4.0286,-2.15483 z"
     fill="#fbbebe"
     id="path169"
     style="stroke-width:0.669202" />
  <ellipse
     cx="436.48007"
     cy="416.50909"
     rx="9.0141602"
     ry="9.0676966"
     fill="#fbbebe"
     id="ellipse171"
     style="stroke-width:0.669202" />
  <path
     d="m 448.88709,434.70472 a 14.655539,14.655539 0 0 0 -1.74662,3.25902 c -1.11757,2.29537 -2.86419,4.26281 -3.73416,6.69202 -0.9235,2.5229 -0.89003,5.52762 -2.6768,7.51515 a 2.5898144,2.5898144 0 0 0 -0.78297,1.13765 5.6346866,5.6346866 0 0 1 -0.0938,0.82312 c -0.2543,0.72274 -1.43878,0.7562 -1.65963,1.49232 -0.0602,0.21414 0,0.44836 -0.10711,0.6692 -0.18068,0.47513 -0.80304,0.54206 -1.22463,0.82981 -0.87666,0.59559 -0.66921,1.97416 -1.33841,2.83073 a 2.3756694,2.3756694 0 0 1 -2.24852,0.78966 8.3382653,8.3382653 0 0 1 -2.34221,-0.87666 2.1012963,2.1012963 0 0 0 -0.83651,-0.26098 1.7064669,1.7064669 0 0 0 -0.97035,0.3279 c -1.6663,1.05735 -2.44927,3.15863 -2.43588,5.13947 a 16.730066,16.730066 0 0 0 1.38524,5.74176 2.4158217,2.4158217 0 0 0 0.46175,0.85658 c 0.54875,0.58222 1.5124,0.48853 2.24852,0.16061 a 10.473021,10.473021 0 0 1 2.1883,-0.97703 c 1.39194,-0.2543 2.75711,0.70936 4.16912,0.62905 a 5.8755995,5.8755995 0 0 0 2.81736,-1.24472 15.592422,15.592422 0 0 0 3.80106,-3.24563 c 0.61567,-0.80974 1.07073,-1.73324 1.61278,-2.59651 a 29.444918,29.444918 0 0 1 2.2753,-3.03818 l 5.19969,-6.36412 a 13.665119,13.665119 0 0 0 1.39864,-1.934 14.16702,14.16702 0 0 0 1.09081,-2.90433 22.960344,22.960344 0 0 0 1.0774,-5.17294 20.63821,20.63821 0 0 0 -0.38144,-4.34313 15.09052,15.09052 0 0 0 -1.11757,-4.12897 c -1.15772,-2.34221 -3.90814,-4.2829 -6.02951,-1.80685 z"
     fill="#2f2e41"
     id="path173"
     style="stroke-width:0.669202" />
  <path
     d="m 466.99571,422.89329 a 10.151805,10.151805 0 0 0 -4.17582,-8.25127 12.045648,12.045648 0 0 0 -10.24549,-11.74451 11.711047,11.711047 0 0 0 -23.06742,0.62237 c -3.74754,-0.8432 -7.17385,0.25429 -7.79621,2.56304 -0.66921,2.41582 2.00761,5.23986 5.96929,6.31059 a 10.968232,10.968232 0 0 0 3.82114,0.38145 11.744508,11.744508 0 0 0 8.07059,5.019 11.998804,11.998804 0 0 0 8.80001,9.08109 10.03804,10.03804 0 0 0 2.71696,3.76091 c 0,0.28108 -0.0468,0.56883 -0.0468,0.86328 a 7.6356026,7.6356026 0 1 0 15.25782,0 8.030432,8.030432 0 0 0 -0.72944,-3.34601 10.258877,10.258877 0 0 0 1.42541,-5.25994 z"
     fill="#f86d70"
     id="path175"
     style="stroke-width:0.669202" />
  <path
     d="m 424.25373,406.54467 c 0.62237,-2.30875 4.01522,-3.40624 7.79622,-2.56304 a 11.905116,11.905116 0 0 1 11.59728,-10.03805 c 0.26099,0 0.52198,0 0.77628,0 a 11.376446,11.376446 0 0 0 -3.34601,-0.49521 11.905116,11.905116 0 0 0 -11.59728,10.03805 c -3.74755,-0.8432 -7.17387,0.25429 -7.79622,2.56304 -0.6692,2.41582 2.00761,5.23987 5.96928,6.31059 a 11.463442,11.463442 0 0 0 2.25522,0.38813 c -3.76092,-1.09749 -6.2905,-3.84122 -5.65477,-6.20351 z"
     opacity="0.1"
     id="path177"
     style="stroke-width:0.669202" />
  <path
     d="m 453.58488,431.96768 c 0,-0.29445 0,-0.58221 0.0468,-0.86997 a 9.9978879,9.9978879 0 0 1 -2.71696,-3.75423 12.045648,12.045648 0 0 1 -8.80001,-9.08777 11.724431,11.724431 0 0 1 -8.07058,-5.01901 10.660399,10.660399 0 0 1 -2.24853,-0.0602 11.704355,11.704355 0 0 0 7.77615,4.6175 11.998804,11.998804 0 0 0 8.8,9.08107 10.03804,10.03804 0 0 0 2.71696,3.76092 c 0,0.28107 -0.0468,0.56883 -0.0468,0.86327 a 7.769443,7.769443 0 0 0 7.58877,7.89659 7.8832075,7.8832075 0 0 1 -5.04581,-7.42814 z"
     opacity="0.1"
     id="path179"
     style="stroke-width:0.669202" />
  <ellipse
     cx="96.914902"
     cy="598.97723"
     rx="1.3919414"
     ry="1.8536915"
     transform="rotate(-37.22)"
     fill="#fbbebe"
     id="ellipse181"
     style="stroke-width:0.669202" />
  <path
     d="m 225.13248,464.95268 8.91378,-5.23986 a 21.414485,21.414485 0 0 0 -4.55726,-5.454 l -16.81038,5.22647 13.16991,-7.74268 a 21.414485,21.414485 0 0 0 -31.70014,18.78453 c 0,11.82481 9.58968,12.23302 21.41449,12.23302 11.82481,0 21.41449,-0.40821 21.41449,-12.23302 a 21.247185,21.247185 0 0 0 -1.8403,-8.69963 z"
     fill="#7b2cbf"
     id="path183"
     style="stroke-width:0.669202" />
  <path
     d="m 227.40107,476.44958 a 16.730066,16.730066 0 0 0 -3.15863,-2.48274 c -1.61277,-1.07741 -3.29247,-2.1749 -5.19971,-2.53627 -1.673,-0.32123 -3.39954,-0.0468 -5.106,-0.14723 a 11.931883,11.931883 0 0 1 -7.82299,-3.58693 c -1.21795,-1.25809 -2.17491,-2.80396 -3.64045,-3.76761 a 7.9635119,7.9635119 0 0 0 -5.44732,-0.99711 13.243521,13.243521 0 0 0 -1.61277,0.32791 21.414485,21.414485 0 0 0 -1.26481,7.26754 c 0,11.82481 9.58968,12.23302 21.41449,12.23302 5.74176,0 10.94815,-0.0938 14.79607,-1.54585 l -0.6692,-1.19788 a 16.649763,16.649763 0 0 0 -2.28868,-3.56685 z"
     opacity="0.1"
     id="path185"
     style="stroke-width:0.669202" />
  <metadata
     id="metadata364">
    <rdf:RDF>
      <cc:Work
         rdf:about="">
        <dc:title>discount</dc:title>
      </cc:Work>
    </rdf:RDF>
  </metadata>
</svg>
