<?xml version="1.0" encoding="UTF-8" standalone="no"?>
<svg
   data-name="Layer 1"
   width="800"
   height="600"
   viewBox="0 0 800.00002 600"
   version="1.1"
   id="svg82"
   sodipodi:docname="reservation.svg"
   inkscape:version="1.2.1 (1:1.2.1+202210291244+9c6d41e410)"
   xmlns:inkscape="http://www.inkscape.org/namespaces/inkscape"
   xmlns:sodipodi="http://sodipodi.sourceforge.net/DTD/sodipodi-0.dtd"
   xmlns="http://www.w3.org/2000/svg"
   xmlns:svg="http://www.w3.org/2000/svg">
  <defs
     id="defs86" />
  <sodipodi:namedview
     id="namedview84"
     pagecolor="#ffffff"
     bordercolor="#666666"
     borderopacity="1.0"
     inkscape:showpageshadow="2"
     inkscape:pageopacity="0.0"
     inkscape:pagecheckerboard="0"
     inkscape:deskcolor="#d1d1d1"
     showgrid="false"
     inkscape:zoom="0.41769912"
     inkscape:cx="159.20551"
     inkscape:cy="282.5"
     inkscape:window-width="1920"
     inkscape:window-height="1009"
     inkscape:window-x="0"
     inkscape:window-y="34"
     inkscape:window-maximized="1"
     inkscape:current-layer="svg82" />
  <path
     d="m 730.20934,380.7965 c -4.87788,5.32911 -10.92729,9.29625 -17.49171,12.37652 h -0.008 c -0.61747,0.29298 -1.23532,0.57804 -1.86091,0.84727 h -0.008 l -0.008,0.008 -0.008,-0.008 h -0.008 a 0.00782342,0.00782342 0 0 1 -0.008,0.008 h -0.008 l -0.008,-0.008 c -0.008,0.008 -0.008,0.008 -0.0158,0 l -0.008,0.008 -0.008,-0.008 h -0.008 c -0.008,0.008 -0.008,0.008 -0.0158,0 h -0.008 a 110.67946,110.67946 0 0 1 -13.50891,4.83025 187.39077,187.39077 0 0 1 -83.23058,4.34722 c -0.53048,-0.095 -1.05322,-0.19004 -1.58369,-0.28506 v -64.22645 c 0.52274,-0.22172 1.05321,-0.44343 1.58369,-0.65723 q 5.19066,-2.14986 10.50777,-3.9513 7.64914,-2.61309 15.51209,-4.48184 a 168.00278,168.00278 0 0 1 52.29336,-4.22844 q 4.78701,0.35633 9.54968,1.02939 c 6.64367,0.9265 13.61175,2.54182 19.7408,5.34495 h 0.008 c 0.89508,0.41968 1.77391,0.85519 2.64502,1.32242 5.44779,2.95358 10.04033,7.01573 12.84351,12.5824 a 24.208706,24.208706 0 0 1 2.15397,6.32683 v 0.0158 c 0.15813,0.76017 0.26907,1.52826 0.35609,2.28843 0.99796,9.37539 -2.89007,19.40805 -9.39111,26.51881 z"
     fill="#f2f2f2"
     id="path2"
     style="stroke-width:0.791844" />
  <path
     d="m 739.60053,354.27765 a 1.0755376,1.0755376 0 0 1 -0.23748,0.0317 q -20.34624,0.89082 -40.63762,2.64475 h -0.0236 c -0.0553,0.008 -0.10285,0.008 -0.15814,0.0158 q -20.83346,1.80541 -41.57991,4.52143 c -0.58577,0.0792 -1.16419,0.15837 -1.74222,0.22963 q -14.34772,1.91231 -28.64092,4.24429 -6.30711,1.03335 -12.59024,2.15381 c -0.53048,0.095 -1.05321,0.18213 -1.58368,0.28507 v -2.39929 c 0.53047,-0.10294 1.06094,-0.19004 1.58368,-0.28507 q 20.92856,-3.70582 41.99939,-6.46936 5.29744,-0.71266 10.61064,-1.34613 15.34584,-1.85292 30.73923,-3.19905 c 0.75241,-0.0634 1.4967,-0.1267 2.2491,-0.19004 q 19.70485,-1.67475 39.46538,-2.54182 a 0.74354127,0.74354127 0 0 1 0.1902,0.0158 c 1.26703,0.11086 1.53618,2.01129 0.35617,2.28843 z"
     fill="#ffffff"
     id="path4"
     style="stroke-width:0.791844" />
  <path
     d="m 711.43166,391.68688 c -16.89783,0.12417 -33.54528,-7.04094 -45.4977,-18.90081 a 61.626142,61.626142 0 0 1 -8.85612,-11.14124 c -0.80564,-1.29206 -2.69035,0.13277 -1.89162,1.41375 9.28255,14.887 24.74473,25.49188 41.79211,29.39115 a 63.990072,63.990072 0 0 0 14.757,1.57908 c 1.51529,-0.0112 1.20137,-2.353 -0.30367,-2.34194 z"
     fill="#ffffff"
     id="path6"
     style="stroke-width:0.791844" />
  <path
     d="m 640.01029,329.59588 a 1.339958,1.339958 0 0 1 -0.9898,0.89479 51.64389,51.64389 0 0 0 -11.14884,4.35514 54.166926,54.166926 0 0 0 -13.88123,10.49193 c -0.2138,0.21379 -0.41951,0.42759 -0.61747,0.64931 -0.3329,0.34841 -0.64956,0.70474 -0.96622,1.06899 v -3.45244 c 0.50688,-0.53845 1.03736,-1.06899 1.58369,-1.57577 a 56.943138,56.943138 0 0 1 10.50777,-7.95011 q 7.64915,-2.61309 15.5121,-4.48184 z"
     fill="#ffffff"
     id="path8"
     style="stroke-width:0.791844" />
  <path
     d="m 722.99461,331.11766 a 54.955761,54.955761 0 0 0 -25.67292,22.6353 1.1874093,1.1874093 0 0 0 0.62762,1.54715 1.2096205,1.2096205 0 0 0 1.54714,-0.62763 52.300107,52.300107 0 0 1 24.38582,-21.36681 c 1.3978,-0.59718 0.513,-2.78635 -0.88759,-2.18799 z"
     fill="#ffffff"
     id="path10"
     style="stroke-width:0.791844" />
  <path
     d="m 755.39797,263.86494 c -1.8374,6.98406 -5.36086,13.31089 -9.7396,19.08343 l -0.008,0.008 c -0.40408,0.53845 -0.82352,1.08482 -1.25895,1.60744 v 0.008 a 110.28058,110.28058 0 0 1 -9.82686,10.60279 184.83913,184.83913 0 0 1 -42.2608,30.193 c -24.28578,12.68533 -51.43002,20.18409 -78.31326,20.61169 -0.2057,0.008 -0.41176,0.008 -0.61747,0.008 -0.32479,0.008 -0.64956,0.008 -0.96622,0.008 v -35.9893 c 0.51462,-0.98189 1.04509,-1.96377 1.58369,-2.93774 a 173.82882,173.82882 0 0 1 25.36297,-34.69859 c 0.23739,-0.26131 0.48291,-0.52262 0.72843,-0.77601 q 5.55837,-5.86756 11.65572,-11.17292 a 166.93552,166.93552 0 0 1 53.28317,-31.55497 c 6.31116,-2.26467 13.23171,-4.07799 19.96238,-4.43432 0.98981,-0.0554 1.97187,-0.0792 2.96168,-0.0713 6.2002,0.0871 12.14678,1.55201 17.22258,5.17866 a 24.546,24.546 0 0 1 4.84616,4.60061 c 0.4907,0.60972 0.94229,1.23528 1.37765,1.87667 v 0.008 c 5.24208,7.83925 6.4616,18.52122 4.00681,27.84123 z"
     fill="#f2f2f2"
     id="path12"
     style="stroke-width:0.791844" />
  <path
     d="m 751.39116,236.01579 v 0.008 a 1.1570658,1.1570658 0 0 1 -0.1898,0.13461 q -17.57932,10.22666 -34.71474,21.19766 c -0.0158,0.008 -0.0236,0.0158 -0.0394,0.0238 a 1.3773884,1.3773884 0 0 1 -0.14267,0.0871 q -17.61465,11.28377 -34.73016,23.32771 c -0.47518,0.33258 -0.95813,0.67307 -1.44101,1.01356 q -11.81851,8.35 -23.39107,17.05632 -21.85535,16.46243 -42.75182,34.1443 c -0.53048,0.44343 -1.05322,0.89478 -1.58369,1.34613 v -3.08027 c 0.52274,-0.45135 1.05321,-0.9027 1.58369,-1.34613 q 8.00582,-6.75839 16.15353,-13.32673 c 1.62351,-1.30654 3.25437,-2.61309 4.88561,-3.90379 q 21.73646,-17.30575 44.44649,-33.32079 h 0.008 q 4.4663,-3.14758 8.94768,-6.23972 12.73311,-8.76571 25.75116,-17.11175 c 0.6252,-0.40384 1.25891,-0.80768 1.89223,-1.21152 q 16.66467,-10.64238 33.76435,-20.58794 a 1.1787703,1.1787703 0 0 1 0.17436,-0.0871 c 1.18769,-0.47511 2.30395,1.09275 1.37757,1.87667 z"
     fill="#ffffff"
     id="path14"
     style="stroke-width:0.791844" />
  <path
     d="m 743.82755,282.23049 c -14.9064,7.95939 -32.97709,9.34734 -49.07086,4.39686 a 61.62653,61.62653 0 0 1 -13.01797,-5.7524 c -1.31367,-0.76996 -2.32081,1.36731 -1.01843,2.13066 15.13559,8.87141 33.75451,11.08017 50.66232,6.61434 a 63.990231,63.990231 0 0 0 13.80176,-5.4566 c 1.33671,-0.71374 -0.0293,-2.64179 -1.35682,-1.93289 z"
     fill="#ffffff"
     id="path16"
     style="stroke-width:0.791844" />
  <path
     d="m 632.2988,311.20281 a 54.283082,54.283082 0 0 1 -0.75416,-12.56596 57.26526,57.26526 0 0 1 8.53663,-27.04198 q 5.56522,-5.86558 11.65857,-11.1747 a 1.3497531,1.3497531 0 0 1 -0.46417,1.25494 51.827186,51.827186 0 0 0 -7.84852,9.033 54.733601,54.733601 0 0 0 -8.77533,40.29877 0.96004718,0.96004718 0 0 1 -0.24843,0.90494 1.2863897,1.2863897 0 0 1 -2.10459,-0.70901 z"
     fill="#ffffff"
     id="path18"
     style="stroke-width:0.791844" />
  <path
     d="m 725.93156,223.22146 a 54.955713,54.955713 0 0 0 -12.22037,31.97059 1.1874014,1.1874014 0 0 0 1.27448,1.07855 1.2096284,1.2096284 0 0 0 1.07855,-1.27448 52.300075,52.300075 0 0 1 11.66973,-30.24937 c 0.96043,-1.17814 -0.84004,-2.70578 -1.80239,-1.52529 z"
     fill="#ffffff"
     id="path20"
     style="stroke-width:0.791844" />
  <path
     d="m 643.93007,249.23958 v 0.008 c -0.0553,0.68102 -0.1187,1.35405 -0.19022,2.02712 v 0.0158 a 111.88701,111.88701 0 0 1 -2.5735,14.22151 c -0.55406,2.29635 -1.15609,4.57686 -1.81296,6.85737 -0.0793,0.29298 -0.16665,0.58596 -0.25364,0.87102 v 0.008 a 181.74629,181.74629 0 0 1 -6.92051,19.51895 189.18611,189.18611 0 0 1 -18.18882,33.43164 c -0.51463,0.76809 -1.0451,1.53618 -1.58369,2.29635 V 204.49249 c 0.53047,-0.0317 1.05321,-0.0317 1.58369,-0.0158 q 0.37987,0 0.76017,0.0238 a 24.010159,24.010159 0 0 1 6.55668,1.27491 c 0.74428,0.24547 1.4646,0.52261 2.17757,0.83143 8.63875,3.78502 15.42512,12.13105 18.37054,21.30852 2.20925,6.87316 2.65272,14.1027 2.07469,21.32431 z"
     fill="#f2f2f2"
     id="path22"
     style="stroke-width:0.791844" />
  <path
     d="m 623.48481,206.60671 a 0.85222182,0.85222182 0 0 1 -0.0874,0.22172 q -4.81022,9.34779 -9.40701,18.79045 c -0.53048,1.08483 -1.06095,2.17757 -1.58369,3.2624 v -5.38454 q 0.78411,-1.61541 1.58369,-3.23072 3.5517,-7.19786 7.2217,-14.33237 a 1.0321762,1.0321762 0 0 1 0.0951,-0.15837 c 0.72843,-1.04524 2.53367,-0.33258 2.17757,0.83143 z"
     fill="#ffffff"
     id="path24"
     style="stroke-width:0.791844" />
  <path
     d="m 644.18333,250.51445 c -0.14229,0.25339 -0.28496,0.50674 -0.44348,0.76017 a 63.202093,63.202093 0 0 1 -8.25095,11.27585 68.032276,68.032276 0 0 1 -21.49848,15.65476 c -0.52274,0.25339 -1.05322,0.49094 -1.58369,0.71265 v -2.57349 c 0.53047,-0.23755 1.06095,-0.48302 1.58369,-0.73641 a 64.033236,64.033236 0 0 0 28.0076,-25.98831 1.3024879,1.3024879 0 0 1 1.93205,-0.37217 0.91278995,0.91278995 0 0 1 0.25326,1.26695 z"
     fill="#ffffff"
     id="path26"
     style="stroke-width:0.791844" />
  <path
     d="m 613.99042,107.5233 v 60.18013 h -1.58369 v -0.64139 H 82.663269 v 0.64139 H 81.079582 V 107.5233 A 26.156531,26.156531 0 0 1 107.21043,81.39246 h 480.64915 a 26.156531,26.156531 0 0 1 26.13084,26.13084 z"
     fill="#7b2cbf"
     id="path28"
     style="stroke-width:0.791844" />
  <path
     d="M 587.85958,81.39246 H 107.21043 A 26.156531,26.156531 0 0 0 81.079582,107.5233 v 343.66019 a 26.156531,26.156531 0 0 0 26.130848,26.13084 h 480.64915 a 26.156531,26.156531 0 0 0 26.13084,-26.13084 V 107.5233 A 26.156531,26.156531 0 0 0 587.85958,81.39246 Z m 24.54715,369.79103 a 24.578545,24.578545 0 0 1 -24.54715,24.54716 H 107.21043 A 24.578537,24.578537 0 0 1 82.663269,451.18349 V 107.5233 A 24.578537,24.578537 0 0 1 107.21043,82.976148 h 480.64915 a 24.578545,24.578545 0 0 1 24.54715,24.547152 z"
     fill="#3f3d56"
     id="path30"
     style="stroke-width:0.791844" />
  <circle
     cx="188.77032"
     cy="124.54795"
     r="15.836875"
     fill="#ffffff"
     id="circle32"
     style="stroke-width:0.791844" />
  <circle
     cx="506.29968"
     cy="124.54795"
     r="15.836875"
     fill="#ffffff"
     id="circle34"
     style="stroke-width:0.791844" />
  <path
     d="m 234.52673,301.13061 h -94.21058 a 15.071162,15.071162 0 0 1 -15.0541,-15.05409 v -44.52745 a 15.071162,15.071162 0 0 1 15.0541,-15.05409 h 94.21058 a 15.071162,15.071162 0 0 1 15.0541,15.05409 v 44.52745 a 15.071162,15.071162 0 0 1 -15.0541,15.05409 z"
     fill="#7b2cbf"
     id="path36"
     style="stroke-width:0.791844" />
  <path
     d="m 394.79477,301.13061 h -94.21059 a 15.071162,15.071162 0 0 1 -15.05409,-15.05409 v -44.52745 a 15.071162,15.071162 0 0 1 15.05409,-15.05409 h 94.21059 a 15.071162,15.071162 0 0 1 15.05409,15.05409 v 44.52745 a 15.071162,15.071162 0 0 1 -15.05409,15.05409 z"
     fill="#7b2cbf"
     id="path38"
     style="stroke-width:0.791844" />
  <path
     d="M 394.79477,416.17868 H 300.58418 A 15.527763,15.527763 0 0 1 285.0739,400.6684 v -44.5279 a 15.527755,15.527755 0 0 1 15.51028,-15.51027 h 94.21059 a 15.527755,15.527755 0 0 1 15.51025,15.51027 v 44.5279 a 15.527755,15.527755 0 0 1 -15.51025,15.51028 z"
     fill="#f2f2f2"
     id="path40"
     style="stroke-width:0.791844" />
  <path
     d="M 234.21778,416.17868 H 140.00719 A 15.527763,15.527763 0 0 1 124.49695,400.6684 v -44.5279 a 15.527755,15.527755 0 0 1 15.51024,-15.51027 h 94.21059 a 15.527755,15.527755 0 0 1 15.51028,15.51027 v 44.5279 a 15.527763,15.527763 0 0 1 -15.51028,15.51028 z"
     fill="#f2f2f2"
     id="path42"
     style="stroke-width:0.791844" />
  <path
     d="M 555.06277,416.17868 H 460.85221 A 15.527755,15.527755 0 0 1 445.34194,400.6684 v -44.5279 a 15.527755,15.527755 0 0 1 15.51027,-15.51027 h 94.21056 a 15.527755,15.527755 0 0 1 15.51028,15.51027 v 44.5279 a 15.527763,15.527763 0 0 1 -15.51028,15.51028 z"
     fill="#f2f2f2"
     id="path44"
     style="stroke-width:0.791844" />
  <path
     d="m 555.06277,301.22016 h -94.21056 a 15.527755,15.527755 0 0 1 -15.51027,-15.51027 v -44.5279 a 15.527755,15.527755 0 0 1 15.51027,-15.51028 h 94.21056 a 15.527763,15.527763 0 0 1 15.51028,15.51028 v 44.52789 a 15.527755,15.527755 0 0 1 -15.51028,15.51028 z"
     fill="#f2f2f2"
     id="path46"
     style="stroke-width:0.791844" />
  <circle
     cx="187.42143"
     cy="263.81281"
     r="25.546337"
     fill="#ffffff"
     id="circle48"
     style="stroke-width:0.791844" />
  <path
     d="m 184.8892,273.55813 a 2.6493983,2.6493983 0 0 1 -1.59416,-0.52954 l -0.0285,-0.0214 -6.00356,-4.59655 a 2.6672464,2.6672464 0 1 1 3.24444,-4.23443 l 3.88866,2.98177 9.1895,-11.98445 a 2.6671435,2.6671435 0 0 1 3.73959,-0.49365 l -0.0571,0.0776 0.0586,-0.0765 a 2.6702555,2.6702555 0 0 1 0.49365,3.73962 l -10.80907,14.09659 a 2.6683075,2.6683075 0 0 1 -2.122,1.04088 z"
     fill="#7b2cbf"
     id="path50"
     style="stroke-width:0.791844" />
  <circle
     cx="348.14566"
     cy="263.44592"
     r="25.546337"
     fill="#ffffff"
     id="circle52"
     style="stroke-width:0.791844" />
  <path
     d="m 345.61343,273.19127 a 2.64943,2.64943 0 0 1 -1.59418,-0.52954 l -0.0285,-0.0214 -6.00357,-4.59654 a 2.6672476,2.6672476 0 1 1 3.24444,-4.23443 l 3.88865,2.98177 9.18951,-11.98446 a 2.6671673,2.6671673 0 0 1 3.73959,-0.49365 l -0.0571,0.0776 0.0586,-0.0764 a 2.6702317,2.6702317 0 0 1 0.49364,3.73961 l -10.80906,14.09659 a 2.6683075,2.6683075 0 0 1 -2.12199,1.04087 z"
     fill="#7b2cbf"
     id="path54"
     style="stroke-width:0.791844" />
  <path
     d="m 520.8001,383.99538 a 8.5065318,8.5065318 0 0 0 -1.72846,-12.92872 l -14.26203,-76.15378 -17.345,6.43186 19.47317,72.83421 a 8.5526329,8.5526329 0 0 0 13.86232,9.81643 z"
     fill="#a0616a"
     id="path56"
     style="stroke-width:0.791844" />
  <path
     d="m 382.39774,267.79278 a 9.0318805,9.0318805 0 0 1 0.0173,1.42222 l 33.72463,25.95628 9.56365,-3.92721 7.8133,13.6586 -16.25497,8.59769 a 6.8649289,6.8649289 0 0 1 -8.1374,-1.28869 l -33.70958,-34.75338 a 9.0077214,9.0077214 0 1 1 6.98302,-9.66551 z"
     fill="#a0616a"
     id="path58"
     style="stroke-width:0.791844" />
  <polygon
     points="480.028,552.849 467.769,552.849 461.936,515.561 480.031,515.562 "
     fill="#a0616a"
     id="polygon60"
     transform="matrix(0.79184374,0,0,0.79184374,81.079582,81.39246)" />
  <path
     d="m 463.66276,528.57305 -31.30199,-8e-4 v -0.39592 a 12.183347,12.183347 0 0 1 12.18368,-12.18349 h 7.9e-4 l 19.11812,7.9e-4 z"
     fill="#2f2e41"
     id="path62"
     style="stroke-width:0.791844" />
  <polygon
     points="526.028,552.849 513.769,552.849 507.936,515.561 526.031,515.562 "
     fill="#a0616a"
     id="polygon64"
     transform="matrix(0.79184374,0,0,0.79184374,81.079582,81.39246)" />
  <path
     d="m 500.08757,528.57305 -31.30199,-8e-4 v -0.39592 a 12.183347,12.183347 0 0 1 12.18368,-12.18349 h 7.9e-4 l 19.11812,7.9e-4 z"
     fill="#2f2e41"
     id="path66"
     style="stroke-width:0.791844" />
  <path
     d="m 449.46352,513.32683 a 3.555513,3.555513 0 0 1 -3.54338,-3.22459 l -8.45974,-113.7796 0.39979,-0.0325 58.21714,-4.78511 0.0157,0.41371 4.62792,117.86641 a 3.5630118,3.5630118 0 0 1 -3.56098,3.69633 h -11.41488 a 3.5435007,3.5435007 0 0 1 -3.52173,-3.02122 L 466.72208,415.2449 a 0.39592187,0.39592187 0 0 0 -0.78721,0.0573 l -0.70311,94.01056 a 3.5668918,3.5668918 0 0 1 -3.37577,3.53314 l -12.20127,0.47557 c -0.064,0.004 -0.12798,0.006 -0.1912,0.006 z"
     fill="#2f2e41"
     id="path68"
     style="stroke-width:0.791844" />
  <circle
     cx="459.4003"
     cy="233.08151"
     r="19.448498"
     fill="#a0616a"
     id="circle70"
     style="stroke-width:0.791844" />
  <path
     d="m 463.16528,403.57914 a 95.842596,95.842596 0 0 1 -25.1556,-3.43802 3.5715795,3.5715795 0 0 1 -2.56225,-3.711 c 2.61819,-39.34937 3.23377,-69.88561 -2.27184,-91.01372 -2.34657,-9.00491 -1.28121,-18.48886 2.92275,-26.01988 6.32677,-11.33366 17.95543,-18.23174 30.35942,-17.99357 v 0 q 0.88914,0.0168 1.79594,0.0634 c 18.82442,0.96931 33.49289,17.99898 32.69862,37.96249 l -3.78642,95.15463 a 3.5157308,3.5157308 0 0 1 -2.22934,3.20218 90.464291,90.464291 0 0 1 -31.77128,5.79348 z"
     fill="#3f3d56"
     id="path72"
     style="stroke-width:0.791844" />
  <path
     d="m 436.37603,312.72236 -14.56804,-17.85171 a 4.5621998,4.5621998 0 0 1 1.19906,-6.80341 l 19.73392,-11.75892 a 12.670062,12.670062 0 0 1 15.96369,19.67939 l -15.42297,16.92412 a 4.5622077,4.5622077 0 0 1 -6.90567,-0.18947 z"
     fill="#3f3d56"
     id="path74"
     style="stroke-width:0.791844" />
  <path
     d="m 482.20393,310.48231 a 4.5572983,4.5572983 0 0 1 -2.50547,-2.85547 l -6.55805,-21.93824 a 12.670062,12.670062 0 0 1 22.91864,-10.80991 l 12.68245,19.15346 a 4.5622077,4.5622077 0 0 1 -1.8699,6.65038 l -20.86845,9.76826 a 4.5570607,4.5570607 0 0 1 -3.79922,0.0315 z"
     fill="#3f3d56"
     id="path76"
     style="stroke-width:0.791844" />
  <path
     d="m 469.01085,249.03943 -14.41631,-3.29965 c -1.48704,-0.34036 -3.27359,-0.98973 -3.47981,-2.50122 -0.27715,-2.03118 2.64593,-3.44621 2.37632,-5.4784 -0.26117,-1.96835 -2.92392,-2.22203 -4.82261,-2.80306 a 7.2142111,7.2142111 0 0 1 -4.49162,-8.97969 c -2.05433,2.89498 -6.74773,3.14293 -9.41229,0.79749 -2.66455,-2.34545 -3.17563,-6.60092 -1.57547,-9.76959 a 11.31342,11.31342 0 0 1 8.49173,-5.73335 17.908837,17.908837 0 0 1 10.31223,1.9225 c 0.21113,-2.2436 3.01234,-3.15318 5.26576,-3.1732 a 22.512703,22.512703 0 0 1 21.09721,15.39843 c 2.76512,8.90992 0.91552,18.67671 -6.8211,23.88987 z"
     fill="#2f2e41"
     id="path78"
     style="stroke-width:0.791844" />
  <path
     d="M 614.21799,528.78418 H 312.52553 a 0.791845,0.791845 0 1 1 0,-1.58369 h 301.69246 a 0.791845,0.791845 0 1 1 0,1.58369 z"
     fill="#3f3d56"
     id="path80"
     style="stroke-width:0.791844" />
</svg>
